<svg width="1127" height="441" viewBox="0 0 1127 441" fill="none" xmlns="http://www.w3.org/2000/svg">
<rect x="110" y="178" width="130" height="160" rx="10" fill="#000425"/>
<path d="M151 201.5C151 198.739 153.239 196.5 156 196.5H193L208 211.5V263.5C208 266.261 205.761 268.5 203 268.5H156C153.239 268.5 151 266.261 151 263.5V201.5Z" fill="#7D7D7D"/>
<path d="M208 211.5H196C194.343 211.5 193 210.157 193 208.5V196.5L208 211.5Z" fill="#D9D9D9"/>
<path d="M142.201 221.7C142.315 220.363 143.374 219.339 144.701 219.143C146.967 218.809 150.494 218.214 153.103 217.424C156.102 216.516 160.315 214.616 162.429 213.627C163.266 213.236 164.234 213.236 165.071 213.627C167.185 214.616 171.398 216.516 174.397 217.424C177.006 218.214 180.533 218.809 182.799 219.143C184.126 219.339 185.185 220.363 185.299 221.7C185.951 229.298 186.301 253.895 164.589 260.747C164.052 260.917 163.448 260.917 162.911 260.747C141.199 253.895 141.549 229.298 142.201 221.7Z" fill="#D9D9D9"/>
<path fill-rule="evenodd" clip-rule="evenodd" d="M160.89 253.938C159.941 253.508 159.06 253.024 158.243 252.494L166.15 220.155C166.967 220.533 167.913 220.957 168.858 221.349L160.89 253.938ZM163.339 219.383L155.72 250.543C153.777 248.763 152.309 246.68 151.203 244.475L156.673 222.108C158.582 221.441 160.936 220.36 162.39 219.665C162.693 219.52 163.013 219.426 163.339 219.383Z" fill="white"/>
<path d="M148.103 226.086C148.195 224.747 149.25 223.724 150.575 223.51C152.193 223.249 154.375 222.84 156.04 222.318C158.035 221.692 160.77 220.439 162.39 219.665C163.249 219.254 164.251 219.254 165.11 219.665C166.73 220.439 169.465 221.692 171.46 222.318C173.125 222.84 175.307 223.249 176.925 223.51C178.25 223.724 179.305 224.747 179.397 226.086C179.825 232.311 179.599 249.635 164.611 254.726C164.06 254.913 163.44 254.913 162.889 254.726C147.901 249.635 147.675 232.311 148.103 226.086Z" stroke="#7D7D7D" stroke-width="2"/>
<path d="M153.041 290.272H151.081C151.081 289.945 151.028 289.656 150.921 289.403C150.815 289.148 150.666 288.931 150.474 288.754C150.282 288.576 150.055 288.443 149.792 288.354C149.529 288.262 149.238 288.216 148.918 288.216C148.308 288.216 147.739 288.37 147.214 288.679C146.688 288.988 146.243 289.437 145.877 290.027C145.511 290.613 145.257 291.325 145.115 292.163C144.984 292.979 144.996 293.663 145.152 294.213C145.312 294.764 145.589 295.179 145.983 295.46C146.378 295.737 146.857 295.875 147.422 295.875C147.766 295.875 148.096 295.833 148.412 295.748C148.728 295.659 149.02 295.529 149.286 295.359C149.556 295.185 149.792 294.973 149.994 294.725C150.2 294.476 150.36 294.194 150.474 293.878H152.461C152.297 294.396 152.058 294.885 151.742 295.343C151.426 295.797 151.046 296.199 150.602 296.547C150.158 296.891 149.661 297.161 149.11 297.356C148.56 297.551 147.967 297.649 147.331 297.649C146.355 297.649 145.518 297.422 144.822 296.967C144.13 296.509 143.633 295.854 143.331 295.002C143.029 294.146 142.976 293.121 143.171 291.928C143.366 290.767 143.743 289.778 144.3 288.961C144.861 288.145 145.545 287.521 146.351 287.092C147.161 286.658 148.032 286.442 148.966 286.442C149.584 286.442 150.145 286.527 150.65 286.697C151.157 286.868 151.592 287.118 151.955 287.449C152.317 287.775 152.592 288.176 152.78 288.652C152.972 289.125 153.059 289.664 153.041 290.272ZM155.959 297.5L154.691 286.591H156.817L157.456 294.608H157.557L160.982 286.591H162.916L163.693 294.613H163.789L167.081 286.591H169.207L164.317 297.5H162.367L161.462 289.846H161.376L157.909 297.5H155.959ZM174.219 291.252L173.958 292.839H169.052L169.313 291.252H174.219ZM179.086 286.591L177.275 297.5H175.299L177.11 286.591H179.086ZM189.941 290.272H187.981C187.981 289.945 187.927 289.656 187.821 289.403C187.714 289.148 187.565 288.931 187.373 288.754C187.182 288.576 186.954 288.443 186.691 288.354C186.429 288.262 186.137 288.216 185.818 288.216C185.207 288.216 184.639 288.37 184.113 288.679C183.588 288.988 183.142 289.437 182.776 290.027C182.411 290.613 182.157 291.325 182.015 292.163C181.883 292.979 181.896 293.663 182.052 294.213C182.212 294.764 182.489 295.179 182.883 295.46C183.277 295.737 183.756 295.875 184.321 295.875C184.666 295.875 184.996 295.833 185.312 295.748C185.628 295.659 185.919 295.529 186.185 295.359C186.455 295.185 186.691 294.973 186.894 294.725C187.1 294.476 187.26 294.194 187.373 293.878H189.36C189.197 294.396 188.957 294.885 188.641 295.343C188.325 295.797 187.945 296.199 187.501 296.547C187.057 296.891 186.56 297.161 186.01 297.356C185.459 297.551 184.866 297.649 184.231 297.649C183.254 297.649 182.418 297.422 181.722 296.967C181.029 296.509 180.532 295.854 180.23 295.002C179.928 294.146 179.875 293.121 180.07 291.928C180.266 290.767 180.642 289.778 181.2 288.961C181.761 288.145 182.444 287.521 183.25 287.092C184.06 286.658 184.932 286.442 185.866 286.442C186.484 286.442 187.045 286.527 187.549 286.697C188.057 286.868 188.492 287.118 188.854 287.449C189.216 287.775 189.492 288.176 189.68 288.652C189.871 289.125 189.958 289.664 189.941 290.272ZM191.832 297.5H189.722L195.374 286.591H197.814L199.848 297.5H197.739L196.274 288.828H196.189L191.832 297.5ZM192.609 293.223H198.362L198.096 294.81H192.343L192.609 293.223ZM207.193 291.252L206.932 292.839H202.026L202.287 291.252H207.193ZM135.353 308.272H133.393C133.393 307.945 133.34 307.656 133.233 307.403C133.127 307.148 132.978 306.931 132.786 306.754C132.594 306.576 132.367 306.443 132.104 306.354C131.841 306.262 131.55 306.216 131.23 306.216C130.62 306.216 130.051 306.37 129.526 306.679C129 306.988 128.555 307.437 128.189 308.027C127.823 308.613 127.569 309.325 127.427 310.163C127.296 310.979 127.308 311.663 127.464 312.213C127.624 312.764 127.901 313.179 128.295 313.46C128.69 313.737 129.169 313.875 129.734 313.875C130.078 313.875 130.408 313.833 130.724 313.748C131.04 313.659 131.332 313.529 131.598 313.359C131.868 313.185 132.104 312.973 132.306 312.725C132.512 312.476 132.672 312.194 132.786 311.878H134.773C134.609 312.396 134.37 312.885 134.054 313.343C133.738 313.797 133.358 314.199 132.914 314.547C132.47 314.891 131.973 315.161 131.422 315.356C130.872 315.551 130.279 315.649 129.643 315.649C128.667 315.649 127.83 315.422 127.134 314.967C126.442 314.509 125.945 313.854 125.643 313.002C125.341 312.146 125.288 311.121 125.483 309.928C125.678 308.767 126.055 307.778 126.612 306.961C127.173 306.145 127.857 305.521 128.663 305.092C129.473 304.658 130.344 304.442 131.278 304.442C131.896 304.442 132.457 304.527 132.962 304.697C133.469 304.868 133.904 305.118 134.267 305.449C134.629 305.775 134.904 306.176 135.092 306.652C135.284 307.125 135.371 307.664 135.353 308.272ZM146.607 310.173C146.416 311.331 146.037 312.318 145.473 313.135C144.912 313.948 144.226 314.571 143.417 315.005C142.611 315.434 141.742 315.649 140.812 315.649C139.835 315.649 138.997 315.422 138.298 314.967C137.598 314.509 137.094 313.854 136.785 313.002C136.479 312.15 136.426 311.127 136.625 309.934C136.817 308.779 137.193 307.792 137.754 306.972C138.315 306.152 139.003 305.525 139.816 305.092C140.629 304.658 141.506 304.442 142.447 304.442C143.417 304.442 144.248 304.671 144.94 305.129C145.636 305.583 146.137 306.239 146.442 307.094C146.751 307.95 146.806 308.977 146.607 310.173ZM144.663 309.934C144.794 309.127 144.782 308.447 144.626 307.893C144.473 307.339 144.201 306.922 143.811 306.642C143.42 306.358 142.939 306.216 142.367 306.216C141.749 306.216 141.178 306.37 140.652 306.679C140.13 306.984 139.686 307.432 139.32 308.021C138.958 308.611 138.71 309.328 138.575 310.173C138.433 310.983 138.441 311.663 138.601 312.213C138.761 312.764 139.038 313.179 139.432 313.46C139.826 313.737 140.308 313.875 140.876 313.875C141.49 313.875 142.058 313.723 142.58 313.417C143.102 313.112 143.544 312.666 143.907 312.08C144.272 311.494 144.525 310.779 144.663 309.934ZM158.367 304.591L156.556 315.5H154.798L150.894 308.069H150.809L149.568 315.5H147.591L149.403 304.591H151.171L155.07 312.027H155.171L156.402 304.591H158.367ZM159.764 306.248L160.041 304.591H168.745L168.468 306.248H165.096L163.562 315.5H161.602L163.136 306.248H159.764ZM168.612 315.5L170.423 304.591H174.514C175.352 304.591 176.032 304.737 176.554 305.028C177.076 305.319 177.44 305.727 177.646 306.253C177.852 306.775 177.896 307.384 177.779 308.08C177.666 308.776 177.417 309.381 177.033 309.896C176.653 310.408 176.151 310.804 175.526 311.084C174.905 311.365 174.175 311.505 173.337 311.505H170.423L170.7 309.864H173.353C173.843 309.864 174.255 309.797 174.589 309.662C174.922 309.523 175.185 309.323 175.377 309.06C175.572 308.794 175.702 308.467 175.766 308.08C175.826 307.693 175.803 307.363 175.696 307.089C175.593 306.812 175.396 306.603 175.105 306.461C174.818 306.315 174.429 306.242 173.939 306.242H172.128L170.588 315.5H168.612ZM175.068 310.557L176.948 315.5H174.743L172.911 310.557H175.068ZM189.059 310.173C188.867 311.331 188.489 312.318 187.924 313.135C187.363 313.948 186.677 314.571 185.868 315.005C185.062 315.434 184.193 315.649 183.263 315.649C182.286 315.649 181.448 315.422 180.749 314.967C180.049 314.509 179.545 313.854 179.236 313.002C178.931 312.15 178.877 311.127 179.076 309.934C179.268 308.779 179.644 307.792 180.206 306.972C180.767 306.152 181.454 305.525 182.267 305.092C183.08 304.658 183.957 304.442 184.898 304.442C185.868 304.442 186.699 304.671 187.391 305.129C188.087 305.583 188.588 306.239 188.893 307.094C189.202 307.95 189.257 308.977 189.059 310.173ZM187.114 309.934C187.246 309.127 187.233 308.447 187.077 307.893C186.924 307.339 186.653 306.922 186.262 306.642C185.871 306.358 185.39 306.216 184.818 306.216C184.201 306.216 183.629 306.37 183.103 306.679C182.581 306.984 182.137 307.432 181.772 308.021C181.409 308.611 181.161 309.328 181.026 310.173C180.884 310.983 180.893 311.663 181.052 312.213C181.212 312.764 181.489 313.179 181.883 313.46C182.278 313.737 182.759 313.875 183.327 313.875C183.941 313.875 184.509 313.723 185.032 313.417C185.554 313.112 185.996 312.666 186.358 312.08C186.724 311.494 186.976 310.779 187.114 309.934ZM190.043 315.5L191.854 304.591H193.83L192.296 313.843H197.1L196.824 315.5H190.043ZM198.539 315.5L200.35 304.591H202.326L200.792 313.843H205.597L205.32 315.5H198.539ZM207.035 315.5L208.846 304.591H215.941L215.664 306.248H210.545L210.055 309.209H214.806L214.529 310.866H209.778L209.288 313.843H214.45L214.173 315.5H207.035ZM216.146 315.5L217.957 304.591H222.048C222.886 304.591 223.566 304.737 224.088 305.028C224.61 305.319 224.974 305.727 225.18 306.253C225.386 306.775 225.431 307.384 225.313 308.08C225.2 308.776 224.951 309.381 224.568 309.896C224.188 310.408 223.685 310.804 223.06 311.084C222.439 311.365 221.709 311.505 220.871 311.505H217.957L218.234 309.864H220.887C221.377 309.864 221.789 309.797 222.123 309.662C222.456 309.523 222.719 309.323 222.911 309.06C223.106 308.794 223.236 308.467 223.3 308.08C223.36 307.693 223.337 307.363 223.231 307.089C223.128 306.812 222.931 306.603 222.639 306.461C222.352 306.315 221.963 306.242 221.473 306.242H219.662L218.122 315.5H216.146ZM222.602 310.557L224.482 315.5H222.277L220.445 310.557H222.602Z" fill="white"/>
<rect x="81.6143" y="142.579" width="191.886" height="227.921" stroke="#03628A" stroke-width="7" stroke-dasharray="14 14"/>
<path d="M78.1989 113.909L80.0398 118.741L83.5256 113.909H86.7898L81.7528 120.455L84.6761 127H81.429L79.4432 122.287L75.9148 127H72.642L77.7216 120.455L74.9261 113.909H78.1989ZM97.1534 108.727L88.0852 129.625H85.3835L94.4517 108.727H97.1534ZM98.7898 127L97.2727 113.909H100.418L101.185 123.114H101.304L105.19 113.909H108.301L109.119 123.062H109.247L113.048 113.909H116.202L110.312 127H107.099L106.111 118.153H105.932L102.011 127H98.7898ZM119.907 127.264C119.077 127.264 118.356 127.116 117.742 126.821C117.129 126.52 116.677 126.077 116.387 125.491C116.103 124.906 116.032 124.185 116.174 123.327C116.299 122.588 116.538 121.977 116.89 121.494C117.248 121.011 117.685 120.625 118.202 120.335C118.725 120.04 119.293 119.818 119.907 119.67C120.526 119.523 121.157 119.415 121.799 119.347C122.583 119.267 123.217 119.193 123.7 119.125C124.188 119.057 124.555 118.955 124.799 118.818C125.043 118.676 125.191 118.46 125.242 118.17V118.119C125.344 117.477 125.242 116.98 124.935 116.628C124.629 116.276 124.117 116.099 123.401 116.099C122.651 116.099 122.021 116.264 121.509 116.594C120.998 116.923 120.626 117.312 120.393 117.761L117.597 117.352C117.95 116.557 118.433 115.892 119.046 115.358C119.66 114.818 120.367 114.415 121.168 114.148C121.975 113.875 122.836 113.739 123.751 113.739C124.376 113.739 124.987 113.812 125.583 113.96C126.185 114.108 126.717 114.352 127.177 114.693C127.643 115.028 127.984 115.486 128.2 116.065C128.421 116.645 128.458 117.369 128.31 118.239L126.853 127H123.887L124.194 125.202H124.092C123.847 125.565 123.529 125.906 123.137 126.224C122.745 126.537 122.279 126.79 121.739 126.983C121.2 127.17 120.589 127.264 119.907 127.264ZM121.075 124.997C121.694 124.997 122.251 124.875 122.745 124.631C123.239 124.381 123.646 124.051 123.964 123.642C124.282 123.233 124.481 122.787 124.56 122.304L124.816 120.761C124.702 120.841 124.526 120.915 124.288 120.983C124.049 121.051 123.782 121.111 123.487 121.162C123.197 121.213 122.91 121.259 122.626 121.298C122.342 121.338 122.097 121.372 121.893 121.401C121.421 121.463 120.989 121.565 120.597 121.707C120.211 121.849 119.89 122.048 119.634 122.304C119.384 122.554 119.228 122.878 119.165 123.276C119.075 123.838 119.208 124.267 119.566 124.562C119.924 124.852 120.427 124.997 121.075 124.997ZM141.896 117.369L139.058 117.676C139.029 117.386 138.941 117.116 138.793 116.866C138.646 116.616 138.424 116.418 138.129 116.27C137.839 116.116 137.464 116.04 137.004 116.04C136.333 116.04 135.745 116.19 135.239 116.491C134.734 116.793 134.447 117.179 134.379 117.651C134.316 118.003 134.401 118.29 134.634 118.511C134.867 118.733 135.299 118.92 135.93 119.074L138.094 119.551C139.288 119.818 140.146 120.25 140.668 120.847C141.197 121.443 141.381 122.224 141.222 123.19C141.086 123.997 140.734 124.707 140.165 125.321C139.597 125.929 138.87 126.403 137.984 126.744C137.103 127.085 136.126 127.256 135.052 127.256C133.421 127.256 132.165 126.918 131.285 126.241C130.41 125.56 129.975 124.622 129.981 123.429L133.015 123.139C133.049 123.73 133.256 124.176 133.637 124.477C134.018 124.773 134.546 124.923 135.222 124.929C135.984 124.935 136.626 124.776 137.148 124.452C137.677 124.122 137.975 123.722 138.043 123.25C138.1 122.898 138.012 122.611 137.779 122.389C137.552 122.168 137.146 121.991 136.56 121.861L134.413 121.392C133.197 121.125 132.33 120.673 131.813 120.037C131.302 119.395 131.129 118.585 131.293 117.608C131.43 116.812 131.762 116.128 132.29 115.554C132.825 114.974 133.509 114.528 134.344 114.216C135.18 113.898 136.114 113.739 137.148 113.739C138.705 113.739 139.879 114.065 140.668 114.719C141.458 115.372 141.867 116.256 141.896 117.369ZM143.136 127L145.317 113.909H148.275L147.9 116.134H148.062C148.46 115.384 149.008 114.798 149.707 114.378C150.406 113.952 151.192 113.739 152.067 113.739C152.948 113.739 153.658 113.955 154.198 114.386C154.744 114.812 155.079 115.395 155.204 116.134H155.34C155.749 115.401 156.335 114.818 157.096 114.386C157.863 113.955 158.724 113.739 159.678 113.739C160.871 113.739 161.786 114.119 162.423 114.881C163.059 115.642 163.255 116.753 163.011 118.213L161.545 127H158.46L159.857 118.69C159.982 117.878 159.857 117.284 159.482 116.909C159.113 116.528 158.616 116.338 157.991 116.338C157.246 116.338 156.627 116.568 156.133 117.028C155.644 117.489 155.343 118.091 155.229 118.835L153.857 127H150.832L152.246 118.562C152.349 117.886 152.229 117.347 151.888 116.943C151.553 116.54 151.059 116.338 150.406 116.338C149.962 116.338 149.539 116.452 149.136 116.679C148.732 116.906 148.388 117.224 148.104 117.634C147.826 118.037 147.644 118.506 147.559 119.04L146.229 127H143.136Z" fill="#03628A"/>
<rect x="3.5" y="44.5" width="343" height="393" stroke="#008069" stroke-width="7" stroke-dasharray="14 14"/>
<path d="M23.2955 15.5795H19.1136C19.1136 14.8826 19 14.2652 18.7727 13.7273C18.5455 13.1818 18.2273 12.7197 17.8182 12.3409C17.4091 11.9621 16.9242 11.678 16.3636 11.4886C15.803 11.2917 15.1818 11.1932 14.5 11.1932C13.197 11.1932 11.9848 11.5227 10.8636 12.1818C9.74242 12.8409 8.79167 13.7992 8.01136 15.0568C7.23106 16.3068 6.68939 17.8258 6.38636 19.6136C6.10606 21.3561 6.13258 22.8144 6.46591 23.9886C6.80682 25.1629 7.39773 26.0492 8.23864 26.6477C9.07955 27.2386 10.1023 27.5341 11.3068 27.5341C12.0417 27.5341 12.7462 27.4432 13.4205 27.2614C14.0947 27.072 14.7159 26.7955 15.2841 26.4318C15.8598 26.0606 16.3636 25.6098 16.7955 25.0795C17.2348 24.5492 17.5758 23.947 17.8182 23.2727H22.0568C21.7083 24.3788 21.197 25.4205 20.5227 26.3977C19.8485 27.3674 19.0379 28.2235 18.0909 28.9659C17.1439 29.7008 16.0833 30.2765 14.9091 30.6932C13.7348 31.1098 12.4697 31.3182 11.1136 31.3182C9.0303 31.3182 7.24621 30.8333 5.76136 29.8636C4.28409 28.8864 3.22348 27.4886 2.57955 25.6705C1.93561 23.8447 1.82197 21.6591 2.23864 19.1136C2.6553 16.6364 3.45833 14.5265 4.64773 12.7841C5.8447 11.0417 7.30303 9.71212 9.02273 8.79545C10.75 7.87121 12.6098 7.40909 14.6023 7.40909C15.9205 7.40909 17.1174 7.59091 18.1932 7.95454C19.2765 8.31818 20.2045 8.85227 20.9773 9.55682C21.75 10.2538 22.3371 11.1098 22.7386 12.125C23.1477 13.1326 23.3333 14.2841 23.2955 15.5795ZM32.0994 31.3409C30.3797 31.3409 28.9479 30.9621 27.804 30.2045C26.6676 29.447 25.8684 28.3826 25.4062 27.0114C24.9441 25.6402 24.8608 24.0492 25.1562 22.2386C25.4517 20.4508 26.0426 18.8864 26.929 17.5455C27.8229 16.2045 28.9479 15.1667 30.304 14.4318C31.6676 13.6894 33.1941 13.3182 34.8835 13.3182C36.6032 13.3182 38.0313 13.7008 39.1676 14.4659C40.304 15.2235 41.1032 16.2879 41.5653 17.6591C42.035 19.0303 42.1222 20.6288 41.8267 22.4545C41.5388 24.2348 40.9441 25.7917 40.0426 27.125C39.1487 28.4583 38.0237 29.4962 36.6676 30.2386C35.3116 30.9735 33.7888 31.3409 32.0994 31.3409ZM32.4403 28.0455C33.3949 28.0455 34.232 27.7879 34.9517 27.2727C35.679 26.75 36.2737 26.0492 36.7358 25.1705C37.2055 24.2841 37.5313 23.2992 37.7131 22.2159C37.8797 21.1705 37.8835 20.2235 37.7244 19.375C37.5653 18.5189 37.2244 17.8409 36.7017 17.3409C36.1866 16.8333 35.4706 16.5795 34.554 16.5795C33.5994 16.5795 32.7547 16.8447 32.0199 17.375C31.2926 17.8977 30.6979 18.6023 30.2358 19.4886C29.7737 20.3674 29.4555 21.3485 29.2812 22.4318C29.107 23.4773 29.0994 24.4242 29.2585 25.2727C29.4176 26.1212 29.7585 26.7955 30.2812 27.2955C30.804 27.7955 31.5237 28.0455 32.4403 28.0455ZM59.8295 18.1591L56.0455 18.5682C56.0076 18.1818 55.8902 17.822 55.6932 17.4886C55.4962 17.1553 55.2008 16.8902 54.8068 16.6932C54.4205 16.4886 53.9205 16.3864 53.3068 16.3864C52.4129 16.3864 51.6288 16.5871 50.9545 16.9886C50.2803 17.3902 49.8977 17.9053 49.8068 18.5341C49.7235 19.0038 49.8371 19.3864 50.1477 19.6818C50.4583 19.9773 51.0341 20.2273 51.875 20.4318L54.7614 21.0682C56.3523 21.4242 57.4962 22 58.1932 22.7955C58.8977 23.5909 59.1439 24.6326 58.9318 25.9205C58.75 26.9962 58.2803 27.9432 57.5227 28.7614C56.7652 29.572 55.7955 30.2045 54.6136 30.6591C53.4394 31.1136 52.1364 31.3409 50.7045 31.3409C48.5303 31.3409 46.8561 30.8902 45.6818 29.9886C44.5152 29.0795 43.9356 27.8295 43.9432 26.2386L47.9886 25.8523C48.0341 26.6402 48.3106 27.2348 48.8182 27.6364C49.3258 28.0303 50.0303 28.2311 50.9318 28.2386C51.947 28.2462 52.803 28.0341 53.5 27.6023C54.2045 27.1629 54.6023 26.6288 54.6932 26C54.7689 25.5303 54.6515 25.1477 54.3409 24.8523C54.0379 24.5568 53.4962 24.322 52.7159 24.1477L49.8523 23.5227C48.2311 23.1667 47.0758 22.5644 46.3864 21.7159C45.7045 20.8598 45.4735 19.7803 45.6932 18.4773C45.875 17.4167 46.3182 16.5038 47.0227 15.7386C47.7348 14.9659 48.6477 14.3712 49.7614 13.9545C50.875 13.5303 52.1212 13.3182 53.5 13.3182C55.5758 13.3182 57.1402 13.7538 58.1932 14.625C59.2462 15.4962 59.7917 16.6742 59.8295 18.1591ZM61.483 31L64.392 13.5455H68.3352L67.8352 16.5114H68.0511C68.5814 15.5114 69.3125 14.7311 70.2443 14.1705C71.1761 13.6023 72.2254 13.3182 73.392 13.3182C74.5663 13.3182 75.5133 13.6061 76.233 14.1818C76.9602 14.75 77.4072 15.5265 77.5739 16.5114H77.7557C78.3011 15.5341 79.0814 14.7576 80.0966 14.1818C81.1193 13.6061 82.267 13.3182 83.5398 13.3182C85.1307 13.3182 86.3504 13.8258 87.1989 14.8409C88.0473 15.8561 88.3087 17.3371 87.983 19.2841L86.0284 31H81.9148L83.7784 19.9205C83.9451 18.8371 83.7784 18.0455 83.2784 17.5455C82.786 17.0379 82.1231 16.7841 81.2898 16.7841C80.2973 16.7841 79.4716 17.0909 78.8125 17.7045C78.161 18.3182 77.7595 19.1212 77.608 20.1136L75.7784 31H71.7443L73.6307 19.75C73.767 18.8485 73.608 18.1288 73.1534 17.5909C72.7064 17.053 72.0473 16.7841 71.1761 16.7841C70.5852 16.7841 70.0208 16.9356 69.483 17.2386C68.9451 17.5417 68.4867 17.9659 68.108 18.5114C67.7367 19.0492 67.4943 19.6742 67.3807 20.3864L65.608 31H61.483ZM93.6449 31L90.9403 7.72727H95.4744L96.8381 24.8295H97.054L104.361 7.72727H108.486L110.145 24.8409H110.349L117.372 7.72727H121.906L111.474 31H107.315L105.384 14.6705H105.202L97.804 31H93.6449ZM123.98 31.3523C122.874 31.3523 121.912 31.1553 121.094 30.7614C120.276 30.3598 119.673 29.7689 119.287 28.9886C118.908 28.2083 118.813 27.2462 119.003 26.1023C119.17 25.1174 119.488 24.303 119.957 23.6591C120.435 23.0152 121.018 22.5 121.707 22.1136C122.404 21.7197 123.162 21.4242 123.98 21.2273C124.806 21.0303 125.647 20.8864 126.503 20.7955C127.548 20.6894 128.393 20.5909 129.037 20.5C129.688 20.4091 130.177 20.2727 130.503 20.0909C130.829 19.9015 131.026 19.6136 131.094 19.2273V19.1591C131.23 18.303 131.094 17.6402 130.685 17.1705C130.276 16.7008 129.594 16.4659 128.639 16.4659C127.639 16.4659 126.798 16.6856 126.116 17.125C125.435 17.5644 124.938 18.0833 124.628 18.6818L120.901 18.1364C121.37 17.0758 122.014 16.1894 122.832 15.4773C123.651 14.7576 124.594 14.2197 125.662 13.8636C126.738 13.5 127.885 13.3182 129.105 13.3182C129.938 13.3182 130.753 13.4167 131.548 13.6136C132.351 13.8106 133.06 14.1364 133.673 14.5909C134.295 15.0379 134.749 15.6477 135.037 16.4205C135.332 17.1932 135.382 18.1591 135.185 19.3182L133.241 31H129.287L129.696 28.6023H129.56C129.234 29.0871 128.81 29.5417 128.287 29.9659C127.764 30.3826 127.143 30.7197 126.423 30.9773C125.704 31.2273 124.889 31.3523 123.98 31.3523ZM125.537 28.3295C126.363 28.3295 127.105 28.1667 127.764 27.8409C128.423 27.5076 128.965 27.0682 129.389 26.5227C129.813 25.9773 130.079 25.3826 130.185 24.7386L130.526 22.6818C130.374 22.7879 130.139 22.8864 129.821 22.9773C129.503 23.0682 129.147 23.1477 128.753 23.2159C128.366 23.2841 127.984 23.3447 127.605 23.3977C127.226 23.4508 126.901 23.4962 126.628 23.5341C125.999 23.6174 125.423 23.7538 124.901 23.9432C124.385 24.1326 123.957 24.3977 123.616 24.7386C123.283 25.072 123.075 25.5038 122.991 26.0341C122.87 26.7841 123.048 27.3561 123.526 27.75C124.003 28.1364 124.673 28.3295 125.537 28.3295ZM153.298 18.1591L149.514 18.5682C149.476 18.1818 149.359 17.822 149.162 17.4886C148.965 17.1553 148.67 16.8902 148.276 16.6932C147.889 16.4886 147.389 16.3864 146.776 16.3864C145.882 16.3864 145.098 16.5871 144.423 16.9886C143.749 17.3902 143.366 17.9053 143.276 18.5341C143.192 19.0038 143.306 19.3864 143.616 19.6818C143.927 19.9773 144.503 20.2273 145.344 20.4318L148.23 21.0682C149.821 21.4242 150.965 22 151.662 22.7955C152.366 23.5909 152.613 24.6326 152.401 25.9205C152.219 26.9962 151.749 27.9432 150.991 28.7614C150.234 29.572 149.264 30.2045 148.082 30.6591C146.908 31.1136 145.605 31.3409 144.173 31.3409C141.999 31.3409 140.325 30.8902 139.151 29.9886C137.984 29.0795 137.404 27.8295 137.412 26.2386L141.457 25.8523C141.503 26.6402 141.779 27.2348 142.287 27.6364C142.795 28.0303 143.499 28.2311 144.401 28.2386C145.416 28.2462 146.272 28.0341 146.969 27.6023C147.673 27.1629 148.071 26.6288 148.162 26C148.238 25.5303 148.12 25.1477 147.81 24.8523C147.507 24.5568 146.965 24.322 146.185 24.1477L143.321 23.5227C141.7 23.1667 140.545 22.5644 139.855 21.7159C139.173 20.8598 138.942 19.7803 139.162 18.4773C139.344 17.4167 139.787 16.5038 140.491 15.7386C141.204 14.9659 142.116 14.3712 143.23 13.9545C144.344 13.5303 145.59 13.3182 146.969 13.3182C149.045 13.3182 150.609 13.7538 151.662 14.625C152.715 15.4962 153.26 16.6742 153.298 18.1591ZM154.952 31L157.861 13.5455H161.804L161.304 16.5114H161.52C162.05 15.5114 162.781 14.7311 163.713 14.1705C164.645 13.6023 165.694 13.3182 166.861 13.3182C168.035 13.3182 168.982 13.6061 169.702 14.1818C170.429 14.75 170.876 15.5265 171.043 16.5114H171.224C171.77 15.5341 172.55 14.7576 173.565 14.1818C174.588 13.6061 175.736 13.3182 177.009 13.3182C178.599 13.3182 179.819 13.8258 180.668 14.8409C181.516 15.8561 181.777 17.3371 181.452 19.2841L179.497 31H175.384L177.247 19.9205C177.414 18.8371 177.247 18.0455 176.747 17.5455C176.255 17.0379 175.592 16.7841 174.759 16.7841C173.766 16.7841 172.94 17.0909 172.281 17.7045C171.63 18.3182 171.228 19.1212 171.077 20.1136L169.247 31H165.213L167.099 19.75C167.236 18.8485 167.077 18.1288 166.622 17.5909C166.175 17.053 165.516 16.7841 164.645 16.7841C164.054 16.7841 163.49 16.9356 162.952 17.2386C162.414 17.5417 161.955 17.9659 161.577 18.5114C161.205 19.0492 160.963 19.6742 160.849 20.3864L159.077 31H154.952ZM214.233 15.5795H210.051C210.051 14.8826 209.938 14.2652 209.71 13.7273C209.483 13.1818 209.165 12.7197 208.756 12.3409C208.347 11.9621 207.862 11.678 207.301 11.4886C206.741 11.2917 206.119 11.1932 205.438 11.1932C204.134 11.1932 202.922 11.5227 201.801 12.1818C200.68 12.8409 199.729 13.7992 198.949 15.0568C198.169 16.3068 197.627 17.8258 197.324 19.6136C197.044 21.3561 197.07 22.8144 197.403 23.9886C197.744 25.1629 198.335 26.0492 199.176 26.6477C200.017 27.2386 201.04 27.5341 202.244 27.5341C202.979 27.5341 203.684 27.4432 204.358 27.2614C205.032 27.072 205.653 26.7955 206.222 26.4318C206.797 26.0606 207.301 25.6098 207.733 25.0795C208.172 24.5492 208.513 23.947 208.756 23.2727H212.994C212.646 24.3788 212.134 25.4205 211.46 26.3977C210.786 27.3674 209.975 28.2235 209.028 28.9659C208.081 29.7008 207.021 30.2765 205.847 30.6932C204.672 31.1098 203.407 31.3182 202.051 31.3182C199.968 31.3182 198.184 30.8333 196.699 29.8636C195.222 28.8864 194.161 27.4886 193.517 25.6705C192.873 23.8447 192.759 21.6591 193.176 19.1136C193.593 16.6364 194.396 14.5265 195.585 12.7841C196.782 11.0417 198.241 9.71212 199.96 8.79545C201.688 7.87121 203.547 7.40909 205.54 7.40909C206.858 7.40909 208.055 7.59091 209.131 7.95454C210.214 8.31818 211.142 8.85227 211.915 9.55682C212.688 10.2538 213.275 11.1098 213.676 12.125C214.085 13.1326 214.271 14.2841 214.233 15.5795ZM221.196 20.7727L219.514 31H215.389L219.253 7.72727H223.287L221.832 16.5114H222.048C222.601 15.5189 223.355 14.7386 224.31 14.1705C225.272 13.6023 226.427 13.3182 227.776 13.3182C228.973 13.3182 229.98 13.572 230.798 14.0795C231.616 14.5871 232.192 15.3295 232.526 16.3068C232.866 17.2841 232.923 18.4773 232.696 19.8864L230.832 31H226.707L228.457 20.5227C228.647 19.3485 228.491 18.4356 227.991 17.7841C227.499 17.125 226.719 16.7955 225.651 16.7955C224.916 16.7955 224.238 16.9545 223.616 17.2727C222.995 17.5833 222.473 18.0341 222.048 18.625C221.632 19.2159 221.348 19.9318 221.196 20.7727ZM239.98 31.3523C238.874 31.3523 237.912 31.1553 237.094 30.7614C236.276 30.3598 235.673 29.7689 235.287 28.9886C234.908 28.2083 234.813 27.2462 235.003 26.1023C235.17 25.1174 235.488 24.303 235.957 23.6591C236.435 23.0152 237.018 22.5 237.707 22.1136C238.404 21.7197 239.162 21.4242 239.98 21.2273C240.806 21.0303 241.647 20.8864 242.503 20.7955C243.548 20.6894 244.393 20.5909 245.037 20.5C245.688 20.4091 246.177 20.2727 246.503 20.0909C246.829 19.9015 247.026 19.6136 247.094 19.2273V19.1591C247.23 18.303 247.094 17.6402 246.685 17.1705C246.276 16.7008 245.594 16.4659 244.639 16.4659C243.639 16.4659 242.798 16.6856 242.116 17.125C241.435 17.5644 240.938 18.0833 240.628 18.6818L236.901 18.1364C237.37 17.0758 238.014 16.1894 238.832 15.4773C239.651 14.7576 240.594 14.2197 241.662 13.8636C242.738 13.5 243.885 13.3182 245.105 13.3182C245.938 13.3182 246.753 13.4167 247.548 13.6136C248.351 13.8106 249.06 14.1364 249.673 14.5909C250.295 15.0379 250.749 15.6477 251.037 16.4205C251.332 17.1932 251.382 18.1591 251.185 19.3182L249.241 31H245.287L245.696 28.6023H245.56C245.234 29.0871 244.81 29.5417 244.287 29.9659C243.764 30.3826 243.143 30.7197 242.423 30.9773C241.704 31.2273 240.889 31.3523 239.98 31.3523ZM241.537 28.3295C242.363 28.3295 243.105 28.1667 243.764 27.8409C244.423 27.5076 244.965 27.0682 245.389 26.5227C245.813 25.9773 246.079 25.3826 246.185 24.7386L246.526 22.6818C246.374 22.7879 246.139 22.8864 245.821 22.9773C245.503 23.0682 245.147 23.1477 244.753 23.2159C244.366 23.2841 243.984 23.3447 243.605 23.3977C243.226 23.4508 242.901 23.4962 242.628 23.5341C241.999 23.6174 241.423 23.7538 240.901 23.9432C240.385 24.1326 239.957 24.3977 239.616 24.7386C239.283 25.072 239.075 25.5038 238.991 26.0341C238.87 26.7841 239.048 27.3561 239.526 27.75C240.003 28.1364 240.673 28.3295 241.537 28.3295ZM253.378 31L256.287 13.5455H260.401L257.491 31H253.378ZM258.946 11.0455C258.287 11.0455 257.741 10.8258 257.31 10.3864C256.878 9.94697 256.688 9.42045 256.741 8.80682C256.795 8.19318 257.071 7.66667 257.571 7.22727C258.079 6.78788 258.658 6.56818 259.31 6.56818C259.969 6.56818 260.51 6.78788 260.935 7.22727C261.366 7.66667 261.556 8.19318 261.503 8.80682C261.457 9.42045 261.181 9.94697 260.673 10.3864C260.173 10.8258 259.598 11.0455 258.946 11.0455ZM267.54 20.7727L265.858 31H261.733L264.642 13.5455H268.585L268.085 16.5114H268.301C268.847 15.5341 269.612 14.7576 270.597 14.1818C271.581 13.6061 272.729 13.3182 274.04 13.3182C275.229 13.3182 276.229 13.5758 277.04 14.0909C277.85 14.5985 278.426 15.3447 278.767 16.3295C279.108 17.3068 279.161 18.4924 278.926 19.8864L277.062 31H272.949L274.688 20.5227C274.884 19.3636 274.737 18.4545 274.244 17.7955C273.759 17.1288 272.979 16.7955 271.903 16.7955C271.184 16.7955 270.521 16.9545 269.915 17.2727C269.309 17.5833 268.797 18.0341 268.381 18.625C267.972 19.2159 267.691 19.9318 267.54 20.7727Z" fill="#008069"/>
<rect x="780.5" y="44.5" width="343" height="393" stroke="#D00032" stroke-width="7" stroke-dasharray="14 14"/>
<path d="M791.83 7.72727L787.966 31H784.216L775.886 15.1477H775.705L773.057 31H768.841L772.705 7.72727H776.477L784.795 23.5909H785.011L787.636 7.72727H791.83ZM800.037 31.3409C798.317 31.3409 796.885 30.9621 795.741 30.2045C794.605 29.447 793.806 28.3826 793.344 27.0114C792.882 25.6402 792.798 24.0492 793.094 22.2386C793.389 20.4508 793.98 18.8864 794.866 17.5455C795.76 16.2045 796.885 15.1667 798.241 14.4318C799.605 13.6894 801.132 13.3182 802.821 13.3182C804.541 13.3182 805.969 13.7008 807.105 14.4659C808.241 15.2235 809.041 16.2879 809.503 17.6591C809.973 19.0303 810.06 20.6288 809.764 22.4545C809.476 24.2348 808.882 25.7917 807.98 27.125C807.086 28.4583 805.961 29.4962 804.605 30.2386C803.249 30.9735 801.726 31.3409 800.037 31.3409ZM800.378 28.0455C801.332 28.0455 802.17 27.7879 802.889 27.2727C803.616 26.75 804.211 26.0492 804.673 25.1705C805.143 24.2841 805.469 23.2992 805.651 22.2159C805.817 21.1705 805.821 20.2235 805.662 19.375C805.503 18.5189 805.162 17.8409 804.639 17.3409C804.124 16.8333 803.408 16.5795 802.491 16.5795C801.537 16.5795 800.692 16.8447 799.957 17.375C799.23 17.8977 798.635 18.6023 798.173 19.4886C797.711 20.3674 797.393 21.3485 797.219 22.4318C797.045 23.4773 797.037 24.4242 797.196 25.2727C797.355 26.1212 797.696 26.7955 798.219 27.2955C798.741 27.7955 799.461 28.0455 800.378 28.0455ZM817.665 20.7727L815.983 31H811.858L814.767 13.5455H818.71L818.21 16.5114H818.426C818.972 15.5341 819.737 14.7576 820.722 14.1818C821.706 13.6061 822.854 13.3182 824.165 13.3182C825.354 13.3182 826.354 13.5758 827.165 14.0909C827.975 14.5985 828.551 15.3447 828.892 16.3295C829.233 17.3068 829.286 18.4924 829.051 19.8864L827.188 31H823.074L824.812 20.5227C825.009 19.3636 824.862 18.4545 824.369 17.7955C823.884 17.1288 823.104 16.7955 822.028 16.7955C821.309 16.7955 820.646 16.9545 820.04 17.2727C819.434 17.5833 818.922 18.0341 818.506 18.625C818.097 19.2159 817.816 19.9318 817.665 20.7727ZM843.812 19.6136L843.256 23H832.79L833.347 19.6136H843.812ZM868.889 15.5795H864.707C864.707 14.8826 864.594 14.2652 864.366 13.7273C864.139 13.1818 863.821 12.7197 863.412 12.3409C863.003 11.9621 862.518 11.678 861.957 11.4886C861.397 11.2917 860.776 11.1932 860.094 11.1932C858.791 11.1932 857.579 11.5227 856.457 12.1818C855.336 12.8409 854.385 13.7992 853.605 15.0568C852.825 16.3068 852.283 17.8258 851.98 19.6136C851.7 21.3561 851.726 22.8144 852.06 23.9886C852.401 25.1629 852.991 26.0492 853.832 26.6477C854.673 27.2386 855.696 27.5341 856.901 27.5341C857.635 27.5341 858.34 27.4432 859.014 27.2614C859.688 27.072 860.31 26.7955 860.878 26.4318C861.454 26.0606 861.957 25.6098 862.389 25.0795C862.829 24.5492 863.17 23.947 863.412 23.2727H867.651C867.302 24.3788 866.791 25.4205 866.116 26.3977C865.442 27.3674 864.632 28.2235 863.685 28.9659C862.738 29.7008 861.677 30.2765 860.503 30.6932C859.329 31.1098 858.063 31.3182 856.707 31.3182C854.624 31.3182 852.84 30.8333 851.355 29.8636C849.878 28.8864 848.817 27.4886 848.173 25.6705C847.529 23.8447 847.416 21.6591 847.832 19.1136C848.249 16.6364 849.052 14.5265 850.241 12.7841C851.438 11.0417 852.897 9.71212 854.616 8.79545C856.344 7.87121 858.204 7.40909 860.196 7.40909C861.514 7.40909 862.711 7.59091 863.787 7.95454C864.87 8.31818 865.798 8.85227 866.571 9.55682C867.344 10.2538 867.931 11.1098 868.332 12.125C868.741 13.1326 868.927 14.2841 868.889 15.5795ZM877.693 31.3409C875.973 31.3409 874.542 30.9621 873.398 30.2045C872.261 29.447 871.462 28.3826 871 27.0114C870.538 25.6402 870.455 24.0492 870.75 22.2386C871.045 20.4508 871.636 18.8864 872.523 17.5455C873.417 16.2045 874.542 15.1667 875.898 14.4318C877.261 13.6894 878.788 13.3182 880.477 13.3182C882.197 13.3182 883.625 13.7008 884.761 14.4659C885.898 15.2235 886.697 16.2879 887.159 17.6591C887.629 19.0303 887.716 20.6288 887.42 22.4545C887.133 24.2348 886.538 25.7917 885.636 27.125C884.742 28.4583 883.617 29.4962 882.261 30.2386C880.905 30.9735 879.383 31.3409 877.693 31.3409ZM878.034 28.0455C878.989 28.0455 879.826 27.7879 880.545 27.2727C881.273 26.75 881.867 26.0492 882.33 25.1705C882.799 24.2841 883.125 23.2992 883.307 22.2159C883.473 21.1705 883.477 20.2235 883.318 19.375C883.159 18.5189 882.818 17.8409 882.295 17.3409C881.78 16.8333 881.064 16.5795 880.148 16.5795C879.193 16.5795 878.348 16.8447 877.614 17.375C876.886 17.8977 876.292 18.6023 875.83 19.4886C875.367 20.3674 875.049 21.3485 874.875 22.4318C874.701 23.4773 874.693 24.4242 874.852 25.2727C875.011 26.1212 875.352 26.7955 875.875 27.2955C876.398 27.7955 877.117 28.0455 878.034 28.0455ZM905.423 18.1591L901.639 18.5682C901.601 18.1818 901.484 17.822 901.287 17.4886C901.09 17.1553 900.795 16.8902 900.401 16.6932C900.014 16.4886 899.514 16.3864 898.901 16.3864C898.007 16.3864 897.223 16.5871 896.548 16.9886C895.874 17.3902 895.491 17.9053 895.401 18.5341C895.317 19.0038 895.431 19.3864 895.741 19.6818C896.052 19.9773 896.628 20.2273 897.469 20.4318L900.355 21.0682C901.946 21.4242 903.09 22 903.787 22.7955C904.491 23.5909 904.738 24.6326 904.526 25.9205C904.344 26.9962 903.874 27.9432 903.116 28.7614C902.359 29.572 901.389 30.2045 900.207 30.6591C899.033 31.1136 897.73 31.3409 896.298 31.3409C894.124 31.3409 892.45 30.8902 891.276 29.9886C890.109 29.0795 889.529 27.8295 889.537 26.2386L893.582 25.8523C893.628 26.6402 893.904 27.2348 894.412 27.6364C894.92 28.0303 895.624 28.2311 896.526 28.2386C897.541 28.2462 898.397 28.0341 899.094 27.6023C899.798 27.1629 900.196 26.6288 900.287 26C900.363 25.5303 900.245 25.1477 899.935 24.8523C899.632 24.5568 899.09 24.322 898.31 24.1477L895.446 23.5227C893.825 23.1667 892.67 22.5644 891.98 21.7159C891.298 20.8598 891.067 19.7803 891.287 18.4773C891.469 17.4167 891.912 16.5038 892.616 15.7386C893.329 14.9659 894.241 14.3712 895.355 13.9545C896.469 13.5303 897.715 13.3182 899.094 13.3182C901.17 13.3182 902.734 13.7538 903.787 14.625C904.84 15.4962 905.385 16.6742 905.423 18.1591ZM907.077 31L909.986 13.5455H913.929L913.429 16.5114H913.645C914.175 15.5114 914.906 14.7311 915.838 14.1705C916.77 13.6023 917.819 13.3182 918.986 13.3182C920.16 13.3182 921.107 13.6061 921.827 14.1818C922.554 14.75 923.001 15.5265 923.168 16.5114H923.349C923.895 15.5341 924.675 14.7576 925.69 14.1818C926.713 13.6061 927.861 13.3182 929.134 13.3182C930.724 13.3182 931.944 13.8258 932.793 14.8409C933.641 15.8561 933.902 17.3371 933.577 19.2841L931.622 31H927.509L929.372 19.9205C929.539 18.8371 929.372 18.0455 928.872 17.5455C928.38 17.0379 927.717 16.7841 926.884 16.7841C925.891 16.7841 925.065 17.0909 924.406 17.7045C923.755 18.3182 923.353 19.1212 923.202 20.1136L921.372 31H917.338L919.224 19.75C919.361 18.8485 919.202 18.1288 918.747 17.5909C918.3 17.053 917.641 16.7841 916.77 16.7841C916.179 16.7841 915.615 16.9356 915.077 17.2386C914.539 17.5417 914.08 17.9659 913.702 18.5114C913.33 19.0492 913.088 19.6742 912.974 20.3864L911.202 31H907.077ZM939.239 31L936.534 7.72727H941.068L942.432 24.8295H942.648L949.955 7.72727H954.08L955.739 24.8409H955.943L962.966 7.72727H967.5L957.068 31H952.909L950.977 14.6705H950.795L943.398 31H939.239ZM969.574 31.3523C968.468 31.3523 967.506 31.1553 966.688 30.7614C965.869 30.3598 965.267 29.7689 964.881 28.9886C964.502 28.2083 964.407 27.2462 964.597 26.1023C964.763 25.1174 965.081 24.303 965.551 23.6591C966.028 23.0152 966.612 22.5 967.301 22.1136C967.998 21.7197 968.756 21.4242 969.574 21.2273C970.4 21.0303 971.241 20.8864 972.097 20.7955C973.142 20.6894 973.987 20.5909 974.631 20.5C975.282 20.4091 975.771 20.2727 976.097 20.0909C976.422 19.9015 976.619 19.6136 976.688 19.2273V19.1591C976.824 18.303 976.688 17.6402 976.278 17.1705C975.869 16.7008 975.188 16.4659 974.233 16.4659C973.233 16.4659 972.392 16.6856 971.71 17.125C971.028 17.5644 970.532 18.0833 970.222 18.6818L966.494 18.1364C966.964 17.0758 967.608 16.1894 968.426 15.4773C969.244 14.7576 970.188 14.2197 971.256 13.8636C972.331 13.5 973.479 13.3182 974.699 13.3182C975.532 13.3182 976.347 13.4167 977.142 13.6136C977.945 13.8106 978.653 14.1364 979.267 14.5909C979.888 15.0379 980.343 15.6477 980.631 16.4205C980.926 17.1932 980.975 18.1591 980.778 19.3182L978.835 31H974.881L975.29 28.6023H975.153C974.828 29.0871 974.403 29.5417 973.881 29.9659C973.358 30.3826 972.737 30.7197 972.017 30.9773C971.297 31.2273 970.483 31.3523 969.574 31.3523ZM971.131 28.3295C971.956 28.3295 972.699 28.1667 973.358 27.8409C974.017 27.5076 974.559 27.0682 974.983 26.5227C975.407 25.9773 975.672 25.3826 975.778 24.7386L976.119 22.6818C975.968 22.7879 975.733 22.8864 975.415 22.9773C975.097 23.0682 974.741 23.1477 974.347 23.2159C973.96 23.2841 973.578 23.3447 973.199 23.3977C972.82 23.4508 972.494 23.4962 972.222 23.5341C971.593 23.6174 971.017 23.7538 970.494 23.9432C969.979 24.1326 969.551 24.3977 969.21 24.7386C968.877 25.072 968.669 25.5038 968.585 26.0341C968.464 26.7841 968.642 27.3561 969.119 27.75C969.597 28.1364 970.267 28.3295 971.131 28.3295ZM998.892 18.1591L995.108 18.5682C995.07 18.1818 994.953 17.822 994.756 17.4886C994.559 17.1553 994.263 16.8902 993.869 16.6932C993.483 16.4886 992.983 16.3864 992.369 16.3864C991.475 16.3864 990.691 16.5871 990.017 16.9886C989.343 17.3902 988.96 17.9053 988.869 18.5341C988.786 19.0038 988.9 19.3864 989.21 19.6818C989.521 19.9773 990.097 20.2273 990.938 20.4318L993.824 21.0682C995.415 21.4242 996.559 22 997.256 22.7955C997.96 23.5909 998.206 24.6326 997.994 25.9205C997.813 26.9962 997.343 27.9432 996.585 28.7614C995.828 29.572 994.858 30.2045 993.676 30.6591C992.502 31.1136 991.199 31.3409 989.767 31.3409C987.593 31.3409 985.919 30.8902 984.744 29.9886C983.578 29.0795 982.998 27.8295 983.006 26.2386L987.051 25.8523C987.097 26.6402 987.373 27.2348 987.881 27.6364C988.388 28.0303 989.093 28.2311 989.994 28.2386C991.009 28.2462 991.866 28.0341 992.562 27.6023C993.267 27.1629 993.665 26.6288 993.756 26C993.831 25.5303 993.714 25.1477 993.403 24.8523C993.1 24.5568 992.559 24.322 991.778 24.1477L988.915 23.5227C987.294 23.1667 986.138 22.5644 985.449 21.7159C984.767 20.8598 984.536 19.7803 984.756 18.4773C984.938 17.4167 985.381 16.5038 986.085 15.7386C986.797 14.9659 987.71 14.3712 988.824 13.9545C989.938 13.5303 991.184 13.3182 992.562 13.3182C994.638 13.3182 996.203 13.7538 997.256 14.625C998.309 15.4962 998.854 16.6742 998.892 18.1591ZM1000.55 31L1003.45 13.5455H1007.4L1006.9 16.5114H1007.11C1007.64 15.5114 1008.38 14.7311 1009.31 14.1705C1010.24 13.6023 1011.29 13.3182 1012.45 13.3182C1013.63 13.3182 1014.58 13.6061 1015.3 14.1818C1016.02 14.75 1016.47 15.5265 1016.64 16.5114H1016.82C1017.36 15.5341 1018.14 14.7576 1019.16 14.1818C1020.18 13.6061 1021.33 13.3182 1022.6 13.3182C1024.19 13.3182 1025.41 13.8258 1026.26 14.8409C1027.11 15.8561 1027.37 17.3371 1027.05 19.2841L1025.09 31H1020.98L1022.84 19.9205C1023.01 18.8371 1022.84 18.0455 1022.34 17.5455C1021.85 17.0379 1021.19 16.7841 1020.35 16.7841C1019.36 16.7841 1018.53 17.0909 1017.88 17.7045C1017.22 18.3182 1016.82 19.1212 1016.67 20.1136L1014.84 31H1010.81L1012.69 19.75C1012.83 18.8485 1012.67 18.1288 1012.22 17.5909C1011.77 17.053 1011.11 16.7841 1010.24 16.7841C1009.65 16.7841 1009.08 16.9356 1008.55 17.2386C1008.01 17.5417 1007.55 17.9659 1007.17 18.5114C1006.8 19.0492 1006.56 19.6742 1006.44 20.3864L1004.67 31H1000.55ZM1059.83 15.5795H1055.64C1055.64 14.8826 1055.53 14.2652 1055.3 13.7273C1055.08 13.1818 1054.76 12.7197 1054.35 12.3409C1053.94 11.9621 1053.46 11.678 1052.89 11.4886C1052.33 11.2917 1051.71 11.1932 1051.03 11.1932C1049.73 11.1932 1048.52 11.5227 1047.39 12.1818C1046.27 12.8409 1045.32 13.7992 1044.54 15.0568C1043.76 16.3068 1043.22 17.8258 1042.92 19.6136C1042.64 21.3561 1042.66 22.8144 1043 23.9886C1043.34 25.1629 1043.93 26.0492 1044.77 26.6477C1045.61 27.2386 1046.63 27.5341 1047.84 27.5341C1048.57 27.5341 1049.28 27.4432 1049.95 27.2614C1050.63 27.072 1051.25 26.7955 1051.82 26.4318C1052.39 26.0606 1052.89 25.6098 1053.33 25.0795C1053.77 24.5492 1054.11 23.947 1054.35 23.2727H1058.59C1058.24 24.3788 1057.73 25.4205 1057.05 26.3977C1056.38 27.3674 1055.57 28.2235 1054.62 28.9659C1053.68 29.7008 1052.61 30.2765 1051.44 30.6932C1050.27 31.1098 1049 31.3182 1047.64 31.3182C1045.56 31.3182 1043.78 30.8333 1042.29 29.8636C1040.82 28.8864 1039.75 27.4886 1039.11 25.6705C1038.47 23.8447 1038.35 21.6591 1038.77 19.1136C1039.19 16.6364 1039.99 14.5265 1041.18 12.7841C1042.38 11.0417 1043.83 9.71212 1045.55 8.79545C1047.28 7.87121 1049.14 7.40909 1051.13 7.40909C1052.45 7.40909 1053.65 7.59091 1054.72 7.95454C1055.81 8.31818 1056.74 8.85227 1057.51 9.55682C1058.28 10.2538 1058.87 11.1098 1059.27 12.125C1059.68 13.1326 1059.86 14.2841 1059.83 15.5795ZM1066.79 20.7727L1065.11 31H1060.98L1064.85 7.72727H1068.88L1067.43 16.5114H1067.64C1068.2 15.5189 1068.95 14.7386 1069.9 14.1705C1070.87 13.6023 1072.02 13.3182 1073.37 13.3182C1074.57 13.3182 1075.57 13.572 1076.39 14.0795C1077.21 14.5871 1077.79 15.3295 1078.12 16.3068C1078.46 17.2841 1078.52 18.4773 1078.29 19.8864L1076.43 31H1072.3L1074.05 20.5227C1074.24 19.3485 1074.09 18.4356 1073.59 17.7841C1073.09 17.125 1072.31 16.7955 1071.24 16.7955C1070.51 16.7955 1069.83 16.9545 1069.21 17.2727C1068.59 17.5833 1068.07 18.0341 1067.64 18.625C1067.23 19.2159 1066.94 19.9318 1066.79 20.7727ZM1085.57 31.3523C1084.47 31.3523 1083.51 31.1553 1082.69 30.7614C1081.87 30.3598 1081.27 29.7689 1080.88 28.9886C1080.5 28.2083 1080.41 27.2462 1080.6 26.1023C1080.76 25.1174 1081.08 24.303 1081.55 23.6591C1082.03 23.0152 1082.61 22.5 1083.3 22.1136C1084 21.7197 1084.76 21.4242 1085.57 21.2273C1086.4 21.0303 1087.24 20.8864 1088.1 20.7955C1089.14 20.6894 1089.99 20.5909 1090.63 20.5C1091.28 20.4091 1091.77 20.2727 1092.1 20.0909C1092.42 19.9015 1092.62 19.6136 1092.69 19.2273V19.1591C1092.82 18.303 1092.69 17.6402 1092.28 17.1705C1091.87 16.7008 1091.19 16.4659 1090.23 16.4659C1089.23 16.4659 1088.39 16.6856 1087.71 17.125C1087.03 17.5644 1086.53 18.0833 1086.22 18.6818L1082.49 18.1364C1082.96 17.0758 1083.61 16.1894 1084.43 15.4773C1085.24 14.7576 1086.19 14.2197 1087.26 13.8636C1088.33 13.5 1089.48 13.3182 1090.7 13.3182C1091.53 13.3182 1092.35 13.4167 1093.14 13.6136C1093.95 13.8106 1094.65 14.1364 1095.27 14.5909C1095.89 15.0379 1096.34 15.6477 1096.63 16.4205C1096.93 17.1932 1096.98 18.1591 1096.78 19.3182L1094.84 31H1090.88L1091.29 28.6023H1091.15C1090.83 29.0871 1090.4 29.5417 1089.88 29.9659C1089.36 30.3826 1088.74 30.7197 1088.02 30.9773C1087.3 31.2273 1086.48 31.3523 1085.57 31.3523ZM1087.13 28.3295C1087.96 28.3295 1088.7 28.1667 1089.36 27.8409C1090.02 27.5076 1090.56 27.0682 1090.98 26.5227C1091.41 25.9773 1091.67 25.3826 1091.78 24.7386L1092.12 22.6818C1091.97 22.7879 1091.73 22.8864 1091.41 22.9773C1091.1 23.0682 1090.74 23.1477 1090.35 23.2159C1089.96 23.2841 1089.58 23.3447 1089.2 23.3977C1088.82 23.4508 1088.49 23.4962 1088.22 23.5341C1087.59 23.6174 1087.02 23.7538 1086.49 23.9432C1085.98 24.1326 1085.55 24.3977 1085.21 24.7386C1084.88 25.072 1084.67 25.5038 1084.59 26.0341C1084.46 26.7841 1084.64 27.3561 1085.12 27.75C1085.6 28.1364 1086.27 28.3295 1087.13 28.3295ZM1098.97 31L1101.88 13.5455H1105.99L1103.09 31H1098.97ZM1104.54 11.0455C1103.88 11.0455 1103.34 10.8258 1102.9 10.3864C1102.47 9.94697 1102.28 9.42045 1102.34 8.80682C1102.39 8.19318 1102.66 7.66667 1103.16 7.22727C1103.67 6.78788 1104.25 6.56818 1104.9 6.56818C1105.56 6.56818 1106.1 6.78788 1106.53 7.22727C1106.96 7.66667 1107.15 8.19318 1107.1 8.80682C1107.05 9.42045 1106.77 9.94697 1106.27 10.3864C1105.77 10.8258 1105.19 11.0455 1104.54 11.0455ZM1113.13 20.7727L1111.45 31H1107.33L1110.24 13.5455H1114.18L1113.68 16.5114H1113.89C1114.44 15.5341 1115.21 14.7576 1116.19 14.1818C1117.18 13.6061 1118.32 13.3182 1119.63 13.3182C1120.82 13.3182 1121.82 13.5758 1122.63 14.0909C1123.44 14.5985 1124.02 15.3447 1124.36 16.3295C1124.7 17.3068 1124.75 18.4924 1124.52 19.8864L1122.66 31H1118.54L1120.28 20.5227C1120.48 19.3636 1120.33 18.4545 1119.84 17.7955C1119.35 17.1288 1118.57 16.7955 1117.5 16.7955C1116.78 16.7955 1116.11 16.9545 1115.51 17.2727C1114.9 17.5833 1114.39 18.0341 1113.97 18.625C1113.57 19.2159 1113.29 19.9318 1113.13 20.7727Z" fill="#D00032"/>
<rect x="854.614" y="138.579" width="191.886" height="227.921" stroke="#03628A" stroke-width="7" stroke-dasharray="14 14"/>
<path d="M852.69 105.545L849.793 123H846.631L849.528 105.545H852.69ZM853.217 123L856.114 105.545H862.796C864.058 105.545 865.075 105.744 865.847 106.142C866.62 106.534 867.157 107.071 867.458 107.753C867.765 108.435 867.844 109.207 867.697 110.071C867.577 110.776 867.339 111.381 866.981 111.886C866.629 112.386 866.197 112.795 865.685 113.114C865.174 113.426 864.626 113.651 864.04 113.787L864.006 113.957C864.62 113.986 865.183 114.173 865.694 114.52C866.205 114.866 866.592 115.355 866.853 115.986C867.114 116.611 867.174 117.364 867.032 118.244C866.879 119.148 866.523 119.96 865.967 120.682C865.41 121.398 864.654 121.963 863.7 122.378C862.751 122.793 861.612 123 860.282 123H853.217ZM856.822 120.358H860.222C861.364 120.358 862.228 120.139 862.813 119.702C863.398 119.259 863.748 118.69 863.862 117.997C863.947 117.48 863.896 117.014 863.708 116.599C863.521 116.179 863.211 115.849 862.779 115.611C862.347 115.366 861.808 115.244 861.16 115.244H857.665L856.822 120.358ZM858.058 112.969H861.185C861.731 112.969 862.237 112.869 862.702 112.67C863.174 112.466 863.566 112.179 863.879 111.81C864.197 111.435 864.393 110.991 864.467 110.48C864.586 109.804 864.444 109.247 864.04 108.81C863.637 108.372 862.972 108.153 862.046 108.153H858.842L858.058 112.969ZM885.831 111.435H882.695C882.695 110.912 882.609 110.449 882.439 110.045C882.268 109.636 882.03 109.29 881.723 109.006C881.416 108.722 881.053 108.509 880.632 108.366C880.212 108.219 879.746 108.145 879.234 108.145C878.257 108.145 877.348 108.392 876.507 108.886C875.666 109.381 874.953 110.099 874.368 111.043C873.783 111.98 873.376 113.119 873.149 114.46C872.939 115.767 872.959 116.861 873.209 117.741C873.464 118.622 873.908 119.287 874.538 119.736C875.169 120.179 875.936 120.401 876.839 120.401C877.391 120.401 877.919 120.332 878.425 120.196C878.93 120.054 879.396 119.847 879.822 119.574C880.254 119.295 880.632 118.957 880.956 118.56C881.286 118.162 881.541 117.71 881.723 117.205H884.902C884.641 118.034 884.257 118.815 883.751 119.548C883.246 120.276 882.638 120.918 881.928 121.474C881.217 122.026 880.422 122.457 879.541 122.77C878.661 123.082 877.712 123.239 876.695 123.239C875.132 123.239 873.794 122.875 872.68 122.148C871.572 121.415 870.777 120.366 870.294 119.003C869.811 117.634 869.726 115.994 870.038 114.085C870.351 112.227 870.953 110.645 871.845 109.338C872.743 108.031 873.837 107.034 875.126 106.347C876.422 105.653 877.817 105.307 879.311 105.307C880.3 105.307 881.197 105.443 882.004 105.716C882.817 105.989 883.513 106.389 884.092 106.918C884.672 107.44 885.112 108.082 885.413 108.844C885.72 109.599 885.859 110.463 885.831 111.435ZM896.278 113.003L895.86 115.543H888.011L888.428 113.003H896.278ZM911.659 111.119C911.597 110.659 911.483 110.247 911.318 109.884C911.153 109.514 910.932 109.202 910.653 108.946C910.375 108.685 910.037 108.486 909.639 108.349C909.241 108.213 908.778 108.145 908.25 108.145C907.312 108.145 906.423 108.381 905.582 108.852C904.741 109.324 904.023 110.017 903.426 110.932C902.83 111.841 902.423 112.949 902.207 114.256C901.991 115.574 902.003 116.69 902.241 117.605C902.48 118.52 902.918 119.216 903.554 119.693C904.196 120.165 905.003 120.401 905.974 120.401C906.866 120.401 907.676 120.23 908.403 119.889C909.131 119.548 909.733 119.065 910.21 118.44C910.693 117.81 911 117.071 911.131 116.224L911.83 116.335H907.082L907.509 113.864H914.591L914.233 115.96C913.989 117.46 913.457 118.756 912.639 119.847C911.827 120.932 910.813 121.77 909.597 122.361C908.386 122.946 907.06 123.239 905.616 123.239C904.014 123.239 902.665 122.878 901.568 122.156C900.477 121.429 899.705 120.398 899.25 119.062C898.795 117.722 898.722 116.131 899.028 114.29C899.256 112.881 899.659 111.622 900.239 110.514C900.824 109.406 901.54 108.466 902.386 107.693C903.239 106.915 904.185 106.324 905.224 105.92C906.264 105.511 907.355 105.307 908.497 105.307C909.457 105.307 910.332 105.449 911.122 105.733C911.912 106.011 912.588 106.409 913.151 106.926C913.719 107.443 914.153 108.057 914.455 108.767C914.756 109.477 914.898 110.261 914.881 111.119H911.659ZM921.731 123.256C920.441 123.256 919.367 122.972 918.509 122.403C917.657 121.835 917.058 121.037 916.711 120.009C916.364 118.98 916.302 117.787 916.523 116.429C916.745 115.088 917.188 113.915 917.853 112.909C918.523 111.903 919.367 111.125 920.384 110.574C921.407 110.017 922.552 109.739 923.819 109.739C925.109 109.739 926.18 110.026 927.032 110.599C927.884 111.168 928.484 111.966 928.83 112.994C929.183 114.023 929.248 115.222 929.026 116.591C928.81 117.926 928.364 119.094 927.688 120.094C927.018 121.094 926.174 121.872 925.157 122.429C924.14 122.98 922.998 123.256 921.731 123.256ZM921.987 120.784C922.702 120.784 923.33 120.591 923.87 120.205C924.415 119.812 924.862 119.287 925.208 118.628C925.56 117.963 925.805 117.224 925.941 116.412C926.066 115.628 926.069 114.918 925.95 114.281C925.83 113.639 925.575 113.131 925.183 112.756C924.796 112.375 924.259 112.185 923.572 112.185C922.856 112.185 922.222 112.384 921.671 112.781C921.126 113.173 920.68 113.702 920.333 114.366C919.987 115.026 919.748 115.761 919.617 116.574C919.487 117.358 919.481 118.068 919.6 118.705C919.719 119.341 919.975 119.847 920.367 120.222C920.759 120.597 921.299 120.784 921.987 120.784ZM936.102 105.545L935.821 107.284C935.741 107.784 935.56 108.304 935.276 108.844C934.991 109.378 934.645 109.889 934.236 110.378C933.827 110.861 933.386 111.276 932.915 111.622L931.619 110.693C932.006 110.222 932.361 109.713 932.685 109.168C933.009 108.616 933.23 107.994 933.349 107.301L933.648 105.545H936.102ZM945.95 113.369L943.112 113.676C943.084 113.386 942.996 113.116 942.848 112.866C942.7 112.616 942.479 112.418 942.183 112.27C941.893 112.116 941.518 112.04 941.058 112.04C940.388 112.04 939.8 112.19 939.294 112.491C938.788 112.793 938.501 113.179 938.433 113.651C938.371 114.003 938.456 114.29 938.689 114.511C938.922 114.733 939.354 114.92 939.984 115.074L942.149 115.551C943.342 115.818 944.2 116.25 944.723 116.847C945.251 117.443 945.436 118.224 945.277 119.19C945.141 119.997 944.788 120.707 944.22 121.321C943.652 121.929 942.925 122.403 942.038 122.744C941.158 123.085 940.18 123.256 939.107 123.256C937.476 123.256 936.22 122.918 935.339 122.241C934.464 121.56 934.03 120.622 934.036 119.429L937.07 119.139C937.104 119.73 937.311 120.176 937.692 120.477C938.072 120.773 938.601 120.923 939.277 120.929C940.038 120.935 940.68 120.776 941.203 120.452C941.732 120.122 942.03 119.722 942.098 119.25C942.155 118.898 942.067 118.611 941.834 118.389C941.607 118.168 941.2 117.991 940.615 117.861L938.467 117.392C937.251 117.125 936.385 116.673 935.868 116.037C935.357 115.395 935.183 114.585 935.348 113.608C935.484 112.812 935.817 112.128 936.345 111.554C936.879 110.974 937.564 110.528 938.399 110.216C939.234 109.898 940.169 109.739 941.203 109.739C942.76 109.739 943.933 110.065 944.723 110.719C945.513 111.372 945.922 112.256 945.95 113.369ZM953.135 123L955.317 109.909H958.402L956.22 123H953.135ZM957.311 108.034C956.817 108.034 956.408 107.869 956.084 107.54C955.76 107.21 955.618 106.815 955.658 106.355C955.697 105.895 955.905 105.5 956.28 105.17C956.661 104.841 957.095 104.676 957.584 104.676C958.078 104.676 958.484 104.841 958.803 105.17C959.126 105.5 959.268 105.895 959.229 106.355C959.195 106.815 958.987 107.21 958.607 107.54C958.232 107.869 957.8 108.034 957.311 108.034ZM965.069 123.256C963.762 123.256 962.688 122.969 961.847 122.395C961.006 121.821 960.418 121.028 960.083 120.017C959.754 119 959.7 117.83 959.921 116.506C960.137 115.176 960.583 114.003 961.259 112.986C961.941 111.963 962.799 111.168 963.833 110.599C964.867 110.026 966.023 109.739 967.302 109.739C968.364 109.739 969.271 109.935 970.021 110.327C970.776 110.713 971.339 111.261 971.708 111.972C972.083 112.676 972.228 113.5 972.143 114.443H969.185C969.174 113.812 968.978 113.287 968.597 112.866C968.217 112.44 967.66 112.227 966.927 112.227C966.29 112.227 965.705 112.398 965.171 112.739C964.637 113.074 964.185 113.557 963.816 114.188C963.447 114.818 963.191 115.574 963.049 116.455C962.901 117.347 962.904 118.114 963.058 118.756C963.217 119.392 963.504 119.884 963.918 120.23C964.339 120.571 964.87 120.741 965.512 120.741C965.967 120.741 966.39 120.656 966.782 120.486C967.174 120.31 967.518 120.057 967.813 119.727C968.114 119.398 968.35 118.997 968.521 118.526H971.469C971.237 119.452 970.822 120.273 970.225 120.989C969.634 121.699 968.901 122.256 968.026 122.659C967.151 123.057 966.165 123.256 965.069 123.256ZM976.977 123.264C976.148 123.264 975.426 123.116 974.812 122.821C974.199 122.52 973.747 122.077 973.457 121.491C973.173 120.906 973.102 120.185 973.244 119.327C973.369 118.588 973.608 117.977 973.96 117.494C974.318 117.011 974.756 116.625 975.273 116.335C975.795 116.04 976.364 115.818 976.977 115.67C977.597 115.523 978.227 115.415 978.869 115.347C979.653 115.267 980.287 115.193 980.77 115.125C981.259 115.057 981.625 114.955 981.869 114.818C982.114 114.676 982.261 114.46 982.312 114.17V114.119C982.415 113.477 982.313 112.98 982.006 112.628C981.699 112.276 981.188 112.099 980.472 112.099C979.722 112.099 979.091 112.264 978.58 112.594C978.068 112.923 977.696 113.312 977.463 113.761L974.668 113.352C975.02 112.557 975.503 111.892 976.116 111.358C976.73 110.818 977.438 110.415 978.239 110.148C979.045 109.875 979.906 109.739 980.821 109.739C981.446 109.739 982.057 109.812 982.653 109.96C983.256 110.108 983.787 110.352 984.247 110.693C984.713 111.028 985.054 111.486 985.27 112.065C985.491 112.645 985.528 113.369 985.381 114.239L983.923 123H980.957L981.264 121.202H981.162C980.918 121.565 980.599 121.906 980.207 122.224C979.815 122.537 979.349 122.79 978.81 122.983C978.27 123.17 977.659 123.264 976.977 123.264ZM978.145 120.997C978.764 120.997 979.321 120.875 979.815 120.631C980.31 120.381 980.716 120.051 981.034 119.642C981.352 119.233 981.551 118.787 981.631 118.304L981.886 116.761C981.773 116.841 981.597 116.915 981.358 116.983C981.119 117.051 980.852 117.111 980.557 117.162C980.267 117.213 979.98 117.259 979.696 117.298C979.412 117.338 979.168 117.372 978.963 117.401C978.491 117.463 978.06 117.565 977.668 117.707C977.281 117.849 976.96 118.048 976.705 118.304C976.455 118.554 976.298 118.878 976.236 119.276C976.145 119.838 976.278 120.267 976.636 120.562C976.994 120.852 977.497 120.997 978.145 120.997ZM996.375 114.46L995.957 117H988.108L988.526 114.46H996.375ZM1002.57 115.33L1001.31 123H998.214L1001.11 105.545H1004.14L1003.05 112.134H1003.21C1003.62 111.389 1004.19 110.804 1004.9 110.378C1005.63 109.952 1006.49 109.739 1007.5 109.739C1008.4 109.739 1009.16 109.929 1009.77 110.31C1010.38 110.69 1010.82 111.247 1011.07 111.98C1011.32 112.713 1011.36 113.608 1011.19 114.665L1009.8 123H1006.7L1008.01 115.142C1008.16 114.261 1008.04 113.577 1007.67 113.088C1007.3 112.594 1006.71 112.347 1005.91 112.347C1005.36 112.347 1004.85 112.466 1004.38 112.705C1003.92 112.937 1003.53 113.276 1003.21 113.719C1002.9 114.162 1002.68 114.699 1002.57 115.33ZM1018.67 123.256C1017.38 123.256 1016.3 122.972 1015.45 122.403C1014.59 121.835 1014 121.037 1013.65 120.009C1013.3 118.98 1013.24 117.787 1013.46 116.429C1013.68 115.088 1014.13 113.915 1014.79 112.909C1015.46 111.903 1016.3 111.125 1017.32 110.574C1018.34 110.017 1019.49 109.739 1020.76 109.739C1022.05 109.739 1023.12 110.026 1023.97 110.599C1024.82 111.168 1025.42 111.966 1025.77 112.994C1026.12 114.023 1026.19 115.222 1025.96 116.591C1025.75 117.926 1025.3 119.094 1024.63 120.094C1023.96 121.094 1023.11 121.872 1022.09 122.429C1021.08 122.98 1019.94 123.256 1018.67 123.256ZM1018.92 120.784C1019.64 120.784 1020.27 120.591 1020.81 120.205C1021.35 119.812 1021.8 119.287 1022.15 118.628C1022.5 117.963 1022.74 117.224 1022.88 116.412C1023 115.628 1023.01 114.918 1022.89 114.281C1022.77 113.639 1022.51 113.131 1022.12 112.756C1021.73 112.375 1021.2 112.185 1020.51 112.185C1019.79 112.185 1019.16 112.384 1018.61 112.781C1018.06 113.173 1017.62 113.702 1017.27 114.366C1016.92 115.026 1016.69 115.761 1016.55 116.574C1016.42 117.358 1016.42 118.068 1016.54 118.705C1016.66 119.341 1016.91 119.847 1017.3 120.222C1017.7 120.597 1018.24 120.784 1018.92 120.784ZM1039.47 113.369L1036.63 113.676C1036.6 113.386 1036.51 113.116 1036.36 112.866C1036.22 112.616 1035.99 112.418 1035.7 112.27C1035.41 112.116 1035.03 112.04 1034.57 112.04C1033.9 112.04 1033.32 112.19 1032.81 112.491C1032.3 112.793 1032.02 113.179 1031.95 113.651C1031.89 114.003 1031.97 114.29 1032.2 114.511C1032.44 114.733 1032.87 114.92 1033.5 115.074L1035.66 115.551C1036.86 115.818 1037.72 116.25 1038.24 116.847C1038.77 117.443 1038.95 118.224 1038.79 119.19C1038.66 119.997 1038.3 120.707 1037.74 121.321C1037.17 121.929 1036.44 122.403 1035.55 122.744C1034.67 123.085 1033.7 123.256 1032.62 123.256C1030.99 123.256 1029.74 122.918 1028.86 122.241C1027.98 121.56 1027.55 120.622 1027.55 119.429L1030.59 119.139C1030.62 119.73 1030.83 120.176 1031.21 120.477C1031.59 120.773 1032.12 120.923 1032.79 120.929C1033.55 120.935 1034.2 120.776 1034.72 120.452C1035.25 120.122 1035.55 119.722 1035.61 119.25C1035.67 118.898 1035.58 118.611 1035.35 118.389C1035.12 118.168 1034.72 117.991 1034.13 117.861L1031.98 117.392C1030.77 117.125 1029.9 116.673 1029.38 116.037C1028.87 115.395 1028.7 114.585 1028.86 113.608C1029 112.812 1029.33 112.128 1029.86 111.554C1030.39 110.974 1031.08 110.528 1031.91 110.216C1032.75 109.898 1033.68 109.739 1034.72 109.739C1036.28 109.739 1037.45 110.065 1038.24 110.719C1039.03 111.372 1039.44 112.256 1039.47 113.369ZM1049.42 109.909L1049.02 112.295H1041.5L1041.89 109.909H1049.42ZM1044.26 106.773H1047.35L1045.3 119.062C1045.24 119.477 1045.25 119.795 1045.33 120.017C1045.42 120.233 1045.57 120.381 1045.77 120.46C1045.97 120.54 1046.2 120.58 1046.46 120.58C1046.65 120.58 1046.82 120.565 1046.99 120.537C1047.15 120.503 1047.28 120.477 1047.38 120.46L1047.52 122.872C1047.33 122.929 1047.08 122.991 1046.76 123.06C1046.44 123.128 1046.07 123.168 1045.63 123.179C1044.85 123.196 1044.17 123.077 1043.59 122.821C1043.01 122.56 1042.59 122.159 1042.33 121.619C1042.06 121.074 1042 120.392 1042.15 119.574L1044.26 106.773Z" fill="#03628A"/>
<path d="M902.284 241.119C902.222 240.659 902.108 240.247 901.943 239.884C901.778 239.514 901.557 239.202 901.278 238.946C901 238.685 900.662 238.486 900.264 238.349C899.866 238.213 899.403 238.145 898.875 238.145C897.938 238.145 897.048 238.381 896.207 238.852C895.366 239.324 894.648 240.017 894.051 240.932C893.455 241.841 893.048 242.949 892.832 244.256C892.616 245.574 892.628 246.69 892.866 247.605C893.105 248.52 893.543 249.216 894.179 249.693C894.821 250.165 895.628 250.401 896.599 250.401C897.491 250.401 898.301 250.23 899.028 249.889C899.756 249.548 900.358 249.065 900.835 248.44C901.318 247.81 901.625 247.071 901.756 246.224L902.455 246.335H897.707L898.134 243.864H905.216L904.858 245.96C904.614 247.46 904.082 248.756 903.264 249.847C902.452 250.932 901.438 251.77 900.222 252.361C899.011 252.946 897.685 253.239 896.241 253.239C894.639 253.239 893.29 252.878 892.193 252.156C891.102 251.429 890.33 250.398 889.875 249.062C889.42 247.722 889.347 246.131 889.653 244.29C889.881 242.881 890.284 241.622 890.864 240.514C891.449 239.406 892.165 238.466 893.011 237.693C893.864 236.915 894.81 236.324 895.849 235.92C896.889 235.511 897.98 235.307 899.122 235.307C900.082 235.307 900.957 235.449 901.747 235.733C902.537 236.011 903.213 236.409 903.776 236.926C904.344 237.443 904.778 238.057 905.08 238.767C905.381 239.477 905.523 240.261 905.506 241.119H902.284ZM912.356 253.256C911.066 253.256 909.992 252.972 909.134 252.403C908.282 251.835 907.683 251.037 907.336 250.009C906.989 248.98 906.927 247.787 907.148 246.429C907.37 245.088 907.813 243.915 908.478 242.909C909.148 241.903 909.992 241.125 911.009 240.574C912.032 240.017 913.177 239.739 914.444 239.739C915.734 239.739 916.805 240.026 917.657 240.599C918.509 241.168 919.109 241.966 919.455 242.994C919.808 244.023 919.873 245.222 919.651 246.591C919.435 247.926 918.989 249.094 918.313 250.094C917.643 251.094 916.799 251.872 915.782 252.429C914.765 252.98 913.623 253.256 912.356 253.256ZM912.612 250.784C913.327 250.784 913.955 250.591 914.495 250.205C915.04 249.812 915.487 249.287 915.833 248.628C916.185 247.963 916.43 247.224 916.566 246.412C916.691 245.628 916.694 244.918 916.575 244.281C916.455 243.639 916.2 243.131 915.808 242.756C915.421 242.375 914.884 242.185 914.197 242.185C913.481 242.185 912.847 242.384 912.296 242.781C911.751 243.173 911.305 243.702 910.958 244.366C910.612 245.026 910.373 245.761 910.242 246.574C910.112 247.358 910.106 248.068 910.225 248.705C910.344 249.341 910.6 249.847 910.992 250.222C911.384 250.597 911.924 250.784 912.612 250.784ZM930.2 235.545H934.07L937.163 248.193H937.368L944.638 235.545H948.507L945.609 253H942.575L944.57 241.009H944.416L937.598 252.949H935.339L932.51 240.983H932.348L930.337 253H927.303L930.2 235.545ZM954.661 253.256C953.371 253.256 952.297 252.972 951.439 252.403C950.587 251.835 949.987 251.037 949.641 250.009C949.294 248.98 949.232 247.787 949.453 246.429C949.675 245.088 950.118 243.915 950.783 242.909C951.453 241.903 952.297 241.125 953.314 240.574C954.337 240.017 955.482 239.739 956.749 239.739C958.038 239.739 959.109 240.026 959.962 240.599C960.814 241.168 961.413 241.966 961.76 242.994C962.112 244.023 962.178 245.222 961.956 246.591C961.74 247.926 961.294 249.094 960.618 250.094C959.947 251.094 959.104 251.872 958.087 252.429C957.07 252.98 955.928 253.256 954.661 253.256ZM954.916 250.784C955.632 250.784 956.26 250.591 956.8 250.205C957.345 249.812 957.791 249.287 958.138 248.628C958.49 247.963 958.734 247.224 958.871 246.412C958.996 245.628 958.999 244.918 958.879 244.281C958.76 243.639 958.504 243.131 958.112 242.756C957.726 242.375 957.189 242.185 956.501 242.185C955.786 242.185 955.152 242.384 954.601 242.781C954.055 243.173 953.609 243.702 953.263 244.366C952.916 245.026 952.678 245.761 952.547 246.574C952.416 247.358 952.411 248.068 952.53 248.705C952.649 249.341 952.905 249.847 953.297 250.222C953.689 250.597 954.229 250.784 954.916 250.784ZM968.359 253.23C967.33 253.23 966.452 252.966 965.725 252.438C964.998 251.909 964.481 251.142 964.174 250.136C963.873 249.131 963.839 247.909 964.072 246.472C964.316 245.017 964.762 243.79 965.41 242.79C966.058 241.784 966.83 241.026 967.728 240.514C968.631 239.997 969.586 239.739 970.592 239.739C971.364 239.739 971.975 239.869 972.424 240.131C972.879 240.386 973.219 240.696 973.447 241.06C973.674 241.418 973.842 241.756 973.95 242.074H974.077L975.16 235.545H978.254L975.356 253H972.322L972.671 250.938H972.484C972.268 251.256 971.981 251.594 971.623 251.952C971.265 252.304 970.819 252.605 970.285 252.855C969.751 253.105 969.109 253.23 968.359 253.23ZM969.586 250.699C970.245 250.699 970.836 250.523 971.359 250.17C971.887 249.812 972.327 249.315 972.68 248.679C973.032 248.043 973.279 247.301 973.421 246.455C973.563 245.608 973.563 244.872 973.421 244.247C973.279 243.622 973.004 243.136 972.594 242.79C972.185 242.443 971.648 242.27 970.984 242.27C970.302 242.27 969.702 242.449 969.185 242.807C968.674 243.165 968.254 243.659 967.924 244.29C967.594 244.92 967.362 245.642 967.225 246.455C967.089 247.273 967.08 248.003 967.2 248.645C967.325 249.281 967.583 249.784 967.975 250.153C968.373 250.517 968.91 250.699 969.586 250.699ZM987.914 247.494L989.184 239.909H992.269L990.087 253H987.096L987.488 250.673H987.352C986.942 251.406 986.357 252.006 985.596 252.472C984.84 252.937 983.971 253.17 982.988 253.17C982.13 253.17 981.406 252.98 980.815 252.599C980.224 252.213 979.803 251.653 979.553 250.92C979.309 250.182 979.272 249.29 979.442 248.244L980.84 239.909H983.925L982.613 247.767C982.482 248.597 982.602 249.256 982.971 249.744C983.346 250.233 983.903 250.477 984.641 250.477C985.096 250.477 985.553 250.366 986.013 250.145C986.479 249.923 986.886 249.594 987.232 249.156C987.579 248.713 987.806 248.159 987.914 247.494ZM999.243 235.545L996.345 253H993.26L996.158 235.545H999.243ZM1005.28 253.256C1003.97 253.256 1002.88 252.983 1002.02 252.438C1001.17 251.886 1000.56 251.108 1000.22 250.102C999.876 249.091 999.819 247.901 1000.05 246.531C1000.27 245.185 1000.72 244.003 1001.4 242.986C1002.08 241.963 1002.94 241.168 1003.96 240.599C1004.99 240.026 1006.12 239.739 1007.37 239.739C1008.17 239.739 1008.92 239.869 1009.59 240.131C1010.27 240.386 1010.84 240.784 1011.3 241.324C1011.77 241.864 1012.09 242.551 1012.27 243.386C1012.44 244.216 1012.44 245.205 1012.24 246.352L1012.1 247.298H1001.36L1001.69 245.219H1009.46C1009.57 244.628 1009.53 244.102 1009.36 243.642C1009.19 243.176 1008.91 242.81 1008.51 242.543C1008.11 242.276 1007.61 242.142 1007.02 242.142C1006.41 242.142 1005.84 242.298 1005.31 242.611C1004.79 242.918 1004.35 243.315 1003.99 243.804C1003.63 244.293 1003.41 244.807 1003.31 245.347L1002.96 247.341C1002.84 248.159 1002.86 248.827 1003.05 249.344C1003.23 249.861 1003.55 250.241 1004 250.486C1004.46 250.73 1005.03 250.852 1005.72 250.852C1006.18 250.852 1006.6 250.79 1006.98 250.665C1007.37 250.54 1007.71 250.352 1008.01 250.102C1008.32 249.847 1008.58 249.534 1008.78 249.165L1011.6 249.489C1011.29 250.25 1010.83 250.915 1010.23 251.483C1009.63 252.045 1008.91 252.483 1008.07 252.795C1007.23 253.102 1006.3 253.256 1005.28 253.256Z" fill="#03628A"/>
<path d="M302 233L352 261.868V204.132L302 233ZM822 233L772 204.132V261.868L822 233ZM347 238H777V228H347V238Z" fill="#086700"/>
<path d="M479.036 197.818L474.689 224H469.946L474.293 197.818H479.036ZM479.825 224L484.172 197.818H494.194C496.086 197.818 497.612 198.116 498.771 198.713C499.93 199.301 500.735 200.107 501.187 201.129C501.647 202.152 501.767 203.311 501.545 204.607C501.366 205.663 501.008 206.571 500.471 207.33C499.943 208.08 499.295 208.693 498.528 209.17C497.761 209.639 496.939 209.976 496.061 210.18L496.01 210.436C496.93 210.479 497.774 210.76 498.541 211.28C499.308 211.8 499.887 212.533 500.279 213.479C500.672 214.416 500.761 215.545 500.548 216.866C500.318 218.222 499.785 219.44 498.95 220.523C498.115 221.597 496.981 222.445 495.549 223.067C494.126 223.689 492.417 224 490.423 224H479.825ZM485.233 220.037H490.333C492.047 220.037 493.342 219.709 494.22 219.053C495.098 218.388 495.622 217.536 495.792 216.496C495.92 215.72 495.843 215.021 495.562 214.399C495.281 213.768 494.816 213.274 494.169 212.916C493.521 212.55 492.711 212.366 491.74 212.366H486.498L485.233 220.037ZM487.086 208.953H491.778C492.596 208.953 493.355 208.804 494.054 208.506C494.761 208.199 495.349 207.768 495.818 207.214C496.295 206.652 496.589 205.987 496.7 205.22C496.879 204.206 496.666 203.371 496.061 202.714C495.456 202.058 494.458 201.73 493.069 201.73H488.262L487.086 208.953ZM528.746 206.652H524.042C524.042 205.868 523.914 205.173 523.658 204.568C523.403 203.955 523.045 203.435 522.585 203.009C522.124 202.582 521.579 202.263 520.948 202.05C520.317 201.828 519.619 201.717 518.852 201.717C517.386 201.717 516.022 202.088 514.761 202.83C513.499 203.571 512.43 204.649 511.552 206.064C510.674 207.47 510.065 209.179 509.724 211.19C509.408 213.151 509.438 214.791 509.813 216.112C510.197 217.433 510.862 218.43 511.808 219.104C512.754 219.768 513.904 220.101 515.259 220.101C516.086 220.101 516.879 219.999 517.637 219.794C518.396 219.581 519.094 219.27 519.734 218.861C520.381 218.443 520.948 217.936 521.434 217.339C521.928 216.743 522.312 216.065 522.585 215.307H527.353C526.961 216.551 526.386 217.723 525.627 218.822C524.869 219.913 523.957 220.876 522.891 221.712C521.826 222.538 520.633 223.186 519.312 223.655C517.991 224.124 516.567 224.358 515.042 224.358C512.698 224.358 510.691 223.812 509.021 222.722C507.359 221.622 506.165 220.05 505.441 218.004C504.717 215.95 504.589 213.491 505.058 210.628C505.526 207.841 506.43 205.467 507.768 203.507C509.114 201.547 510.755 200.051 512.69 199.02C514.633 197.98 516.725 197.46 518.967 197.46C520.45 197.46 521.796 197.665 523.006 198.074C524.225 198.483 525.269 199.084 526.138 199.876C527.008 200.661 527.668 201.624 528.12 202.766C528.58 203.899 528.789 205.195 528.746 206.652ZM564.43 206.652H559.725C559.725 205.868 559.598 205.173 559.342 204.568C559.086 203.955 558.728 203.435 558.268 203.009C557.808 202.582 557.262 202.263 556.632 202.05C556.001 201.828 555.302 201.717 554.535 201.717C553.069 201.717 551.706 202.088 550.444 202.83C549.183 203.571 548.113 204.649 547.235 206.064C546.358 207.47 545.748 209.179 545.407 211.19C545.092 213.151 545.122 214.791 545.497 216.112C545.88 217.433 546.545 218.43 547.491 219.104C548.437 219.768 549.588 220.101 550.943 220.101C551.77 220.101 552.562 219.999 553.321 219.794C554.079 219.581 554.778 219.27 555.417 218.861C556.065 218.443 556.632 217.936 557.118 217.339C557.612 216.743 557.995 216.065 558.268 215.307H563.037C562.645 216.551 562.069 217.723 561.311 218.822C560.552 219.913 559.64 220.876 558.575 221.712C557.51 222.538 556.316 223.186 554.995 223.655C553.674 224.124 552.251 224.358 550.725 224.358C548.382 224.358 546.375 223.812 544.704 222.722C543.042 221.622 541.849 220.05 541.125 218.004C540.4 215.95 540.272 213.491 540.741 210.628C541.21 207.841 542.113 205.467 543.451 203.507C544.798 201.547 546.439 200.051 548.373 199.02C550.316 197.98 552.409 197.46 554.65 197.46C556.133 197.46 557.48 197.665 558.69 198.074C559.909 198.483 560.953 199.084 561.822 199.876C562.691 200.661 563.352 201.624 563.804 202.766C564.264 203.899 564.473 205.195 564.43 206.652ZM572.263 212.494L570.371 224H565.731L570.077 197.818H574.616L572.979 207.7H573.222C573.844 206.584 574.692 205.706 575.766 205.067C576.849 204.428 578.148 204.108 579.665 204.108C581.012 204.108 582.146 204.393 583.066 204.964C583.987 205.536 584.634 206.371 585.009 207.47C585.393 208.57 585.457 209.912 585.201 211.497L583.104 224H578.464L580.433 212.213C580.646 210.892 580.471 209.865 579.908 209.132C579.354 208.391 578.477 208.02 577.275 208.02C576.448 208.02 575.685 208.199 574.987 208.557C574.288 208.906 573.7 209.413 573.222 210.078C572.754 210.743 572.434 211.548 572.263 212.494ZM593.396 224.396C592.151 224.396 591.069 224.175 590.148 223.732C589.228 223.28 588.55 222.615 588.116 221.737C587.69 220.859 587.583 219.777 587.796 218.49C587.984 217.382 588.342 216.466 588.87 215.741C589.407 215.017 590.063 214.438 590.839 214.003C591.623 213.56 592.475 213.227 593.396 213.006C594.325 212.784 595.271 212.622 596.234 212.52C597.41 212.401 598.36 212.29 599.085 212.188C599.817 212.085 600.367 211.932 600.734 211.727C601.1 211.514 601.322 211.19 601.398 210.756V210.679C601.552 209.716 601.398 208.97 600.938 208.442C600.478 207.913 599.711 207.649 598.637 207.649C597.512 207.649 596.566 207.896 595.799 208.391C595.032 208.885 594.474 209.469 594.124 210.142L589.931 209.528C590.46 208.335 591.184 207.338 592.104 206.537C593.025 205.727 594.086 205.122 595.288 204.722C596.498 204.312 597.789 204.108 599.161 204.108C600.099 204.108 601.015 204.219 601.91 204.44C602.813 204.662 603.61 205.028 604.3 205.54C604.999 206.043 605.511 206.729 605.835 207.598C606.167 208.467 606.222 209.554 606.001 210.858L603.815 224H599.366L599.826 221.303H599.673C599.306 221.848 598.829 222.359 598.241 222.837C597.653 223.305 596.954 223.685 596.144 223.974C595.335 224.256 594.418 224.396 593.396 224.396ZM595.147 220.996C596.076 220.996 596.911 220.812 597.653 220.446C598.394 220.071 599.004 219.577 599.481 218.963C599.958 218.349 600.256 217.68 600.376 216.956L600.759 214.642C600.589 214.761 600.325 214.872 599.967 214.974C599.609 215.077 599.208 215.166 598.765 215.243C598.33 215.32 597.9 215.388 597.474 215.447C597.048 215.507 596.681 215.558 596.374 215.601C595.667 215.695 595.019 215.848 594.431 216.061C593.852 216.274 593.37 216.572 592.987 216.956C592.612 217.331 592.377 217.817 592.283 218.413C592.147 219.257 592.347 219.901 592.884 220.344C593.421 220.778 594.175 220.996 595.147 220.996ZM615.013 212.494L613.121 224H608.481L611.754 204.364H616.19L615.627 207.7H615.87C616.484 206.601 617.344 205.727 618.452 205.08C619.56 204.432 620.852 204.108 622.326 204.108C623.664 204.108 624.789 204.398 625.701 204.977C626.613 205.548 627.261 206.388 627.644 207.496C628.028 208.595 628.087 209.929 627.823 211.497L625.727 224H621.099L623.055 212.213C623.276 210.909 623.11 209.886 622.556 209.145C622.011 208.395 621.133 208.02 619.923 208.02C619.113 208.02 618.367 208.199 617.685 208.557C617.004 208.906 616.428 209.413 615.96 210.078C615.499 210.743 615.184 211.548 615.013 212.494ZM636.951 212.494L635.059 224H630.418L633.691 204.364H638.127L637.565 207.7H637.808C638.421 206.601 639.282 205.727 640.39 205.08C641.498 204.432 642.789 204.108 644.263 204.108C645.602 204.108 646.727 204.398 647.638 204.977C648.55 205.548 649.198 206.388 649.582 207.496C649.965 208.595 650.025 209.929 649.761 211.497L647.664 224H643.036L644.992 212.213C645.214 210.909 645.048 209.886 644.494 209.145C643.948 208.395 643.07 208.02 641.86 208.02C641.05 208.02 640.305 208.199 639.623 208.557C638.941 208.906 638.366 209.413 637.897 210.078C637.437 210.743 637.121 211.548 636.951 212.494ZM660.985 224.384C659.016 224.384 657.388 223.974 656.102 223.156C654.815 222.33 653.911 221.162 653.391 219.653C652.88 218.136 652.795 216.351 653.136 214.297C653.468 212.277 654.146 210.504 655.168 208.979C656.191 207.445 657.469 206.251 659.004 205.399C660.546 204.538 662.251 204.108 664.117 204.108C665.327 204.108 666.44 204.304 667.454 204.696C668.468 205.08 669.325 205.676 670.023 206.486C670.722 207.295 671.204 208.327 671.468 209.58C671.732 210.824 671.719 212.307 671.43 214.028L671.212 215.447H655.104L655.603 212.328H667.262C667.415 211.442 667.364 210.653 667.109 209.963C666.853 209.264 666.427 208.714 665.83 208.314C665.234 207.913 664.488 207.713 663.593 207.713C662.681 207.713 661.829 207.947 661.036 208.416C660.252 208.876 659.592 209.473 659.055 210.206C658.518 210.939 658.177 211.71 658.032 212.52L657.508 215.511C657.32 216.739 657.363 217.74 657.636 218.516C657.908 219.291 658.386 219.862 659.067 220.229C659.749 220.595 660.61 220.778 661.65 220.778C662.332 220.778 662.962 220.685 663.542 220.497C664.121 220.31 664.637 220.028 665.089 219.653C665.549 219.27 665.933 218.801 666.239 218.247L670.471 218.733C670.002 219.875 669.316 220.872 668.413 221.724C667.509 222.568 666.427 223.224 665.165 223.693C663.913 224.153 662.519 224.384 660.985 224.384ZM682.692 197.818L678.346 224H673.718L678.065 197.818H682.692Z" fill="#086700"/>
</svg>
