<svg width="402" height="402" viewBox="0 0 402 402" fill="none" xmlns="http://www.w3.org/2000/svg">
<path d="M200.731 401.744C311.591 401.744 401.461 311.81 401.461 200.872C401.461 89.9334 311.591 0 200.731 0C89.8701 0 0 89.9334 0 200.872C0 311.81 89.8701 401.744 200.731 401.744Z" fill="url(#paint0_linear_427_11902)"/>
<path d="M161.489 333.724C190.231 317.117 202.878 285.243 204.469 254.165C205.978 224.546 176.776 207.325 150.712 193.207C117.771 175.365 95.3477 140.478 95.3477 100.435C95.3477 85.1868 98.6119 70.6896 104.465 57.5935C106.178 53.7621 101.873 49.5305 98.4174 51.9106C51.1072 84.5037 20.0766 139.046 20.0766 200.871C20.0766 254.066 37.7162 176.539 78.3129 304.56C85.8652 328.375 104.7 349.223 129.323 345.076C140.417 343.208 151.551 339.465 161.489 333.724Z" fill="#1F1F1F"/>
<path d="M105.516 100.405C105.516 133.618 126.777 160.519 152.878 177.432C177.755 193.552 207.261 176.853 232.507 161.324C264.423 141.698 305.824 139.709 340.48 159.73C353.675 167.354 364.588 177.431 372.994 189.052C375.455 192.452 381.272 190.837 380.935 186.652C376.384 129.355 344.7 75.1923 291.196 44.2798C245.156 17.6819 303.433 71.7324 172.343 42.9047C147.957 37.5419 120.497 43.4411 111.774 66.8533C107.844 77.4021 105.517 88.9227 105.516 100.405Z" fill="#1F1F1F"/>
<path d="M335.395 168.58C306.654 151.975 272.742 156.949 245.052 171.113C218.668 184.612 218.366 218.532 219.179 248.178C220.206 285.648 201.23 322.524 166.574 342.545C153.378 350.169 139.2 354.589 124.94 356.064C120.768 356.496 119.258 362.343 123.045 364.147C174.907 388.851 237.621 388.472 291.126 357.559C337.165 330.962 261.253 354.439 351.742 255.246C368.576 236.793 377.202 210.046 361.303 190.78C354.139 182.1 345.333 174.323 335.395 168.58Z" fill="#1F1F1F"/>
<defs>
<linearGradient id="paint0_linear_427_11902" x1="74.675" y1="16.874" x2="331.853" y2="383.094" gradientUnits="userSpaceOnUse">
<stop stop-color="#FCECB2"/>
<stop offset="0.260417" stop-color="#FF8B89"/>
<stop offset="0.520833" stop-color="#FC8ADC"/>
<stop offset="0.755208" stop-color="#7954FF"/>
<stop offset="1" stop-color="#70BCFF"/>
</linearGradient>
</defs>
</svg>
