<svg width="1129" height="663" viewBox="0 0 1129 663" fill="none" xmlns="http://www.w3.org/2000/svg">
<path d="M321 642C498.283 642 642 498.283 642 321C642 143.717 498.283 0 321 0C143.717 0 0 143.717 0 321C0 498.283 143.717 642 321 642Z" fill="#F2F2F2"/>
<path d="M559 663C842.874 663 1073 650.688 1073 635.5C1073 620.312 842.874 608 559 608C275.126 608 45 620.312 45 635.5C45 650.688 275.126 663 559 663Z" fill="#3F3D56"/>
<path opacity="0.2" d="M558 649C812.051 649 1018 639.15 1018 627C1018 614.85 812.051 605 558 605C303.949 605 98 614.85 98 627C98 639.15 303.949 649 558 649Z" fill="black"/>
<path d="M971 152.5H131V202.5H971V152.5Z" fill="#3F3D56"/>
<path d="M131 608.83C131 611.676 131.561 614.494 132.65 617.123C133.739 619.752 135.335 622.141 137.347 624.153C139.359 626.165 141.748 627.761 144.377 628.85C147.006 629.939 149.824 630.5 152.67 630.5H949.33C952.176 630.5 954.994 629.939 957.623 628.85C960.252 627.761 962.641 626.165 964.653 624.153C966.665 622.141 968.261 619.752 969.35 617.123C970.439 614.494 971 611.676 971 608.83V177.5H131V608.83Z" fill="#3F3D56"/>
<path d="M949.33 117.5H152.67C149.824 117.5 147.006 118.061 144.377 119.15C141.748 120.239 139.359 121.835 137.347 123.847C135.335 125.859 133.739 128.248 132.65 130.877C131.561 133.506 131 136.324 131 139.17V177.5H971V139.17C971 136.324 970.439 133.506 969.35 130.877C968.261 128.248 966.665 125.859 964.653 123.847C962.641 121.835 960.252 120.239 957.623 119.15C954.994 118.061 952.176 117.5 949.33 117.5Z" fill="#3F3D56"/>
<path opacity="0.2" d="M949.33 117.5H152.67C149.824 117.5 147.006 118.061 144.377 119.15C141.748 120.239 139.359 121.835 137.347 123.847C135.335 125.859 133.739 128.248 132.65 130.877C131.561 133.506 131 136.324 131 139.17V177.5H971V139.17C971 136.324 970.439 133.506 969.35 130.877C968.261 128.248 966.665 125.859 964.653 123.847C962.641 121.835 960.252 120.239 957.623 119.15C954.994 118.061 952.176 117.5 949.33 117.5Z" fill="black"/>
<path d="M181 160.5C188.18 160.5 194 154.68 194 147.5C194 140.32 188.18 134.5 181 134.5C173.82 134.5 168 140.32 168 147.5C168 154.68 173.82 160.5 181 160.5Z" fill="#3F3D56"/>
<path d="M217 160.5C224.18 160.5 230 154.68 230 147.5C230 140.32 224.18 134.5 217 134.5C209.82 134.5 204 140.32 204 147.5C204 154.68 209.82 160.5 217 160.5Z" fill="#3F3D56"/>
<path d="M253 160.5C260.18 160.5 266 154.68 266 147.5C266 140.32 260.18 134.5 253 134.5C245.82 134.5 240 140.32 240 147.5C240 154.68 245.82 160.5 253 160.5Z" fill="#3F3D56"/>
<path d="M499.665 213.5H173.335C170.389 213.5 168 215.889 168 218.835V594.165C168 597.111 170.389 599.5 173.335 599.5H499.665C502.611 599.5 505 597.111 505 594.165V218.835C505 215.889 502.611 213.5 499.665 213.5Z" fill="#606060"/>
<path d="M881.524 272.5H608.476C605.452 272.5 603 274.952 603 277.976V289.024C603 292.048 605.452 294.5 608.476 294.5H881.524C884.548 294.5 887 292.048 887 289.024V277.976C887 274.952 884.548 272.5 881.524 272.5Z" fill="#2E8555"/>
<path d="M947.524 352.5H542.476C539.452 352.5 537 354.952 537 357.976V362.024C537 365.048 539.452 367.5 542.476 367.5H947.524C950.548 367.5 953 365.048 953 362.024V357.976C953 354.952 950.548 352.5 947.524 352.5Z" fill="#2E8555"/>
<path d="M947.524 396.5H542.476C539.452 396.5 537 398.952 537 401.976V406.024C537 409.048 539.452 411.5 542.476 411.5H947.524C950.548 411.5 953 409.048 953 406.024V401.976C953 398.952 950.548 396.5 947.524 396.5Z" fill="#2E8555"/>
<path d="M947.524 440.5H542.476C539.452 440.5 537 442.952 537 445.976V450.024C537 453.048 539.452 455.5 542.476 455.5H947.524C950.548 455.5 953 453.048 953 450.024V445.976C953 442.952 950.548 440.5 947.524 440.5Z" fill="#2E8555"/>
<path d="M947.524 484.5H542.476C539.452 484.5 537 486.952 537 489.976V494.024C537 497.048 539.452 499.5 542.476 499.5H947.524C950.548 499.5 953 497.048 953 494.024V489.976C953 486.952 950.548 484.5 947.524 484.5Z" fill="#2E8555"/>
<path d="M945.972 552.5H872.028C868.146 552.5 865 555.646 865 559.528V571.472C865 575.354 868.146 578.5 872.028 578.5H945.972C949.854 578.5 953 575.354 953 571.472V559.528C953 555.646 949.854 552.5 945.972 552.5Z" fill="#3ECC5F"/>
<path d="M336 562C418.843 562 486 494.843 486 412C486 329.157 418.843 262 336 262C253.157 262 186 329.157 186 412C186 494.843 253.157 562 336 562Z" fill="url(#paint0_linear_429_11903)"/>
<path d="M306.676 511.207C328.154 498.805 337.605 475.003 338.794 451.796C339.922 429.678 318.099 416.819 298.622 406.277C274.007 392.953 257.251 366.901 257.251 336.999C257.251 325.613 259.69 314.787 264.064 305.008C265.343 302.147 262.126 298.987 259.544 300.764C224.191 325.103 201.003 365.832 201.003 411.999C201.003 451.723 214.184 393.829 244.521 489.428C250.165 507.212 264.239 522.781 282.639 519.684C290.93 518.289 299.249 515.493 306.676 511.207Z" fill="#1F1F1F"/>
<path d="M264.849 336.977C264.849 361.778 280.736 381.866 300.241 394.497C318.831 406.534 340.88 394.064 359.746 382.468C383.595 367.812 414.533 366.327 440.431 381.278C450.291 386.971 458.446 394.496 464.727 403.174C466.567 405.712 470.913 404.506 470.662 401.382C467.261 358.595 443.584 318.149 403.602 295.066C369.198 275.204 412.746 315.566 314.787 294.039C296.564 290.034 276.044 294.439 269.525 311.922C266.589 319.8 264.85 328.402 264.849 336.977Z" fill="#1F1F1F"/>
<path d="M436.631 387.886C415.154 375.487 389.812 379.201 369.12 389.778C349.404 399.858 349.179 425.188 349.786 447.326C350.554 475.306 336.373 502.843 310.476 517.794C300.615 523.487 290.02 526.788 279.364 527.889C276.246 528.212 275.118 532.577 277.948 533.925C316.703 552.372 363.567 552.089 403.55 529.006C437.954 509.144 381.227 526.675 448.846 452.603C461.426 438.824 467.872 418.85 455.991 404.464C450.638 397.982 444.057 392.175 436.631 387.886Z" fill="#1F1F1F"/>
<defs>
<linearGradient id="paint0_linear_429_11903" x1="241.802" y1="274.601" x2="433.802" y2="548.2" gradientUnits="userSpaceOnUse">
<stop stop-color="#FCECB2"/>
<stop offset="0.260417" stop-color="#FF8B89"/>
<stop offset="0.520833" stop-color="#FC8ADC"/>
<stop offset="0.755208" stop-color="#7954FF"/>
<stop offset="1" stop-color="#70BCFF"/>
</linearGradient>
</defs>
</svg>
