<svg width="1088" height="688" viewBox="0 0 1088 688" fill="none" xmlns="http://www.w3.org/2000/svg">
<g clip-path="url(#clip0_430_12114)">
<path d="M961.81 454.442C956.54 499.592 945.59 535.842 930.56 564.752C910.56 603.272 876.35 618.792 845.79 635.032C836.959 639.716 827.778 643.708 818.33 646.972C762.72 666.272 700.48 661.152 651.59 650.962C617.3 643.809 582.492 639.408 547.5 637.802C537.52 637.352 527.53 637.129 517.53 637.132C502.11 637.152 224.46 642.422 156.86 505.562C140.17 471.802 128.73 430.562 124.62 380.292C112.99 238.172 176.91 144.832 259.36 83.8221C415.33 -31.5879 629.12 -26.7479 782.79 91.7021C885.15 170.602 980.99 290.012 961.81 454.442Z" fill="#3F3D56"/>
<path d="M930.56 564.752C910.56 603.272 883.35 628.792 852.79 645.032C843.959 649.716 834.778 653.708 825.33 656.972C769.72 676.272 707.48 671.152 658.59 660.962C624.299 653.809 589.492 649.408 554.5 647.802C544.52 647.352 534.53 647.129 524.53 647.132C509.11 647.152 493.693 647.725 478.28 648.852C378.11 656.212 224.46 642.422 156.86 505.562L326 177.962L388.95 339.581L409.04 391.171L464.41 315.191L493 275.962L623.2 425.232L660 343.962L914.78 551.881L928.99 563.471L930.56 564.752Z" fill="#F2F2F2"/>
<path opacity="0.1" d="M302 282.962L328 225.962L364 308.962L333 248.962L302 282.962Z" fill="black"/>
<path opacity="0.1" d="M554.5 647.802C544.52 647.352 534.53 647.129 524.53 647.132L409.04 391.172L554.5 647.802Z" fill="black"/>
<path opacity="0.1" d="M464.411 315.191L493 292.962L623 442.962L491 314.962L464.411 315.191Z" fill="black"/>
<path opacity="0.1" d="M852.79 645.032C843.959 649.716 834.778 653.708 825.33 656.972L623.2 425.232L852.79 645.032Z" fill="black"/>
<path d="M482 104.962C483.657 104.962 485 103.619 485 101.962C485 100.305 483.657 98.9622 482 98.9622C480.343 98.9622 479 100.305 479 101.962C479 103.619 480.343 104.962 482 104.962Z" fill="#F2F2F2"/>
<path d="M399 207.962C400.657 207.962 402 206.619 402 204.962C402 203.305 400.657 201.962 399 201.962C397.343 201.962 396 203.305 396 204.962C396 206.619 397.343 207.962 399 207.962Z" fill="#F2F2F2"/>
<path d="M602 224.962C603.105 224.962 604 224.067 604 222.962C604 221.858 603.105 220.962 602 220.962C600.895 220.962 600 221.858 600 222.962C600 224.067 600.895 224.962 602 224.962Z" fill="#F2F2F2"/>
<path d="M182 269.962C183.105 269.962 184 269.067 184 267.962C184 266.858 183.105 265.962 182 265.962C180.895 265.962 180 266.858 180 267.962C180 269.067 180.895 269.962 182 269.962Z" fill="#F2F2F2"/>
<path d="M614 100.962C615.105 100.962 616 100.067 616 98.9622C616 97.8576 615.105 96.9622 614 96.9622C612.895 96.9622 612 97.8576 612 98.9622C612 100.067 612.895 100.962 614 100.962Z" fill="#F2F2F2"/>
<path d="M738 196.962C739.105 196.962 740 196.067 740 194.962C740 193.858 739.105 192.962 738 192.962C736.895 192.962 736 193.858 736 194.962C736 196.067 736.895 196.962 738 196.962Z" fill="#F2F2F2"/>
<path d="M860 348.962C861.105 348.962 862 348.067 862 346.962C862 345.858 861.105 344.962 860 344.962C858.895 344.962 858 345.858 858 346.962C858 348.067 858.895 348.962 860 348.962Z" fill="#F2F2F2"/>
<path d="M306 121.222H303.24V118.462H301.76V121.222H299V122.7H301.76V125.459H303.24V122.7H306V121.222Z" fill="#F2F2F2"/>
<path d="M848 424.222H845.24V421.462H843.76V424.222H841V425.7H843.76V428.459H845.24V425.7H848V424.222Z" fill="#F2F2F2"/>
<path d="M1088 613.962C1088 630.531 844.443 687.962 544 687.962C243.557 687.962 0 630.531 0 613.962C0 597.393 243.557 627.962 544 627.962C844.443 627.962 1088 597.394 1088 613.962Z" fill="#3F3D56"/>
<path opacity="0.1" d="M1088 613.962C1088 630.531 844.443 687.962 544 687.962C243.557 687.962 0 630.531 0 613.962C0 597.393 243.557 627.962 544 627.962C844.443 627.962 1088 597.394 1088 613.962Z" fill="black"/>
<path d="M544 643.962C844.443 643.962 1088 630.531 1088 613.962C1088 597.394 844.443 583.962 544 583.962C243.557 583.962 0 597.394 0 613.962C0 630.531 243.557 643.962 544 643.962Z" fill="#3F3D56"/>
<path d="M568 571.962C568 605.099 553.225 595.962 535 595.962C516.775 595.962 502 605.099 502 571.962C502 538.825 535 475.962 535 475.962C535 475.962 568 538.825 568 571.962Z" fill="#FF6584"/>
<path opacity="0.1" d="M550 584.641C550 599.703 543.284 595.55 535 595.55C526.716 595.55 520 599.703 520 584.641C520 569.579 535 541.005 535 541.005C535 541.005 550 569.581 550 584.641Z" fill="black"/>
<path d="M572 604.962H498C493.029 604.962 489 608.992 489 613.962C489 618.933 493.029 622.962 498 622.962H572C576.971 622.962 581 618.933 581 613.962C581 608.992 576.971 604.962 572 604.962Z" fill="#2F2E41"/>
<path d="M572 586.962H498C493.029 586.962 489 590.992 489 595.962C489 600.933 493.029 604.962 498 604.962H572C576.971 604.962 581 600.933 581 595.962C581 590.992 576.971 586.962 572 586.962Z" fill="#2F2E41"/>
<path d="M137 490.528C137 545.871 171.719 590.654 214.626 590.654Z" fill="#3F3D56"/>
<path d="M214.626 590.654C214.626 534.689 253.371 489.403 301.252 489.403Z" fill="#6C63FF"/>
<path d="M165.125 495.545C165.125 548.115 187.265 590.654 214.625 590.654Z" fill="#6C63FF"/>
<path d="M214.626 590.654C214.626 519.143 259.409 461.277 314.752 461.277Z" fill="#3F3D56"/>
<path d="M198.3 591.36C198.3 591.36 209.309 591.021 212.626 588.66C215.943 586.299 229.56 583.477 230.383 587.265C231.206 591.053 246.927 606.109 234.498 606.21C222.069 606.311 205.619 604.274 202.308 602.257C198.997 600.24 198.3 591.36 198.3 591.36Z" fill="#A8A8A8"/>
<path opacity="0.2" d="M234.716 604.89C222.287 604.99 205.837 602.954 202.526 600.937C200.004 599.401 198.999 593.889 198.663 591.346L198.295 591.36C198.295 591.36 198.995 600.239 202.304 602.26C205.613 604.281 222.065 606.313 234.494 606.213C238.082 606.184 239.321 604.908 239.253 603.013C238.755 604.155 237.386 604.868 234.716 604.89Z" fill="black"/>
<path d="M721.429 527.062C721.429 565.091 745.286 595.862 774.77 595.862Z" fill="#3F3D56"/>
<path d="M774.769 595.863C774.769 557.407 801.392 526.288 834.294 526.288Z" fill="#6C63FF"/>
<path d="M740.755 530.509C740.755 566.633 755.968 595.863 774.769 595.863Z" fill="#6C63FF"/>
<path d="M774.769 595.863C774.769 546.724 805.542 506.963 843.569 506.963Z" fill="#3F3D56"/>
<path d="M763.548 596.348C763.548 596.348 771.113 596.115 773.392 594.492C775.671 592.869 785.028 590.93 785.592 593.534C786.156 596.138 796.96 606.483 788.42 606.552C779.88 606.621 768.576 605.222 766.301 603.836C764.026 602.45 763.548 596.348 763.548 596.348Z" fill="#A8A8A8"/>
<path opacity="0.2" d="M788.574 605.645C780.034 605.714 768.73 604.315 766.455 602.929C764.722 601.873 764.032 598.086 763.801 596.339L763.548 596.349C763.548 596.349 764.027 602.449 766.303 603.836C768.579 605.223 779.882 606.621 788.422 606.552C790.887 606.532 791.739 605.652 791.692 604.352C791.349 605.14 790.409 605.63 788.574 605.645Z" fill="black"/>
<path d="M893.813 618.699C893.813 618.699 905.173 616.97 908.313 614.108C911.453 611.246 925.203 606.62 926.53 610.441C927.857 614.262 946.024 627.888 933.163 629.548C920.302 631.208 903.01 631.157 899.328 629.483C895.646 627.809 893.813 618.699 893.813 618.699Z" fill="#A8A8A8"/>
<path opacity="0.2" d="M933.228 628.154C920.368 629.813 903.075 629.763 899.393 628.089C896.593 626.814 894.858 621.231 894.193 618.639L893.814 618.7C893.814 618.7 895.647 627.809 899.33 629.483C903.013 631.157 920.305 631.208 933.165 629.548C936.877 629.069 938.001 627.592 937.694 625.642C937.319 626.888 935.991 627.798 933.228 628.154Z" fill="black"/>
<path d="M614.26 617.881C614.26 617.881 623.847 616.422 626.497 614.006C629.147 611.59 640.752 607.686 641.871 610.911C642.99 614.136 658.323 625.636 647.471 627.036C636.619 628.436 622.023 628.394 618.916 626.981C615.809 625.568 614.26 617.881 614.26 617.881Z" fill="#A8A8A8"/>
<path opacity="0.2" d="M647.524 625.856C636.671 627.256 622.076 627.214 618.969 625.801C616.602 624.725 615.142 620.013 614.579 617.825L614.259 617.876C614.259 617.876 615.806 625.563 618.914 626.976C622.022 628.389 636.614 628.432 647.469 627.031C650.602 626.631 651.55 625.38 651.291 623.731C650.977 624.788 649.856 625.556 647.524 625.856Z" fill="black"/>
<path d="M122.389 613.09C122.389 613.09 129.852 611.954 131.916 610.074C133.98 608.194 143.016 605.154 143.885 607.665C144.754 610.176 156.693 619.128 148.243 620.218C139.793 621.308 128.432 621.275 126.013 620.175C123.594 619.075 122.389 613.09 122.389 613.09Z" fill="#A8A8A8"/>
<path opacity="0.2" d="M148.285 619.302C139.836 620.392 128.474 620.359 126.055 619.259C124.213 618.421 123.076 614.753 122.638 613.05L122.389 613.09C122.389 613.09 123.589 619.074 126.013 620.175C128.437 621.276 139.794 621.308 148.243 620.218C150.682 619.903 151.42 618.933 151.219 617.652C150.973 618.47 150.1 619.068 148.285 619.302Z" fill="black"/>
<path opacity="0.1" d="M383.7 601.318C383.7 631.538 341.576 622.191 290 622.191C238.424 622.191 196.926 631.538 196.926 601.318C196.926 571.098 239.044 564.525 290.62 564.525C342.196 564.525 383.7 571.098 383.7 601.318Z" fill="black"/>
<path d="M383.7 593.881C383.7 624.101 341.576 614.754 290 614.754C238.424 614.754 196.926 624.101 196.926 593.881C196.926 563.661 239.04 557.081 290.616 557.081C342.192 557.081 383.7 563.657 383.7 593.881Z" fill="#3F3D56"/>
<g clip-path="url(#clip1_430_12114)">
<mask id="mask0_430_12114" style="mask-type:luminance" maskUnits="userSpaceOnUse" x="426" y="81" width="237" height="145">
<path d="M663 81H426V226H663V81Z" fill="white"/>
</mask>
<g mask="url(#mask0_430_12114)">
<path d="M444.209 83.6987H426V223.464H444.209V83.6987Z" fill="white"/>
<path d="M511.994 172.478H502.619C483.252 172.478 467.498 156.415 467.498 136.667V83.6553H521.38C540.748 83.6553 556.501 99.7182 556.501 119.466V131.662H538.292V119.466C538.292 109.961 530.703 102.222 521.38 102.222H485.707V136.667C485.707 146.173 493.297 153.912 502.619 153.912H511.994V172.478ZM558.319 187.533V170.853C558.319 151.104 542.566 135.042 523.198 135.042H511.994V153.608H523.198C532.52 153.608 540.11 161.347 540.11 170.853V187.533C540.11 197.039 532.52 204.778 523.198 204.778H485.707V175.359H467.498V223.344H523.198C542.566 223.344 558.319 207.281 558.319 187.533Z" fill="white"/>
<path d="M620.332 226H617.303C593.779 226 574.635 206.48 574.635 182.494V124.496C574.635 100.51 593.779 80.9893 617.303 80.9893H620.332C643.856 80.9893 663 100.51 663 124.496H644.791C644.791 110.752 633.821 99.5668 620.343 99.5668H617.314C603.835 99.5668 592.865 110.752 592.865 124.496V182.494C592.865 196.237 603.835 207.423 617.314 207.423H620.343C633.821 207.423 644.791 196.237 644.791 182.494H663C663 206.48 643.856 226 620.332 226Z" fill="white"/>
</g>
</g>
</g>
<defs>
<clipPath id="clip0_430_12114">
<rect width="1088" height="687.962" fill="white"/>
</clipPath>
<clipPath id="clip1_430_12114">
<rect width="237" height="145" fill="white" transform="translate(426 81)"/>
</clipPath>
</defs>
</svg>
