<svg width="1000" height="1000" viewBox="0 0 1000 1000" fill="none" xmlns="http://www.w3.org/2000/svg">
<g clip-path="url(#clip0_407_11848)">
<circle cx="500" cy="500" r="500" fill="#DCE4E6"/>
<path d="M347.333 63.3333C327.6 70.2666 327.467 100.533 347.067 109.467C354.133 112.533 359.2 112.667 366 109.467C375.867 104.933 380.8 98.5333 382 88.8C384.667 69.6 366.667 56.5333 347.333 63.3333Z" fill="#132C3B"/>
<path d="M632.933 63.1999C623.067 66.9333 618.667 73.5999 618.667 85.3333C618.667 100.933 632 113.467 646.267 111.333C652.933 110.4 662 104 665.733 97.7333C671.467 87.7333 666.933 71.5999 656.667 65.4666C650.4 61.7333 639.467 60.7999 632.933 63.1999Z" fill="#132C3B"/>
<path d="M470 68.1333C453.6 69.3333 412.667 74.8 400.533 77.4667L393.867 78.9333V87.2C393.733 98.1333 389.467 107.867 381.6 114.667C378.267 117.6 375.2 120 374.667 120C374.267 120 376.4 127.733 379.733 137.2L385.6 154.4L390 153.733C392.4 153.333 397.733 154 402 155.333C408 157.067 411.2 159.067 416.533 164.4L423.333 171.333L439.333 168.267L455.333 165.067L458.267 155.467C462.4 141.867 468.667 134.533 480.8 128.4C489.6 124.133 491.733 123.6 500.8 123.733C509.467 123.733 512.4 124.533 519.467 128C524.533 130.4 530 134.533 533.2 138.133C538.4 144 544 156.133 544 161.333C544 164 545.067 164.533 556 166.533C560 167.333 566.8 168.8 570.933 169.867L578.533 171.733L581.733 166.8C586.4 159.733 597.333 154.267 607.333 153.867L615.333 153.6L620.933 138.4C626.667 122.933 627.6 118.667 625.333 118.667C624.667 118.667 621.467 116.4 618.4 113.6C610.8 106.8 606.667 97.4667 606.667 87.2V78.9333L591.067 76C547.2 67.8667 509.2 65.4667 470 68.1333Z" fill="#132C3B"/>
<path d="M304 111.2C283.2 122.267 263.867 133.733 253.333 141.2C247.6 145.2 246.133 147.067 246.267 149.467C247.6 162.133 246.8 171.867 244 178.4C242.4 182.133 240.267 186 239.2 186.8C238.133 187.6 237.333 189.067 237.333 190C237.333 190.8 247.333 202.533 259.467 215.867L281.733 240.133L286.533 235.6C297.6 225.2 324 208 346.533 196.667L358.267 190.8L359.067 183.333C360 174.8 364.8 165.467 370.667 161.067C375.333 157.733 375.467 158.533 367.6 138.533L362.133 124.267L354.4 123.467C350.133 123.067 344.667 121.867 342.133 120.8C336.133 118.267 327.333 110.267 325.333 105.333C324.4 103.067 323.333 101.333 322.8 101.467C322.4 101.467 313.867 105.867 304 111.2Z" fill="#132C3B"/>
<path d="M675.333 106.267C669.867 116.4 656.667 124 644.667 124H639.067L632.8 139.867C629.467 148.667 626.667 156.4 626.667 157.067C626.667 157.6 628.533 159.867 630.8 162.133C636.933 168 641.333 176.267 642.267 183.733L643.067 190.533L663.867 202.267C675.333 208.667 691.733 219.333 700.533 226C709.2 232.533 716.933 238.533 717.867 239.067C719.467 240.4 735.067 225.067 753.867 203.867C763.733 192.667 765.6 189.067 762.533 187.2C761.733 186.8 759.333 182.667 757.2 178.133C752.933 169.2 752.133 159.867 754.933 152C756.4 147.733 756.133 147.333 752.133 143.867C745.867 138.667 709.733 117.467 692.533 108.933L677.867 101.6L675.333 106.267Z" fill="#132C3B"/>
<path d="M189.333 131.467C176.667 136.933 169.333 147.867 169.333 161.467C169.333 174 175.2 184.133 185.867 189.733C193.6 193.867 209.067 193.867 216.8 189.733C231.2 182.133 237.733 166 233.067 150.133C230.933 142.933 221.067 133.067 213.867 130.933C206.4 128.8 195.067 128.933 189.333 131.467Z" fill="#132C3B"/>
<path d="M786.133 131.2C764.933 139.067 760 168.933 777.467 184.533C788.667 194.533 801.2 196 814.8 188.933C821.333 185.6 824.133 183.2 827.333 178.133C830.933 172.267 831.333 170.4 831.333 161.333C831.333 152.267 830.933 150.4 827.333 144.533C821.333 134.933 812.8 130.133 800.8 129.733C795.067 129.467 789.333 130 786.133 131.2Z" fill="#132C3B"/>
<path d="M493.333 139.867C478 144.533 469.733 158 472.133 173.867C474.4 187.6 485.733 197.333 499.6 197.333C515.2 197.333 525.733 188.667 529.333 172.933C530.933 165.467 528.267 155.467 523.067 149.2C516.267 141.2 502.933 136.933 493.333 139.867Z" fill="#132C3B"/>
<path d="M384.667 168.667C381.733 169.733 379.2 170.667 379.067 170.667C378.267 170.667 372.933 180.667 372 184.267C370.267 189.867 372.533 198.267 377.067 203.067C386.667 213.2 405.067 209.467 410.933 196.267C418.4 179.6 401.867 162.267 384.667 168.667Z" fill="#132C3B"/>
<path d="M600 169.6C584.4 177.6 583.733 196.267 598.533 206.267C604 210 610.667 210.133 618.267 206.8C624.667 203.867 628 199.467 629.333 192C632.4 175.333 614.933 162 600 169.6Z" fill="#132C3B"/>
<path d="M444.667 179.333C425.333 182.933 426.133 182.4 425.2 191.6C424.267 202 419.333 210.533 411.333 215.6C408.133 217.6 405.467 219.867 405.333 220.533C405.333 221.067 408.4 230.933 412 242.533C415.733 254 420.933 270.8 423.467 280C427.733 294.933 428.667 296.933 431.867 298.4C442.933 303.333 439.333 320 427.333 320C418.533 320 413.467 310.933 417.467 302.267C418.667 299.6 417.2 294 408.667 267.2C403.067 249.733 397.2 232.533 395.733 229.2C393.333 223.333 392.8 222.933 387.067 222.133C377.467 220.8 364.667 212 362.4 205.067C360.933 200.8 292 244.4 292 249.733C292 250.267 298.667 258.533 306.933 267.733C316.533 278.8 322.533 284.533 323.867 284.133C325.067 283.867 329.333 283.6 333.467 283.6C342.267 283.333 353.333 288.533 358.667 294.933C362.533 299.867 366.533 310.933 366.667 316.8C366.667 321.867 363.6 330.933 360.133 335.733L357.6 339.333L367.6 351.2L377.467 362.933L374.533 366.133C369.733 371.2 372.667 369.867 380.667 363.333C404.4 344 439.867 328 469.067 323.333L474.667 322.4V335.6V348.667L464.8 352.533C454.267 356.533 438.933 365.733 437.733 368.8C436.8 371.467 435.2 371.067 431.467 367.333C426.533 362.4 418.667 362.667 414.133 368C409.867 373.067 410.8 376.267 420.133 387.733C426.667 395.867 426.8 396.267 424.8 399.333C423.6 401.2 421.467 402.667 420.133 402.667C418.533 402.667 412.933 397.333 405.867 388.933C399.333 381.467 392.4 373.733 390.533 371.6C383.6 364.667 373.333 368.4 373.333 377.867C373.333 381.6 374.267 383.333 378.133 386.533C382.667 390.133 406.667 418.4 406.667 420C406.667 420.4 404.667 423.067 402.267 425.867L397.733 431.067L371.6 416.533C357.2 408.533 345.333 401.467 345.333 400.8C345.333 399.067 353.867 388.533 362.933 379.333L370.667 371.2L366.533 367.333C364.267 365.067 359.467 359.6 355.867 355.067C349.467 347.067 349.2 346.933 344.933 348.133C337.6 350.267 326 349.733 319.733 346.933C308 341.733 300 329.6 300 316.8C300 311.333 306.267 295.867 309.2 294.133C310 293.6 310.667 292.667 310.667 292C310.667 291.333 304 283.2 295.733 274L280.8 257.333L274.267 263.6C250.4 287.067 210.133 342.933 213.467 348.133C214.133 349.2 214.667 353.067 214.667 356.8C214.667 366.267 208.933 375.2 201.867 376.933C197.067 378 196.533 378.667 192.933 388C187.333 402.533 180.667 426.933 178 442.267L175.6 455.467L179.067 460.8C180.933 463.6 182.933 467.733 183.467 469.733C184.267 473.333 184.533 473.467 192.933 473.067L201.6 472.667L203.333 467.6C206 459.867 211.333 453.867 218.933 450.133C236.133 441.6 255.2 449.333 262.267 467.733C264.8 474.267 263.067 473.733 291.333 477.333C303.067 478.8 315.067 480.4 318 480.667C328.133 482 343.333 484.133 346.667 484.8C348.533 485.2 352.667 485.733 356 486.133C363.867 487.067 366 489.2 364.4 494.267C363.333 497.2 362.267 498 359.2 497.867C354.933 497.733 344.8 496.533 333.333 494.667C329.333 494 323.6 493.2 320.667 492.8C306.533 491.067 272.267 486.533 268.533 486C264.667 485.333 264.267 485.6 262.933 490.533C261.067 496.4 251.733 505.867 244.667 508.8C242.133 509.867 237.067 510.667 233.333 510.667C218.667 510.667 206.533 501.2 202.133 486.267C201.6 484.4 199.867 484 192 484C186.933 484 182.667 484.533 182.667 485.2C182.667 485.733 180.533 488.267 178 490.8L173.2 495.333L173.467 514C173.733 530.267 177.067 564 179.333 572.933C179.733 574.667 180.8 576 181.733 576C182.667 576 185.6 577.867 188.267 580L193.067 584L210.267 579.2C219.6 576.533 230 573.6 233.333 572.8C238.667 571.2 239.333 570.533 240.267 566.133C245.733 540.133 273.067 525.6 296.667 536.533C305.333 540.4 316.8 551.333 318.133 556.933C318.8 559.2 319.733 560 321.2 559.467C344.267 552.133 357.867 548 359.2 548C360.133 548 362.8 546.533 365.333 544.667C367.867 542.8 371.6 541.333 373.6 541.333C383.067 541.333 387.867 555.333 380.533 561.2C376.667 564.133 372 564.8 368.133 562.8C366.533 561.867 360.133 563.467 344.8 568.667C333.2 572.533 323.6 576 323.467 576.267C323.2 576.4 322.267 579.6 321.467 583.333C318 597.333 306.933 609.867 294.4 614.133C282.133 618.133 265.067 614.933 254.533 606.4C250.4 603.067 242.933 592 242 588C241.467 585.867 240.4 584 239.6 584C238.667 584 228.533 586.533 216.933 589.6C197.6 594.933 195.867 595.6 195.2 598.667C194.8 600.533 193.2 604.533 191.6 607.6L188.8 613.2L195.867 630.933C212.4 672 227.333 697.733 253.6 730C269.6 749.733 271.6 752 272.533 752C273.333 752 297.6 724.267 305.067 714.933L310.533 707.733L305.6 700.4C300.933 693.333 300.667 692.267 300.667 682C300.667 672.267 301.067 670.4 304.667 664.667C309.867 656.267 317.333 651.067 327.067 649.067C334 647.6 335.733 647.733 342.533 650.133L350.267 652.8L356.933 645.467C360.533 641.333 363.867 637.333 364.4 636.4C365.067 635.467 362.533 631.733 358.4 627.333C350 618.267 337.733 602 336.533 598.4C336.133 596.933 336.267 595.333 336.933 594.667C339.333 592.533 365.6 582.667 369.2 582.667C374.933 582.667 377.333 586.4 377.333 594.933C377.333 601.733 376.933 602.8 372.667 607.067C367.2 612.533 366.933 614.133 371.067 620.133C373.067 623.2 375.733 625.067 379.067 625.867L384 627.2V636.933C384 646.667 383.067 648.4 380 644.667C379.067 643.6 378 642.667 377.467 642.667C376.933 642.667 372.533 647.2 367.6 652.667L358.533 662.667L361.6 666.667C365.067 671.467 366.4 684.4 364.133 692.667C362.133 700 355.6 707.467 347.467 711.6C342 714.4 338.667 715.067 330.8 715.2L321.067 715.333L306.133 732.667C291.2 750.133 282.667 760.667 282.667 761.733C282.667 762.8 303.867 780.267 314.8 788.4C325.2 796 363.733 820 365.6 820C366.133 820 369.2 818.133 372.533 815.867C376.667 812.8 380.533 811.467 385.333 810.933C392.133 810.267 392.4 810.133 394.933 804.533C396.8 800.133 397.067 798 396 796.133C393.333 790.933 394.4 784.133 398.533 779.867C400.667 777.733 403.333 776 404.267 776C405.467 776 408.4 769.467 412.4 758.267C418 742.4 418.533 739.867 417.733 732.933C417.067 726.133 417.333 724.933 420 722C426.4 715.2 437.067 717.2 439.867 725.733C442.267 732.667 438.4 739.6 431.2 741.867C429.067 742.533 427.067 746.8 422.133 761.467C416.533 777.333 415.867 780.667 417.2 783.467C420.8 791.467 417.467 800.267 410 802.133C407.867 802.667 406.133 804.667 404.667 808.267L402.533 813.733L407.867 818.8C411.2 822.133 413.733 826.133 414.8 829.6C415.6 832.8 416.533 836 416.667 836.8C416.933 837.6 418.8 838.667 420.933 839.067C422.933 839.467 430.133 841.067 436.667 842.4C443.333 843.867 451.2 845.333 454.133 845.867L459.6 846.667L462 840.667C465.2 832 474.667 823.467 485.6 818.933L494.667 815.333V799.067V782.933L490 781.333C479.333 777.867 471.067 763.333 472.933 751.733C474.133 743.733 480.933 734.667 488.4 730.933L494.667 727.6V717.867V708H500H505.333V717.6L505.467 727.333L512.4 731.333C533.467 743.6 532.933 770.4 511.467 781.2L505.2 784.267L505.467 800.133C505.6 814.267 505.867 816 507.867 816C512.133 816 526.4 824 530.533 828.8C532.8 831.333 536.133 836.267 537.867 839.867L541.2 846.267L548.267 845.2C555.067 844.267 568.4 841.467 579.067 838.533C582.667 837.6 584 836.533 584 834.667C584 830.133 589.467 820.133 593.6 816.933C597.333 813.867 597.333 813.867 595.333 808.933C594.133 806 591.6 803.2 588.933 801.867C581.333 797.867 579.6 792.533 582.933 783.067C584.667 778.4 583.867 774.8 575.733 752.533C572.267 742.8 571.467 741.6 567.867 740.8C565.2 740.267 563.333 738.667 561.867 735.467C558.133 727.6 562.267 719.2 570.667 717.867C580 716.4 586.8 726.8 582.133 735.6C581.067 737.867 580.667 740.133 581.2 740.8C581.867 741.467 585.2 749.6 588.667 759.067C592.8 770 595.733 776 596.933 776C598 776 600.667 777.733 602.8 779.867C607.067 784.267 607.867 789.733 604.8 795.733C603.2 798.933 603.333 800 605.467 804.933C607.733 810.133 608.267 810.667 612.667 810.667C618.267 810.667 626.133 813.733 630.267 817.467L633.067 820.267L642.267 815.2C663.867 803.467 688.8 786.4 706.933 770.933C718.533 761.2 718.533 760.933 716.267 758.133C715.067 756.533 706.4 746.267 697.067 735.2L680.133 715.2H669.067C656.8 715.2 652.533 713.733 645.467 706.533C634.933 696.133 632.533 682.4 638.8 669.733C642.533 662 642.933 663.2 632.133 650.8C624.933 642.667 624.133 642.267 618.267 644.667C616.133 645.6 615.867 644.933 616.267 636.667L616.667 627.6L622 625.733C633.067 622 635.467 612.933 627.333 605.467C623.2 601.733 622.667 600.533 622.667 594.667C622.667 587.067 625.867 582.667 631.333 582.667C636 582.667 665.333 594.8 665.333 596.667C665.333 599.333 652.267 617.067 643.067 626.8L634.267 636.133L642.667 644.667L650.933 653.067L655.6 651.067C661.733 648.533 674.133 648.533 680 650.933C685.867 653.467 693.6 661.067 696.8 667.6C698.667 671.2 699.333 675.6 699.333 682.8C699.333 691.867 698.933 693.6 695.067 699.867C692.667 703.733 690.667 707.2 690.667 707.733C690.667 708.267 692 710.133 693.733 712C695.333 713.867 699.733 718.933 703.333 723.467C707.067 727.867 713.067 735.2 716.933 739.733C720.667 744.267 724.533 749.067 725.2 750.267C726.533 752.4 727.733 751.6 735.467 743.333C745.733 732.533 768.4 702.4 777.733 687.2C790 667.2 815.067 612 812 612C810.133 612 808 607.2 806.933 601.067L806 595.467L787.333 590.4C759.067 582.667 760.8 582.8 758.933 588.8C755.467 599.867 744.933 610.533 733.467 614.4C727.6 616.533 714 616.4 708 614.133C700.533 611.467 690.933 604.267 686.933 598.4C685.067 595.467 682.133 589.067 680.533 584.267L677.733 575.467L658.533 569.067C641.333 563.2 638.533 562.667 631.333 563.333C624.4 564.133 622.933 563.867 620.4 561.467C616.267 557.467 615.333 553.067 617.867 548.133C621.467 541.2 629.067 539.067 634.133 543.733C635.467 545.067 640.933 547.2 646 548.667C651.2 550 660.4 552.8 666.533 554.933C680.133 559.467 681.867 559.467 683.6 555.6C684.4 554 687.733 549.6 691.2 545.733C710 524.933 744.267 530.4 757.2 556.267C759.467 560.667 761.333 566 761.333 568C761.333 571.2 762 571.6 770.4 573.733C775.333 574.933 786.133 577.733 794.533 580L809.6 584L814 580.133C816.4 578 819.067 576.133 819.867 575.867C822.8 574.8 827.467 538.267 827.867 511.733L828.133 494.8L822.667 489.333L817.2 483.867L808.667 484.667L800.267 485.6L798 491.333C791.6 508.267 771.733 515.6 754.933 507.2C747.467 503.467 742.667 498.267 739.333 490.267C738.267 487.6 736.667 485.333 736 485.333C735.333 485.333 728.533 486.133 721.067 487.2C697.733 490.533 667.6 494.667 661.333 495.333C658 495.733 651.733 496.533 647.333 497.2C642.933 497.867 638.8 497.867 638.267 497.333C637.6 496.8 637.333 494.4 637.6 491.867L638 487.467L648 485.867C653.467 485.067 661.333 484 665.333 483.467C701.067 479.2 732.267 474.667 735.467 473.467C737.067 472.8 738.8 470 739.867 466.8C741.733 460.133 749.867 451.6 756.8 448.667C759.467 447.6 764.933 446.667 768.8 446.667C782.533 446.667 793.6 454.8 798.4 468.4C800.667 474.8 800.8 474.933 805.333 474.133C807.867 473.733 811.6 473.333 813.6 473.333C816.4 473.333 817.467 472.4 818.667 468.8C819.467 466.267 821.467 462.533 822.933 460.533L825.733 457.067L822 437.467C819.867 426.667 815.2 409.2 811.467 398.267C804.667 378.533 804.667 378.4 799.6 376.667C793.067 374.4 791.333 372.8 788.133 366.133C785.067 359.867 784.533 352 786.933 348.133C788.267 345.867 787.2 343.467 778.8 330.667C773.6 322.4 765.067 310.133 760 303.467C750.4 290.667 722 259.333 720 259.333C719.467 259.333 712.267 266.533 704.267 275.2L689.6 291.2L693.733 297.2C705.2 314 700.933 334.8 684 344.933C677.867 348.667 675.467 349.333 668.533 349.333C663.867 349.333 658.667 348.8 656.8 348C653.733 346.933 652.533 347.733 642.133 359.067L630.8 371.333L639.2 380C647.2 388.133 654.667 398 654.667 400.267C654.667 401.6 648.267 405.6 625.2 418.533C614.4 424.4 604.933 429.333 603.867 429.333C601.6 429.333 594.667 422.667 594.667 420.4C594.667 418.133 618.8 389.467 623.867 385.6C633.333 378.667 623.867 362.133 614 368.533C612.4 369.6 605.467 377.067 598.667 384.933C581.867 404.533 581.867 404.4 577.867 401.867C573.467 398.933 573.867 395.6 579.067 389.733C581.467 386.933 584.933 382.4 586.533 379.6C589.2 375.333 589.333 374 588 370.8C586.4 366.8 583.333 364.8 576.933 363.333C573.733 362.667 572.4 363.333 568.8 367.2L564.4 371.733L560.533 368C554.933 362.4 543.067 355.6 533.6 352.667L525.333 350V336.4V322.8L530.4 323.6C555.467 327.2 587.867 340.4 611.333 356.533L621.6 363.6L627.2 357.467C630.267 354.133 635.067 348.533 637.733 345.2L642.667 339.067L638.667 331.333C630 314.8 636.4 294.8 653.333 285.867C656.667 284 660.933 283.333 668.667 283.333L679.333 283.2L693.333 268.133C701.067 259.867 708 252.267 708.667 251.2C709.733 249.6 708.933 248.267 705.333 245.2C697.467 238.533 671.467 221.733 654.933 212.667L639.333 204L634.933 209.333C629.2 216.133 623.467 219.6 614.533 221.467C610.533 222.267 606.933 223.733 606.4 224.533C605.2 226.133 592.533 265.2 586 286.8C582.4 298.933 582 301.333 583.6 303.467C586.267 307.067 585.733 311.467 582.133 315.6C577.867 320.533 568.933 320.8 565.2 316.133C561.067 311.067 561.867 305.733 567.733 300.267C573.067 295.2 571.467 299.333 590.933 236.667C594 226.4 595.733 219.2 594.933 218.933C590.667 217.6 582.4 210 579.2 204.533C576.4 199.733 575.467 196.4 575.467 190.533L575.333 182.933L561.067 180C546.267 176.8 542.667 177.067 542.667 180.933C542.667 185.2 534.933 196.8 528.533 202.533C524.4 206.133 519.467 208.933 514.133 210.533L506 213.067L505.6 229.467C505.067 250.533 505.733 254.133 510.133 255.2C515.333 256.533 523.6 264.933 526.133 271.467C531.067 284.4 524.933 300.4 512.667 306.667L506 310L506.667 330.667C507.067 342 507.867 352.4 508.533 353.733C511.333 359.733 504.533 367.733 498 366.133C495.867 365.6 493.733 363.467 492.4 360.8C490.533 356.667 490.533 356 492.533 352C494.133 348.533 494.667 343.467 494.667 328.533V309.333L489.733 307.333C477.067 302 469.6 286.933 473.2 273.867C475.067 266.933 482.4 258.533 489.2 255.333L494.667 252.933V232.4C494.667 212.667 494.533 212 491.867 212C481.733 212 463.733 196.533 459.2 184C457.867 180.4 456.133 177.467 455.467 177.467C454.667 177.6 449.733 178.4 444.667 179.333ZM247.067 373.333L260.133 380L264.133 376.933C274.667 369.2 290.133 376.667 291.333 390.133C291.6 392.8 292 395.067 292.267 395.2C292.533 395.333 295.2 397.067 298.267 399.2C302.933 402.267 304.267 402.667 306.667 401.333C310.667 399.2 318.133 400.8 320.667 404.4C322.933 407.733 323.333 414.933 321.2 418.933C319.2 422.667 311.867 425.467 307.2 424.267C304.4 423.467 302.533 421.6 300.667 417.733C297.067 410.133 288.533 403.467 284 404.667C282.133 405.2 277.6 405.867 273.867 406.267C267.6 406.8 266.8 406.533 262.933 402.667C260.667 400.4 258.4 396.533 257.867 393.867C257.067 389.333 256.267 388.8 243.2 382.667C235.6 379.067 229.333 375.867 229.333 375.6C229.333 373.867 232.4 366.667 233.067 366.667C233.6 366.667 239.867 369.733 247.067 373.333ZM770.533 371.733L773.067 376.8L759.6 382.667C747.2 388.133 746 389.067 744.933 393.2C743.2 400.267 740.267 403.733 734.133 406C729.067 408 728 408 722.667 406.133C716.8 404.133 716.533 404.133 710.133 407.867C705.6 410.4 703.067 412.8 702.267 415.467C700.133 421.867 697.467 424 691.6 424C684.533 424 680 420 680 413.733C680 407.867 681.867 404.533 686.4 402.133C689.467 400.533 690.8 400.533 695.067 402C699.867 403.6 700.4 403.6 705.733 399.467C710.4 395.867 711.467 394.267 712.133 389.067C713.467 380.4 716.4 376.533 723.333 374.8C729.067 373.333 732.4 373.867 739.333 377.467C741.6 378.533 744.533 377.6 754.667 372.8C761.6 369.467 767.467 366.667 767.6 366.667C767.867 366.667 769.067 368.933 770.533 371.733ZM519.867 394.533C529.333 399.467 539.2 409.733 543.333 418.933C546.533 426.133 546.933 428.267 546.4 437.867C545.733 450.533 542.8 457.067 533.733 466.8C510.267 491.867 468.133 482.8 456.533 450.267C453.6 442.133 454 428.533 457.333 419.733C462 407.2 475.067 394.933 487.067 391.867C489.467 391.333 496.4 390.933 502.667 391.2C511.333 391.467 515.333 392.267 519.867 394.533ZM669.067 421.2C670 424 670.667 426.667 670.667 427.067C670.667 427.467 664.267 431.2 656.4 435.467C648.4 439.6 637.467 445.733 631.867 448.933C626.267 452 621.2 454.667 620.533 454.667C619.867 454.667 618.133 452.8 616.8 450.4C614.267 446.133 614.267 446.133 617.333 444.133C618.933 442.933 630 436.8 641.867 430.267C653.6 423.867 663.867 418 664.533 417.333C666.8 415.067 667.467 415.733 669.067 421.2ZM385.867 445.333C387.6 446.933 384.133 454.667 381.733 454.667C380.667 454.667 376 452.667 371.6 450.267C367.067 447.733 356 442 347.067 437.333C330 428.533 329.067 427.6 332.133 420.933L333.6 417.733L359.067 431.067C373.2 438.267 385.2 444.8 385.867 445.333ZM344.4 457.2C361.867 465.467 364 466.8 364 469.867C364 471.733 363.333 473.6 362.533 474.133C361.067 475.067 316.267 465.6 314.267 464C313.733 463.467 314.4 460.133 315.733 456.533C317.067 452.933 318.667 448.933 319.067 447.6C319.733 445.733 320.533 445.467 322.4 446.533C323.733 447.2 333.733 452 344.4 457.2ZM684.4 455.333L687.867 465.333H684.533C682.8 465.333 672.267 467.467 661.067 470.133L640.667 474.933L638.4 472C637.2 470.533 636.4 468.533 636.8 467.6C637.333 466.267 677.733 445.6 680.267 445.333C680.667 445.333 682.667 449.867 684.4 455.333ZM530 505.333C560.4 515.067 580.267 532.667 589.6 558.4C592.267 565.733 592.4 568.267 592.133 621.333L591.867 676.667L606.533 697.333C614.667 708.667 621.067 718.533 620.8 719.333C620.4 720.933 613.733 724.8 612.933 724C612.267 723.2 582.267 682.133 582 681.6C581.867 681.467 577.733 683.067 572.8 685.333C567.733 687.467 563.2 689.333 562.533 689.333C561.733 689.333 561.333 669.067 561.333 637.6C561.467 609.2 561.067 584.933 560.533 583.6C560 582.267 558.133 580.533 556.267 579.867C551.733 578.133 547.333 581.2 546.133 586.8C545.733 589.067 545.333 614.933 545.333 644V697.067L541.733 697.867C532.533 699.733 514 702.667 511.2 702.667C508.133 702.667 508 702.133 508 694.933C508.133 690.4 508.8 686.267 510 684.8C515.067 678.133 509.467 669.333 500.267 669.333C496.667 669.333 494.4 670.267 492.4 672.267C488.533 676.667 488.133 678.667 490.133 683.867C491.2 686.267 492 691.6 492 695.6V702.933L487.067 702.133C484.267 701.733 478.4 701.067 474 700.667C469.6 700.133 463.467 699.2 460.4 698.4L454.667 697.067V640.8C454.667 610 454.133 584 453.6 583.2C451.333 579.733 446.8 578.533 442.933 580.267L439.333 582L438.933 635.733C438.667 681.867 438.4 689.333 436.667 689.333C435.6 689.333 431.067 687.6 426.667 685.467L418.667 681.467L406.267 697.733C399.6 706.667 392.4 716.267 390.267 718.933C386.533 724.267 382.8 725.333 380 722C378.267 719.867 381.333 714.8 399.333 690L408 678V626.667C408 598.4 408.667 571.467 409.333 566.8C412.8 542.533 432.933 519.333 460.133 508.4C473.6 502.933 484.267 501.333 503.333 501.867C516.667 502.267 522.8 503.067 530 505.333ZM348.667 512.267C355.333 512.933 361.067 513.867 361.733 514.267C362.933 515.067 362.933 524.933 361.6 525.733C359.867 526.933 327.2 533.2 318.4 534.133L309.733 534.933L309.467 522L309.2 508.933L322.933 509.867C330.533 510.4 342.133 511.467 348.667 512.267ZM691.467 521.6C690.933 528.4 690.267 534.267 689.867 534.667C688.8 535.6 646.8 528.133 642.8 526.267C640 524.933 639.333 523.733 639.333 519.333C639.333 514.4 639.6 514 644 513.067C646.533 512.533 655.333 511.6 663.333 511.2C671.467 510.667 678.267 510.133 678.533 509.867C678.8 509.6 682.133 509.333 685.733 509.333H692.4L691.467 521.6ZM371.733 738.933C378 744.933 373.6 757.333 365.2 757.333C359.733 757.333 357.467 756.133 355.2 751.733C352.533 746.667 353.867 740.8 358.4 737.333C362.4 734 367.067 734.667 371.733 738.933ZM643.733 738.667C648.133 742.8 648.8 747.6 645.733 751.733C637.733 762.533 622.533 755.867 626.667 743.333C627.467 740.8 629.2 738.133 630.4 737.333C634.133 735.2 640.667 735.867 643.733 738.667Z" fill="#132C3B"/>
<path d="M220.267 202.267C212.267 206.933 200.267 207.867 189.867 204.533L182.133 202.133L173.6 211.467C164.4 221.467 136.8 258.533 129.067 271.333L124.133 279.333L127.2 282.667C133.467 289.333 135.2 294.667 135.6 307.333C136 321.467 134.667 320.267 160.667 333.467L176.8 341.867L181.467 338.533C185.2 336 187.467 335.333 193.6 335.6L201.2 335.733L214 316.533C229.067 293.867 242.4 277.467 259.6 260.267L272.133 247.867L262.267 236.933C256.8 230.933 246.4 219.867 239.2 212.4L226 198.933L220.267 202.267Z" fill="#132C3B"/>
<path d="M768.267 205.6C760.933 213.6 734.533 242.8 731.467 246.4L728.933 249.333L743.6 264.4C761.333 282.4 771.2 294.933 787.067 318.667C795.6 331.467 799.6 336.533 801.2 336.133C807.6 334.533 814.8 335.867 819.2 339.2L823.867 342.667L836.933 335.733C844.133 332 852.8 327.2 856.4 325.067C859.867 323.067 863.333 321.333 863.867 321.333C864.4 321.333 864.933 315.733 864.8 308.933C864.667 295.867 866.8 289.2 873.2 283.467C874.8 282 876 280.133 876 279.067C876 275.2 844 231.067 826.4 210.4L818.8 201.6L811.733 204.267C802.667 207.733 788.667 207.067 780.4 202.933C777.333 201.333 774.533 200 774.133 200C773.733 200 771.067 202.533 768.267 205.6Z" fill="#132C3B"/>
<path d="M82.2666 280.667C74.2666 283.6 69.4666 287.733 66.1333 294.4C61.3333 304 60.6666 310.267 63.8666 318.8C68.9333 332.4 82.2666 341.067 95.3333 339.333C104.133 338.267 113.333 332.667 118.133 325.333C122.533 318.8 123.867 307.067 121.333 299.333C116.267 284.133 97.4666 275.2 82.2666 280.667Z" fill="#132C3B"/>
<path d="M899.067 280.533C891.067 283.067 885.867 287.333 881.733 294.4C876.533 303.2 876.533 315.6 881.733 324.4C886 331.467 892.933 336.533 901.733 338.8C913.467 341.733 927.2 335.2 933.867 323.467C938.133 316.267 939.2 310.133 937.333 302.133C933.6 285.467 915.467 275.2 899.067 280.533Z" fill="#132C3B"/>
<path d="M125.333 337.6C118.8 345.067 106.133 352 99.2 352C96.9333 352 94.4 352.8 93.6 353.6C90.8 357.2 82.1333 382.933 77.3333 402C70.6666 428.4 67.2 448.933 66.4 467.333L66 475.333L102.933 475.733L139.867 476L141.467 470.4C144.133 460.133 151.2 453.333 159.067 453.333C162 453.333 162.4 452.667 163.2 445.067C164.267 434.267 170.4 411.2 177.467 391.467L182.933 376L179.333 372.267C174.933 368 172 361.6 172 356.4C172 352.4 173.867 353.6 142.667 336.933L131.333 330.933L125.333 337.6Z" fill="#132C3B"/>
<path d="M859.333 336.8C853.467 340.133 844 345.333 838.267 348.267C830.4 352.133 828 354 828.533 355.6C830 359.333 826.667 367.6 822 372.267L817.333 376.8L821.333 386.267C826.533 398.8 834 424.667 836.8 440.533C838.933 452.533 839.333 453.333 842.267 453.333C850 453.333 857.733 460.8 859.733 470.133L860.8 475.333L897.867 475.733L935.067 476L934.133 466.4C933.6 461.067 932.667 453.6 932 450C931.333 446.267 929.867 437.067 928.667 429.333C926.133 413.2 916.667 377.067 911.067 362.533L907.333 352.667L900.933 351.733C889.867 350.267 877.867 342.667 872 333.6L870 330.667L859.333 336.8Z" fill="#132C3B"/>
<path d="M224.4 466.667C219.2 469.867 217.333 473.067 217.333 479.333C217.333 492.267 236 498.133 244.533 487.867C250.667 480.667 247.867 469.467 239.333 465.867C233.2 463.333 229.467 463.467 224.4 466.667Z" fill="#132C3B"/>
<path d="M759.333 468.4C755.733 472 754.667 474.133 754.667 478C754.667 487.467 760.133 493.2 769.2 493.333C774 493.333 775.733 492.533 779.467 488.8C788.667 479.6 783.6 465.867 770.267 464.4C764.533 463.733 763.733 464 759.333 468.4Z" fill="#132C3B"/>
<path d="M140.8 486.4C140.267 486.8 122.933 487.467 102.267 487.867L64.6666 488.667L64.2666 497.333C63.6 510.267 66.4 551.467 69.3333 572C73.7333 601.733 73.6 601.333 79.0666 601.333C87.3333 601.333 100.8 609.733 107.067 618.667L109.333 622L131.2 611.067C150.133 601.467 153.067 599.6 153.067 596.933C153.067 590.8 156.133 584.133 161.2 579.6L166.267 574.933L164.533 565.6C161.6 550.133 158.667 521.867 158.667 509.333V497.6L154 496C151.6 495.2 147.733 492.533 145.467 490C143.333 487.6 141.2 485.867 140.8 486.4Z" fill="#132C3B"/>
<path d="M853.733 491.2C851.467 493.733 847.733 496.133 845.6 496.667L841.733 497.467L840.8 521.067C840.4 534 838.933 551.733 837.6 560.4C835.333 575.333 835.333 576 837.6 576.8C842 578.133 847.067 586.4 847.733 593.333L848.267 599.867L869.6 610.8L890.933 621.6L898.4 614.133C906.533 606 914.667 601.333 920.933 601.333C924.667 601.333 925.2 600.8 926.4 595.6C928.667 586.667 931.733 566.933 932.8 555.333C933.2 549.467 933.867 543.6 934.133 542.133C934.4 540.8 934.933 528.133 935.467 513.867L936.4 488H921.067C912.667 488 895.067 487.733 881.867 487.333L858 486.533L853.733 491.2Z" fill="#132C3B"/>
<path d="M273.733 549.333C260 552.533 251.333 569.6 256.533 583.067C262.8 599.467 281.333 605.067 296.267 595.2C309.2 586.8 310.267 566 298.4 555.067C294.933 551.733 285.2 547.867 280.8 548.133C279.333 548.267 276 548.8 273.733 549.333Z" fill="#132C3B"/>
<path d="M716.667 548.667C716 548.933 713.733 549.467 711.733 549.867C699.067 552.667 691.067 571.333 696.667 585.067C700.933 595.2 708.133 600 718.933 600C733.333 600 745.067 589.867 746.4 576.267C747.6 563.2 737.067 550.667 723.333 548.933C720.4 548.533 717.467 548.4 716.667 548.667Z" fill="#132C3B"/>
<path d="M135.333 622L114 633.2L114.4 641.2C115.067 652.4 111.867 661.067 103.867 669.867C100.267 673.867 97.3333 677.867 97.3333 678.933C97.3333 681.333 123.6 734.667 124.8 734.667C125.2 734.667 141.067 723.067 159.867 708.933C178.8 694.933 196 682.133 198 680.533L201.867 677.867L195.067 663.867C191.333 656.267 185.467 642.667 181.867 633.6C176.4 620 174.933 617.333 172.667 617.333C171.067 617.333 166.8 615.867 163.2 614C159.6 612.133 156.667 610.8 156.667 610.8C156.667 610.933 147.067 616 135.333 622Z" fill="#132C3B"/>
<path d="M839.733 613.733C837.733 615.2 833.6 616.8 830.533 617.2L824.933 618L820.667 629.333C814.8 644.933 808.667 658.933 803.333 669.2C799.733 675.867 799.067 678.267 800.267 679.6C801.067 680.667 809.867 687.333 819.867 694.4C829.867 701.6 846.4 713.6 856.533 721.067L875.067 734.667L880.4 725.6C883.333 720.667 890.133 707.733 895.467 696.8L905.2 676.8L900.267 672.533C897.467 670.267 893.467 665.067 891.333 661.2C888 655.067 887.467 652.4 887.333 643.6L887.067 633.333L865.2 622.133L843.333 610.933L839.733 613.733Z" fill="#132C3B"/>
<path d="M57.6 618.133C49.6 622.133 44.5333 629.333 43.2 638.8C40.4 659.467 60.9333 676.533 80.6666 670C92.9333 665.867 101.333 654.8 101.333 642.933C101.333 620.8 78.4 607.733 57.6 618.133Z" fill="#132C3B"/>
<path d="M916.533 617.2C907.2 621.467 900 632.933 900 643.467C900 649.467 905.867 660.4 911.333 665.067C920.667 672.667 934.8 673.2 945.067 666.267C951.333 662 957.467 651.867 957.867 645.067C958.4 638.267 954.667 627.6 950.4 622.933C943.067 614.933 927.333 612.267 916.533 617.2Z" fill="#132C3B"/>
<path d="M169.867 717.467C149.467 732.8 132.8 745.733 132.933 746.267C133.467 748 143.867 763.467 151.067 773.2C159.067 783.733 187.467 816.4 196.667 825.333C200.533 829.2 203.067 830.8 203.733 829.867C204.8 828.133 237.067 791.6 252.933 774.133L263.867 762L257.467 755.333C245.067 742.4 236.133 731.067 221.6 710.4L207.067 689.6L169.867 717.467Z" fill="#132C3B"/>
<path d="M782.267 705.733C771.6 722.133 760.933 735.867 746.267 752.4L736.933 762.8L742.933 769.067C746.133 772.533 755.067 782.533 762.667 791.333C770.267 800.133 779.333 810.4 782.667 814C786 817.733 790.667 823.067 793.067 825.867L797.6 831.067L806.267 822.533C823.6 805.333 852.4 770.133 864.4 751.067L868 745.467L862.267 740.933C854.267 734.4 793.733 690.667 792.8 690.667C792.4 690.667 787.6 697.467 782.267 705.733Z" fill="#132C3B"/>
<path d="M720 777.467C702.267 793.6 666.533 818.133 647.733 827.067L638.8 831.333L638.667 837.333C638.533 844.667 635.067 852.8 629.6 857.733C625.733 861.467 625.733 861.733 627.333 867.067C628.267 870.133 630.933 877.6 633.333 883.6L637.467 894.667H644.4C653.733 894.667 663.333 899.333 670.267 907.2C673.2 910.533 676.133 913.333 676.8 913.333C678.933 913.333 710.267 895.467 728 884C746.133 872.533 762.133 860.8 784.533 843.067L788.267 840.133L776.4 826.933C765.2 814.4 734.933 780 729.733 773.733L727.333 770.8L720 777.467Z" fill="#132C3B"/>
<path d="M249.867 797.467C237.467 811.6 226.667 823.733 226 824.533C219.067 832.133 213.333 839.2 213.333 840.133C213.333 841.6 235.067 858.8 252 870.933C266.533 881.333 288.8 894.667 311.067 906.667L324.267 913.733L330 907.067C336.667 899.467 345.867 894.8 356.8 893.733L364 892.933L366.533 886.133C367.867 882.4 370.4 875.333 372.133 870.4L375.333 861.333L372.4 859.333C367.467 855.867 362.4 845.867 362 839.067L361.867 832.933L343.733 822.667C323.2 810.8 297.2 792.8 283.067 780.4C277.733 775.733 273.2 772 272.933 772C272.667 772 262.267 783.467 249.867 797.467Z" fill="#132C3B"/>
<path d="M381.867 825.067C368.133 833.733 377.067 856.667 392.667 852.8C394.4 852.4 397.6 850.533 399.6 848.8C402.8 846 403.333 844.533 403.333 838.8C403.333 833.067 402.667 831.467 399.333 828C394 822.667 387.467 821.6 381.867 825.067Z" fill="#132C3B"/>
<path d="M601.867 827.2C597.867 831.2 597.333 832.533 597.333 838.4C597.333 844.133 597.867 845.6 601.333 848.4C607.067 853.2 612.4 854.133 617.733 851.067C628 845.067 628.133 829.6 618 824.667C611.067 821.467 606.933 822.133 601.867 827.2Z" fill="#132C3B"/>
<path d="M488.667 833.867C483.6 836.133 476.667 843.467 474.8 848.4C472.667 853.733 473.067 862 475.333 867.733C481.6 882.533 497.867 888.133 512.8 880.667C538.267 867.733 529.067 831.867 500.4 832C496.133 832.133 490.933 832.933 488.667 833.867Z" fill="#132C3B"/>
<path d="M411.333 854.667C408 859.733 397.067 865.333 390.667 865.333H385.867L380.933 880.4C378.267 888.667 376 895.867 376 896.4C376 896.933 378 898.133 380.4 899.067C386.533 901.733 396.667 913.467 399.2 920.933C400.4 924.4 401.333 929.6 401.333 932.8C401.333 937.6 401.867 938.533 405.067 939.733C416.667 944.267 457.6 949.333 490.133 950.267C521.467 951.2 541.733 949.733 571.333 944.667C601.333 939.467 598.133 940.933 599.2 932.267C600.8 918.8 607.867 907.867 621.733 898L625.467 895.333L620.133 881.333C617.2 873.6 614 866.933 613.067 866.4C612.133 865.867 608.4 865.067 604.667 864.667C599.067 863.867 597.067 862.8 591.6 857.333C585.6 851.333 584.933 850.933 580.933 852.133C577.067 853.2 543.6 860 542 860C541.6 860 541.333 862 541.333 864.267C541.2 874.533 529.333 890.4 517.6 896.133C508.533 900.533 492.667 900.533 482.933 896.133C470.8 890.667 458.667 874.133 458.667 863.2C458.667 860.533 457.333 860 446.4 858.133C439.6 856.8 429.6 854.667 424.267 853.2C418.933 851.867 414.533 850.667 414.267 850.667C414.133 850.667 412.8 852.533 411.333 854.667Z" fill="#132C3B"/>
<path d="M351.467 908.8C338.267 913.6 331.333 924 332.267 937.333C333.867 959.333 357.333 970.533 375.733 958.133C386 951.333 390.933 938.933 388 927.867C386 920.667 375.733 910 368.667 908.133C361.867 906.267 357.867 906.4 351.467 908.8Z" fill="#132C3B"/>
<path d="M630 909.2C619.467 914 613.733 921.867 612.4 933.333C611.733 938.8 612.267 941.2 615.333 947.333C621.067 959.333 633.467 965.467 646 962.667C664.133 958.667 673.6 941.6 666.667 925.467C660 910.133 643.733 902.8 630 909.2Z" fill="#132C3B"/>
</g>
<defs>
<clipPath id="clip0_407_11848">
<rect width="1000" height="1000" fill="white"/>
</clipPath>
</defs>
</svg>
