<svg width="270" height="270" viewBox="0 0 270 270" fill="none" xmlns="http://www.w3.org/2000/svg">
<circle cx="135" cy="135" r="135" fill="#DCE4E6"/>
<path d="M111.59 11.3776C112.34 12.276 112.587 12.947 112.521 14.1273C111.857 16.0866 110.048 17.5124 108.645 18.969C104.788 23.3289 102.222 27.994 102.111 33.9027C101.761 35.4167 101.003 36.4029 99.8603 37.4087C98.5797 38.057 98.5797 38.057 97.1401 38.5612C96.6016 38.7615 96.0641 38.9641 95.5273 39.1688C95.2523 39.2734 94.9773 39.3781 94.694 39.4859C84.5172 43.5416 75.7126 50.3118 67.5172 57.4519C69.3177 58.9896 71.2801 60.2105 73.282 61.4606C75.3715 62.7714 77.4551 64.0832 79.4961 65.4692C80.5709 64.9944 81.4429 64.4059 82.3661 63.6904C85.7581 61.2672 89.3889 61.0681 93.4715 61.4606C97.4404 62.4349 100.566 65.6702 102.655 69.077C103.588 70.882 103.607 72.5732 103.604 74.5638C103.604 74.8848 103.604 75.2058 103.603 75.5365C103.555 78.0799 103.035 80.0472 101.857 82.3055C101.587 82.9722 101.321 83.6402 101.058 84.3098C101.285 84.5359 101.513 84.7619 101.747 84.9949C102.791 86.0348 103.834 87.0764 104.876 88.118C105.234 88.4735 105.591 88.829 105.96 89.1953C108.226 91.4621 110.369 93.7877 112.433 96.2396C112.979 96.8856 113.531 97.5255 114.085 98.1647C114.265 98.383 114.446 98.6013 114.631 98.8262C115.223 99.5292 115.223 99.5292 116.231 100.344C117.942 100.361 119.535 99.4328 121.098 98.766C124.475 97.3708 127.321 96.7366 131.005 96.7366C131.005 85.4923 131.005 74.2481 131.005 62.6632C129.82 62.5309 128.634 62.3986 127.412 62.2623C124.091 61.1231 121.234 59.3892 118.627 57.0511C118.353 56.8128 118.079 56.5746 117.796 56.3292C114.094 52.8974 112.282 48.6469 111.041 43.8226C110.97 43.5667 110.9 43.3109 110.828 43.0473C109.602 37.6065 110.735 31.197 113.519 26.4633C116.528 21.9222 119.84 18.8993 124.642 16.4385C124.905 16.3031 125.169 16.1676 125.441 16.028C128.373 14.588 131.094 14.0147 134.35 14.0584C134.647 14.0614 134.945 14.0644 135.251 14.0675C141.749 14.1945 147.882 16.7586 152.642 21.2489C156.693 25.5986 159.445 30.995 159.755 37.0079C159.775 37.2611 159.795 37.5143 159.816 37.7751C160.131 44.5294 157.689 50.6634 153.241 55.648C149.958 59.124 145.965 61.3406 141.387 62.6632C140.728 62.6632 140.069 62.6632 139.391 62.6632C139.391 73.9074 139.391 85.1516 139.391 96.7366C140.445 96.7366 141.499 96.7366 142.585 96.7366C145.975 97.397 148.993 98.6285 151.998 100.315C152.992 100.887 152.992 100.887 154.165 100.344C154.768 99.7471 154.768 99.7471 155.363 98.9914C156.738 97.3593 158.216 95.8629 159.732 94.3625C161.055 93.0447 162.292 91.6798 163.501 90.257C164.171 89.4939 164.872 88.7806 165.595 88.0679C167.909 86.0499 167.909 86.0499 168.964 83.3828C168.456 82.0927 167.906 80.8278 167.317 79.573C166.056 76.6256 166.186 73.4126 167.192 70.4048C168.969 66.0646 171.717 63.8427 175.883 61.7925C179.065 60.7786 183.012 61.1209 186.016 62.5207C187.545 63.453 188.837 64.6075 190.101 65.8701C194.255 63.2401 198.365 60.5436 202.48 57.8528C201.948 56.2521 200.901 55.6072 199.61 54.6208C199.358 54.4266 199.107 54.2323 198.848 54.0322C198.065 53.4307 197.279 52.8348 196.49 52.2407C196.258 52.065 196.027 51.8893 195.788 51.7083C192.07 48.9074 188.166 46.5011 184.112 44.2234C183.834 44.0668 183.557 43.9101 183.271 43.7488C179.675 41.7342 176.027 39.9898 172.195 38.471C171.74 38.2878 171.74 38.2878 171.275 38.1008C171.007 37.9958 170.738 37.8907 170.462 37.7824C169.625 37.3509 169.126 36.9455 168.539 36.2061C168.301 35.4227 168.301 35.4227 168.171 34.5322C168.118 34.2029 168.064 33.8736 168.008 33.5344C167.953 33.1841 167.898 32.8339 167.841 32.4731C166.743 26.3295 164.179 21.3836 159.356 17.3655C158.133 16.0371 157.369 15.1023 157.334 13.2567C157.758 12.1543 157.758 12.1543 158.357 11.3776C161.102 10.2064 164.777 11.8217 167.466 12.6804C167.872 12.8078 168.278 12.9351 168.697 13.0662C169.843 13.4271 170.988 13.7925 172.133 14.1586C172.631 14.3142 173.129 14.4697 173.641 14.63C175.836 15.3335 177.92 16.1653 180.004 17.151C181.041 17.6371 182.081 18.1075 183.129 18.5697C192.456 22.6927 201.09 27.6821 209.268 33.801C209.482 33.9609 209.697 34.1208 209.919 34.2856C211.453 35.4336 212.963 36.6105 214.459 37.8096C215.075 38.3033 215.075 38.3033 215.703 38.8071C218.899 41.4374 221.838 44.3319 224.765 47.2549C224.96 47.4485 225.155 47.642 225.356 47.8414C228.03 50.5035 230.503 53.2717 232.826 56.2493C233.155 56.6703 233.155 56.6703 233.49 57.0997C253.412 82.954 263.369 117.06 259.507 149.682C259.182 152.086 258.802 154.477 258.381 156.866C258.302 157.316 258.223 157.766 258.142 158.23C257.62 161.13 257.033 164.013 256.385 166.888C256.273 167.383 256.273 167.383 256.159 167.889C252.861 182.148 246.918 196.132 238.145 207.869C237.58 208.629 237.025 209.397 236.471 210.165C234.185 213.314 231.777 216.249 229.102 219.072C228.243 219.982 227.42 220.902 226.612 221.856C223.855 225.04 220.856 227.907 217.569 230.533C216.436 231.442 215.336 232.384 214.234 233.331C203.878 241.986 191.952 249.147 179.32 253.875C178.825 254.065 178.825 254.065 178.319 254.259C174.272 255.811 170.197 257.247 166.044 258.485C165.711 258.587 165.379 258.69 165.037 258.795C162.773 259.445 160.512 259.815 158.158 259.487C157.359 258.686 157.359 258.686 157.178 257.229C157.232 255.151 158.226 253.919 159.455 252.322C159.863 251.755 160.268 251.186 160.67 250.615C160.861 250.345 161.052 250.075 161.248 249.797C163.36 246.724 163.607 243.539 163.805 239.897C163.95 237.73 164.193 236.269 165.744 234.634C166.912 233.973 168.126 233.528 169.388 233.08C170.113 232.806 170.837 232.53 171.561 232.254C171.925 232.116 172.29 231.979 172.665 231.837C182.545 228.031 191.586 222.752 199.883 216.178C200.882 215.392 200.882 215.392 202.08 214.591C201.62 213.203 201.401 213.102 200.196 212.391C199.891 212.207 199.586 212.024 199.272 211.836C198.947 211.645 198.622 211.455 198.287 211.258C197.628 210.867 196.969 210.474 196.311 210.081C195.995 209.892 195.679 209.704 195.354 209.509C194.054 208.707 192.83 207.809 191.628 206.866C190.866 206.473 190.866 206.473 189.91 206.857C189.003 207.324 188.156 207.813 187.306 208.377C184.163 210.464 180.982 210.545 177.324 210.181C173.352 209.311 170.742 206.824 168.564 203.492C166.531 200.205 166.421 196.371 167.168 192.606C167.583 191.298 168.011 190.309 168.839 189.211C169.427 188.573 169.427 188.573 169.259 187.786C168.859 186.719 168.329 186.188 167.513 185.396C167.221 185.109 166.928 184.821 166.627 184.524C166.165 184.079 166.165 184.079 165.694 183.624C163.726 181.705 161.827 179.777 160.04 177.686C158.651 176.11 157.123 174.668 155.616 173.206C155.376 172.97 155.137 172.734 154.89 172.49C154.674 172.28 154.457 172.069 154.234 171.853C153.765 171.297 153.765 171.297 153.765 170.496C153.4 170.638 153.4 170.638 153.027 170.784C151.918 171.215 150.808 171.645 149.698 172.074C149.314 172.224 148.931 172.373 148.536 172.527C147.978 172.742 147.978 172.742 147.409 172.962C147.069 173.094 146.728 173.226 146.377 173.363C143.893 174.21 142.207 174.103 139.391 174.103C139.391 188.919 139.391 203.735 139.391 219C140.577 219.397 141.763 219.794 142.984 220.203C147.172 222.144 150.965 225.62 152.967 229.823C153.123 230.149 153.279 230.474 153.439 230.81C155.337 235.516 155.388 241.671 153.496 246.39C150.799 251.853 147.211 255.364 141.464 257.499C136.086 259.066 130.844 258.781 125.815 256.28C120.884 253.327 117.262 249.083 115.605 243.487C114.482 238.032 115.347 232.592 118.119 227.839C120.949 223.554 124.966 220.961 129.808 219.401C130.203 219.401 130.598 219.401 131.005 219.401C131.005 204.585 131.005 189.769 131.005 174.504C129.556 174.372 128.107 174.24 126.613 174.103C123.639 173.582 121.042 172.635 118.378 171.214C117.466 170.814 117.466 170.814 116.664 171.089C115.427 171.995 114.381 173.056 113.312 174.153C113.095 174.371 112.878 174.59 112.654 174.814C111.49 175.995 110.378 177.204 109.301 178.466C108.275 179.657 107.203 180.77 106.074 181.864C105.775 182.154 105.476 182.444 105.168 182.742C104.548 183.339 103.925 183.933 103.3 184.524C103.005 184.812 102.71 185.1 102.406 185.396C102.137 185.653 101.868 185.91 101.592 186.174C100.961 186.892 100.961 186.892 101.144 187.773C101.524 188.695 102.001 189.54 102.481 190.413C104.093 193.924 104.132 198.322 102.83 201.963C100.894 205.952 98.4307 208.214 94.3497 209.819C90.2497 210.98 86.5013 210.477 82.8324 208.419C82.0085 207.856 81.3934 207.275 80.694 206.573C80.2987 206.441 79.9034 206.309 79.4961 206.172C79.4961 206.437 79.4961 206.702 79.4961 206.974C78.4673 207.636 77.4399 208.251 76.3766 208.853C75.7544 209.212 75.1326 209.572 74.5111 209.932C74.0514 210.198 74.0514 210.198 73.5823 210.469C71.7921 211.521 70.0527 212.651 68.3158 213.789C71.0995 221.207 87.5349 227.843 94.1422 230.912C96.5979 232.007 99.1276 232.884 101.699 233.664C103.626 234.278 104.856 234.757 105.85 236.638C106.109 237.794 106.197 238.94 106.274 240.121C106.765 245.545 108.212 250.129 112.014 254.226C112.856 255.16 113.029 255.436 113.287 256.731C112.972 258.184 112.486 258.841 111.44 259.888C107.914 260.41 104.081 259.006 100.759 257.934C100.01 257.696 100.01 257.696 99.2454 257.453C94.2308 255.83 89.4404 253.743 84.687 251.47C84.379 251.324 84.0711 251.178 83.7538 251.027C67.0729 243.047 50.171 231.57 38.746 216.794C37.901 215.705 37.001 214.678 36.0975 213.639C27.1227 202.821 19.8143 188.862 16.0078 175.306C15.9161 174.983 15.8243 174.66 15.7298 174.327C15.1119 172.125 14.5489 169.912 14.0114 167.689C13.941 167.404 13.8706 167.119 13.7981 166.826C12.446 161.302 11.567 155.687 10.817 150.051C10.7816 149.792 10.7463 149.532 10.7099 149.264C10.399 146.773 10.3533 144.308 10.3506 141.799C10.3493 141.36 10.348 140.92 10.3466 140.467C10.3446 139.54 10.3436 138.612 10.3437 137.684C10.3428 136.29 10.3356 134.896 10.328 133.502C10.3147 128.272 10.5199 123.165 11.2163 117.982C11.2725 117.534 11.3287 117.086 11.3866 116.624C14.1671 95.4165 22.8042 75.0275 35.9727 58.2536C36.3873 57.7196 36.3873 57.7196 36.8103 57.1748C38.4181 55.1243 40.1007 53.1627 41.853 51.2354C42.4465 50.5822 43.0353 49.9247 43.6186 49.2624C46.9491 45.4844 50.4585 41.8234 54.3404 38.6113C54.5413 38.4442 54.7421 38.2771 54.9491 38.105C65.6422 29.2453 97.115 4.87676 111.59 11.3776Z" fill="#132C3B"/>
<path d="M60.7292 63.4649C62.1163 63.9902 63.3703 64.6008 64.6458 65.358C65.0075 65.572 65.3693 65.7859 65.742 66.0064C67.3033 66.9427 68.8604 67.8858 70.4173 68.8296C71.3729 69.3964 72.3366 69.932 73.3165 70.4549C76.8901 72.4225 76.8901 72.4225 77.456 74.2068C77.5247 75.4156 77.5247 75.4156 77.4872 76.6448C77.5171 79.6412 79.0072 82.3638 81.0185 84.5102C82.8338 86.1704 84.7712 87.144 87.0829 87.9176C87.8956 87.8488 88.7084 87.7796 89.5208 87.7076C93.8993 87.4073 93.8993 87.4073 95.5944 88.8461C96.5608 89.8477 97.388 90.9472 98.1928 92.0818C98.8981 93.0522 99.7007 93.9233 100.509 94.8074C100.797 95.1304 101.086 95.4533 101.383 95.7861C102.549 97.055 103.771 98.2618 104.995 99.4737C106.062 100.561 107.057 101.698 108.043 102.859C108.618 103.52 109.217 104.141 109.843 104.754C109.294 106.038 108.715 106.708 107.622 107.56C104.302 110.385 101.981 114.209 99.8604 117.982C98.0443 117.445 96.5951 116.711 94.9939 115.702C91.5868 113.593 88.0818 111.663 84.5753 109.727C81.4979 108.024 78.4287 106.311 75.5032 104.353C75.5691 104.105 75.635 103.857 75.7029 103.601C76.3787 99.3609 75.6392 95.7159 73.1823 92.1517C71.9776 90.6664 70.8438 89.9283 69.1145 89.1202C68.8772 89.0008 68.6399 88.8814 68.3954 88.7585C65.6291 87.5107 62.3431 87.4122 59.4565 88.3435C56.0524 89.8742 53.8349 92.1316 52.344 95.534C52.171 95.9143 51.9981 96.2946 51.8199 96.6865C51.0612 100.149 51.3817 103.266 53.1426 106.357C54.9798 109.022 57.1609 111.119 60.3299 111.969C63.6537 112.415 67.0567 112.487 69.9692 110.638C70.7117 110.366 70.7117 110.366 71.6101 110.607C73.0438 111.339 74.4235 112.142 75.8027 112.972C76.4131 113.335 77.0235 113.699 77.6339 114.063C77.9441 114.249 78.2544 114.434 78.574 114.625C79.9934 115.473 81.4166 116.315 82.8403 117.156C83.115 117.318 83.3897 117.48 83.6726 117.647C87.9866 120.194 92.3189 122.709 96.666 125.198C96.5428 126.309 96.4177 127.42 96.2916 128.53C96.2395 129.003 96.2395 129.003 96.1864 129.484C96.1342 129.94 96.1342 129.94 96.0811 130.404C96.034 130.823 96.034 130.823 95.986 131.251C95.8674 132.013 95.8674 132.013 95.4681 133.215C83.0819 133.215 70.6957 133.215 57.9342 133.215C57.1435 131.628 56.3529 130.04 55.5384 128.405C52.8132 125.162 49.5676 123.456 45.3111 123.059C40.9603 123.013 37.5891 123.623 34.3319 126.667C31.1855 130.57 29.9425 135.067 30.3826 140.03C31.3536 143.847 33.4054 147.001 36.6856 149.19C40.2683 151.233 43.8304 151.908 47.9158 150.994C52.4245 149.504 54.9471 146.977 57.1356 142.836C57.27 142.49 57.4044 142.144 57.5428 141.787C58.3335 140.832 58.3335 140.832 59.9024 140.591C60.5733 140.585 61.2442 140.59 61.9149 140.604C62.4643 140.604 62.4643 140.604 63.0248 140.603C64.2371 140.605 65.4488 140.62 66.661 140.636C67.5008 140.64 68.3406 140.642 69.1804 140.644C71.3921 140.652 73.6035 140.672 75.815 140.694C78.0712 140.714 80.3275 140.724 82.5837 140.734C87.0117 140.755 91.4395 140.789 95.8674 140.832C95.9954 141.536 96.1233 142.24 96.2511 142.944C96.3579 143.532 96.3579 143.532 96.4669 144.132C96.6769 145.302 96.8758 146.473 97.0653 147.646C96.6576 147.871 96.25 148.095 95.83 148.326C92.2658 150.295 88.7274 152.306 85.2111 154.361C84.8118 154.593 84.4125 154.826 84.0011 155.066C81.8807 156.309 79.785 157.581 77.7118 158.902C77.2953 159.165 76.8787 159.428 76.4495 159.699C75.6506 160.206 74.8555 160.719 74.0648 161.239C73.7062 161.466 73.3475 161.693 72.978 161.927C72.6647 162.131 72.3514 162.334 72.0286 162.544C71.111 162.879 71.111 162.879 70.0666 162.565C69.7524 162.404 69.4382 162.243 69.1145 162.077C66.0073 160.867 62.368 160.724 59.1383 161.598C56.0935 162.975 54.1133 165.365 52.344 168.14C51.1478 171.508 51.5694 175.722 53.0615 178.907C53.7422 180.052 54.5183 180.871 55.5384 181.72C55.8266 181.993 56.1149 182.265 56.4118 182.547C59.362 184.587 62.3566 185.411 65.9201 184.927C69.2658 184.151 72.1686 182.642 74.0433 179.665C74.9403 177.916 75.589 176.588 75.2334 174.595C74.9152 172.614 74.7417 170.789 75.5032 168.892C77.4906 166.74 80.3806 165.578 82.9756 164.328C85.2037 163.229 87.3457 161.979 89.5036 160.75C90.3416 160.283 91.1797 159.817 92.0179 159.351C94.2542 158.095 96.4061 156.74 98.5205 155.288C99.4611 154.862 99.4611 154.862 100.314 155.067C101.242 155.811 101.674 156.553 102.256 157.593C103.607 159.832 105.205 161.646 107.013 163.514C108.045 164.588 108.823 165.535 109.443 166.888C109.289 167.053 109.134 167.218 108.975 167.389C105.287 171.32 105.287 171.32 101.71 175.351C100.61 176.628 99.4938 177.887 98.3505 179.125C97.4636 180.082 97.4636 180.082 96.7783 181.07C95.8402 182.266 95.0602 183.184 93.5065 183.458C92.2775 183.553 91.0534 183.571 89.8212 183.584C85.8429 183.666 83.0766 185.166 80.2948 188.008C78.0865 190.691 77.0339 193.302 77.1753 196.777C77.0694 198.406 76.8201 198.847 75.5999 199.97C74.3237 200.875 72.9843 201.665 71.6265 202.44C70.3329 203.183 69.0675 203.971 67.7987 204.756C66.8832 205.321 65.9629 205.878 65.042 206.434C63.9568 207.096 62.9205 207.78 61.9271 208.578C51.6534 204.298 43.234 184.341 39.1574 174.744C36.9046 169.241 34.1931 162.466 34.3756 156.465C33.9927 156.329 33.9927 156.329 33.602 156.19C28.4674 153.981 24.4987 150.738 22.2345 145.561C20.2973 140.482 19.7907 134.702 21.9974 129.607C22.1287 129.281 22.2599 128.954 22.3951 128.618C24.5588 123.747 28.3199 120.604 33.0082 118.273C34.038 117.669 34.038 117.669 34.3482 116.652C34.4062 116.29 34.4641 115.927 34.5238 115.554C34.595 115.147 34.6661 114.74 34.7394 114.32C34.8088 113.883 34.8781 113.447 34.9496 112.997C37.4073 99.3453 42.8689 86.2391 51.1461 75.0899C51.318 74.8556 51.4899 74.6213 51.6671 74.3798C53.6296 71.7141 55.7042 69.1792 57.9404 66.7391C58.9088 65.6769 59.8227 64.5804 60.7292 63.4649Z" fill="#DCE4E6"/>
<path d="M209.667 63.4649C210.241 63.9832 210.241 63.9832 210.865 64.7426C211.11 65.0367 211.354 65.3307 211.606 65.6336C212.03 66.1475 212.03 66.1475 212.462 66.6718C212.798 67.0599 213.134 67.4479 213.481 67.8478C215.965 70.7183 218.238 73.6899 220.386 76.8216C220.828 77.4665 221.275 78.108 221.723 78.7494C223.559 81.433 225.06 84.1714 226.438 87.1158C226.763 87.7879 226.763 87.7879 227.094 88.4735C229.713 93.9265 232.037 99.5131 233.725 105.33C233.825 105.675 233.925 106.02 234.028 106.375C234.53 108.197 234.901 109.976 235.129 111.854C235.407 115.466 235.407 115.466 236.969 118.594C238.086 119.43 239.289 119.971 240.564 120.518C244.132 122.175 246.868 125.687 248.369 129.293C249.067 131.235 249.465 133.157 249.597 135.22C249.623 135.505 249.648 135.791 249.675 136.085C249.968 141.959 247.752 147.106 244.107 151.555C242.208 153.622 239.955 155.093 237.328 156.068C236.327 156.389 236.327 156.389 235.946 157.442C235.688 158.579 235.488 159.692 235.303 160.84C234.83 163.463 234.05 165.944 233.201 168.466C233.042 168.94 232.883 169.414 232.719 169.902C231.277 174.108 229.593 178.134 227.636 182.121C227.468 182.467 227.3 182.813 227.127 183.169C224.655 188.23 221.853 192.869 218.452 197.353C218.173 197.721 217.895 198.089 217.608 198.468C215.331 201.384 212.9 204.19 210.466 206.974C210.279 207.206 210.093 207.437 209.901 207.676C209.268 208.177 209.268 208.177 208.487 208.105C207.66 207.772 206.94 207.397 206.181 206.927C205.896 206.752 205.612 206.578 205.319 206.398C204.695 206.006 204.073 205.614 203.452 205.22C201.834 204.196 200.221 203.213 198.529 202.319C194.116 199.899 194.116 199.899 193.353 198.19C193.012 196.801 192.951 195.444 192.933 194.018C192.886 192.092 192.398 190.882 191.299 189.336C191.127 189.091 190.954 188.846 190.775 188.594C188.847 186.121 186.352 184.488 183.314 183.724C182.459 183.74 181.622 183.819 180.771 183.899C178.542 184.08 176.783 184.172 174.891 182.882C173.964 181.842 173.13 180.791 172.312 179.667C171.233 178.262 169.986 177.011 168.764 175.732C168.256 175.188 167.748 174.644 167.24 174.099C166.268 173.058 165.292 172.022 164.311 170.989C163.874 170.524 163.436 170.059 162.999 169.594C162.797 169.383 162.595 169.173 162.387 168.956C161.418 167.919 160.711 167.131 160.554 165.685C161.06 165.288 161.06 165.288 161.577 164.883C164.123 162.742 166.048 160.128 167.909 157.386C168.498 156.527 169.108 155.691 169.737 154.862C171.257 155.095 172.343 155.529 173.66 156.318C174.033 156.539 174.406 156.76 174.79 156.988C175.39 157.35 175.39 157.35 176.001 157.718C176.86 158.228 177.718 158.738 178.577 159.248C179.247 159.647 179.247 159.647 179.931 160.054C181.33 160.885 182.736 161.701 184.145 162.514C184.493 162.715 184.493 162.715 184.848 162.92C185.969 163.566 187.09 164.212 188.212 164.858C189.016 165.322 189.818 165.79 190.617 166.263C191.301 166.658 191.996 167.034 192.704 167.384C193.555 167.828 194.224 168.202 194.893 168.892C195.224 170.082 195.102 171.157 194.968 172.375C194.791 175.47 195.069 177.514 196.89 180.116C197.104 180.48 197.318 180.844 197.539 181.219C200.425 183.964 203.865 185.095 207.77 185.036C211.248 184.689 214.188 183.174 216.455 180.517C218.759 177.516 218.9 174.127 218.57 170.479C218.153 167.706 216.594 165.426 214.459 163.681C211.862 161.883 209.96 161.191 206.772 161.15C206.477 161.139 206.182 161.127 205.879 161.115C204.242 161.096 203.168 161.235 201.762 162.11C200.483 162.879 200.483 162.879 199.68 162.873C198.485 162.279 197.32 161.645 196.166 160.975C195.589 160.645 195.013 160.314 194.436 159.984C194.124 159.804 193.813 159.625 193.492 159.44C192.454 158.846 191.413 158.257 190.371 157.669C185.804 155.092 181.262 152.473 176.742 149.813C176.359 149.588 175.976 149.363 175.582 149.131C175.243 148.931 174.904 148.731 174.555 148.525C174.023 148.217 173.482 147.922 172.932 147.646C173.327 145.397 173.722 143.149 174.13 140.832C186.779 140.832 199.429 140.832 212.462 140.832C212.858 141.89 213.253 142.948 213.66 144.039C215.703 147.492 218.79 149.938 222.64 151.065C226.992 151.887 230.302 151.042 234.099 148.949C237.117 146.525 239.408 143.521 240.014 139.629C240.341 134.759 239.587 130.996 236.42 127.202C232.793 123.866 229.191 122.979 224.357 123.087C220.274 123.374 217.585 125.442 214.858 128.405C213.763 129.899 213.15 131.489 212.462 133.215C199.944 133.215 187.426 133.215 174.529 133.215C173.73 127.603 173.73 127.603 173.73 125.198C174.535 124.736 175.34 124.275 176.144 123.813C176.877 123.393 177.609 122.973 178.342 122.552C180.31 121.422 182.278 120.294 184.249 119.17C185.228 118.611 186.206 118.052 187.184 117.493C187.885 117.092 188.587 116.692 189.289 116.293C192.031 114.724 194.723 113.099 197.385 111.398C198.33 110.857 199.014 110.505 200.084 110.366C200.903 110.678 200.903 110.678 201.806 111.143C204.852 112.428 208.184 112.61 211.328 111.54C214.846 109.763 217.123 107.271 218.452 103.551C219.076 99.8501 218.714 96.1988 216.812 92.9393C214.671 90.0715 211.974 88.5084 208.469 87.9176C204.329 87.4472 201.243 88.6576 198.003 91.2169C196.751 92.46 195.983 93.921 195.292 95.534C195.133 95.9055 194.973 96.2771 194.809 96.6599C194.419 98.2444 194.72 99.3688 194.993 100.971C195.073 102.218 194.998 103.202 194.494 104.353C192.485 106.43 189.637 107.594 187.087 108.861C184.845 110.005 182.68 111.28 180.505 112.546C179.785 112.963 179.064 113.375 178.341 113.787C176.421 114.879 174.513 115.973 172.654 117.168C171.335 117.982 171.335 117.982 170.536 117.982C169.916 117.091 169.337 116.197 168.764 115.277C166.384 111.568 163.663 108.256 160.154 105.556C160.418 105.026 160.681 104.497 160.953 103.952C161.216 103.952 161.48 103.952 161.751 103.952C161.855 103.717 161.958 103.483 162.065 103.241C162.587 102.281 163.148 101.663 163.927 100.902C164.2 100.632 164.473 100.362 164.755 100.084C165.04 99.8064 165.326 99.5284 165.62 99.242C168.156 96.7595 170.662 94.2733 172.715 91.3625C175.164 88.1337 175.164 88.1337 176.963 87.7297C178.524 87.6215 180.057 87.7346 181.615 87.844C184.585 88.0434 186.737 86.8598 189.028 85.0614C190.716 83.4738 191.621 81.6213 192.497 79.4994C192.647 79.1729 192.796 78.8463 192.95 78.5098C193.335 77.3806 193.323 76.5279 193.296 75.3405C193.405 73.9988 193.467 73.3095 194.441 72.3538C194.764 72.1457 195.087 71.9377 195.42 71.7233C195.782 71.4871 196.143 71.2509 196.516 71.0075C197.096 70.6472 197.096 70.6472 197.688 70.2796C198.072 70.0388 198.456 69.7981 198.851 69.5501C200.039 68.8153 201.233 68.0924 202.43 67.3733C203.236 66.8876 204.042 66.4012 204.848 65.9139C205.198 65.703 205.549 65.492 205.911 65.2746C206.877 64.6889 206.877 64.6889 207.722 63.9883C208.469 63.4649 208.469 63.4649 209.667 63.4649Z" fill="#DCE4E6"/>
<path d="M146.684 116.729C151.368 119.785 154.816 124.267 156.295 129.697C157.467 136.389 156.599 142.578 152.692 148.223C149.56 152.477 145.064 155.874 139.79 156.866C138.283 156.988 136.784 156.996 135.273 156.991C134.881 156.998 134.489 157.004 134.085 157.011C128.597 157.015 123.891 154.956 119.9 151.154C115.601 146.526 113.267 140.803 113.352 134.454C113.8 127.863 116.709 122.772 121.499 118.383C128.755 112.337 138.675 111.955 146.684 116.729Z" fill="#DCE4E6"/>
<path d="M139.541 229.423C142.241 230.987 144.271 233.225 145.206 236.24C145.866 239.261 145.157 241.554 143.783 244.254C142.242 246.597 140.059 248.086 137.39 248.913C134.047 249.553 131.335 248.884 128.535 247.01C127.079 245.705 126.268 243.986 125.416 242.25C125.284 241.986 125.152 241.721 125.016 241.448C124.661 237.947 124.932 235.126 127.013 232.229C127.868 231.286 128.761 230.542 129.808 229.823C130.327 229.451 130.327 229.451 130.856 229.072C133.728 228.111 136.77 228.164 139.541 229.423Z" fill="#DCE4E6"/>
<path d="M45.5561 132.413C47.14 133.037 48.1925 133.778 49.1498 135.22C49.424 137.108 49.4289 138.722 48.5009 140.406C46.8578 141.838 45.7708 142.435 43.5596 142.435C41.7704 142.128 40.8343 141.303 39.5667 140.03C38.8645 138.62 38.8956 137.155 39.1674 135.62C40.7472 132.98 42.4673 132 45.5561 132.413Z" fill="#DCE4E6"/>
<path d="M227.636 132.413C229.282 133.111 230.31 134.083 231.229 135.62C231.519 137.216 231.382 138.463 230.755 139.955C229.668 141.272 228.818 141.915 227.102 142.177C225.313 142.276 224.041 142.248 222.619 141.082C221.125 139.466 221.091 138.388 221.103 136.242C221.334 134.595 222.045 133.931 223.243 132.814C224.621 132.123 226.126 132.269 227.636 132.413Z" fill="#DCE4E6"/>
<path d="M148.575 117.181C149.035 117.553 149.492 117.93 149.947 118.308C150.202 118.517 150.457 118.727 150.719 118.942C151.37 119.586 151.37 119.586 151.769 120.788C152.033 120.788 152.296 120.788 152.568 120.788C152.568 121.185 152.568 121.582 152.568 121.991C152.831 121.991 153.095 121.991 153.366 121.991C153.761 122.682 154.151 123.376 154.539 124.07C154.757 124.456 154.975 124.842 155.199 125.24C155.724 126.323 155.991 127.22 156.161 128.405C155.011 127.827 154.901 127.049 154.389 125.874C153.257 123.504 151.848 121.792 150.015 119.956C148.575 118.495 148.575 118.495 148.575 117.181Z" fill="#132C3B"/>
<path d="M77.4997 191.741C77.9239 192.468 77.9239 192.468 78.2983 193.345C78.1665 193.742 78.0348 194.138 77.899 194.547C77.8098 195.373 77.7365 196.2 77.6744 197.028C77.6409 197.463 77.6075 197.899 77.573 198.348C77.5488 198.681 77.5246 199.014 77.4997 199.358C77.2362 199.358 76.9726 199.358 76.7011 199.358C76.622 196.67 76.5779 194.286 77.4997 191.741Z" fill="#132C3B"/>
<path d="M153.766 244.254C154.161 244.784 154.556 245.313 154.963 245.858C154.436 246.784 153.909 247.71 153.366 248.664C153.103 248.664 152.839 248.664 152.568 248.664C152.568 248.929 152.568 249.193 152.568 249.466C152.304 249.333 152.041 249.201 151.769 249.065C152.428 247.477 153.087 245.89 153.766 244.254Z" fill="#DCE4E6"/>
<path d="M166.942 97.9392C167.206 98.0715 167.469 98.2037 167.741 98.34C167.477 98.8692 167.214 99.3983 166.942 99.9435C166.679 99.9435 166.415 99.9435 166.144 99.9435C166.144 100.208 166.144 100.473 166.144 100.745C165.36 101.302 164.562 101.838 163.748 102.349C163.484 102.216 163.221 102.084 162.949 101.948C164.267 100.625 165.585 99.3021 166.942 97.9392Z" fill="#DCE4E6"/>
<path d="M49.5489 77.4951C49.6806 77.892 49.8124 78.2888 49.9482 78.6977C49.474 79.6247 49.474 79.6247 48.7503 80.702C48.4785 81.1402 48.2067 81.5784 47.9267 82.0299C47.6714 82.3854 47.4161 82.7409 47.1531 83.1072C46.8896 83.1072 46.626 83.1072 46.3545 83.1072C46.8838 81.655 47.5298 80.4475 48.4009 79.1737C48.616 78.857 48.8312 78.5402 49.0529 78.2139C49.2165 77.9767 49.3802 77.7395 49.5489 77.4951Z" fill="#DCE4E6"/>
<path d="M194.494 97.5383C194.626 97.5383 194.758 97.5383 194.893 97.5383C195.425 101.31 195.425 101.31 194.893 103.15C194.095 102.349 194.095 102.349 194.003 101.32C194.008 100.924 194.014 100.527 194.02 100.119C194.022 99.7215 194.025 99.3241 194.028 98.9147C194.095 97.9392 194.095 97.9392 194.494 97.5383Z" fill="#132C3B"/>
<path d="M128.61 230.625C128.742 231.022 128.873 231.419 129.009 231.828C128.552 232.503 128.552 232.503 127.886 233.206C126.984 234.167 126.357 235.03 125.815 236.237C125.683 235.84 125.551 235.443 125.416 235.035C125.873 234.156 125.873 234.156 126.539 233.206C126.755 232.891 126.972 232.576 127.195 232.252C127.811 231.427 127.811 231.427 128.61 230.625Z" fill="#DCE4E6"/>
<path d="M81.8919 186.129C82.1554 186.262 82.419 186.394 82.6905 186.53C82.3286 187.051 81.9616 187.568 81.5924 188.083C81.2867 188.516 81.2867 188.516 80.9748 188.957C80.2647 189.771 79.685 190.129 78.6975 190.539C79.2858 188.531 80.4046 187.525 81.8919 186.129Z" fill="#132C3B"/>
<path d="M184.911 226.616C184.911 227.013 184.911 227.41 184.911 227.819C184.606 227.935 184.301 228.051 183.987 228.17C182.854 228.606 182.854 228.606 181.716 229.423C181.716 229.158 181.716 228.893 181.716 228.621C181.453 228.489 181.189 228.356 180.918 228.22C181.432 227.951 181.948 227.684 182.465 227.418C182.752 227.269 183.039 227.121 183.335 226.967C184.112 226.616 184.112 226.616 184.911 226.616Z" fill="#132C3B"/>
<path d="M162.55 102.349C162.682 102.613 162.814 102.878 162.949 103.15C162.554 103.746 162.554 103.746 162.151 104.353C161.997 105.017 161.86 105.685 161.751 106.357C161.224 106.093 160.697 105.828 160.154 105.556C160.418 105.026 160.681 104.497 160.953 103.952C161.216 103.952 161.48 103.952 161.751 103.952C162.015 103.423 162.279 102.894 162.55 102.349Z" fill="#DCE4E6"/>
<path d="M220.049 227.819C220.444 227.951 220.839 228.084 221.247 228.22C220.851 228.352 220.456 228.484 220.049 228.621C220.049 229.018 220.049 229.414 220.049 229.823C218.718 231.026 218.718 231.026 217.653 231.026C218.229 229.677 218.984 228.817 220.049 227.819Z" fill="#DCE4E6"/>
<path d="M213.261 89.9219C214.719 90.4229 215.17 90.5917 216.056 91.9262C214.459 91.9262 214.459 91.9262 213.261 91.5254C213.261 90.9962 213.261 90.4671 213.261 89.9219Z" fill="#132C3B"/>
<path d="M199.685 69.077C199.816 69.3416 199.948 69.6061 200.084 69.8787C199.237 70.8141 198.48 71.448 197.289 71.883C196.762 71.7507 196.235 71.6185 195.692 71.4822C197.009 70.6885 198.327 69.8947 199.685 69.077Z" fill="#DCE4E6"/>
<path d="M239.215 65.8701C241.44 67.9316 241.44 67.9316 241.611 69.4778C241.216 69.4778 240.82 69.4778 240.413 69.4778C239.215 67.223 239.215 67.223 239.215 65.8701Z" fill="#132C3B"/>
<path d="M201.681 213.789C201.945 213.789 202.208 213.789 202.48 213.789C201.985 215.278 201.341 215.702 200.084 216.595C199.82 216.595 199.557 216.595 199.285 216.595C199.417 216.066 199.549 215.537 199.685 214.991C200.344 214.859 201.002 214.727 201.681 214.591C201.681 214.326 201.681 214.061 201.681 213.789Z" fill="#DCE4E6"/>
<path d="M196.89 91.9262C197.285 92.0585 197.68 92.1908 198.087 92.3271C197.692 93.1208 197.297 93.9145 196.89 94.7323C196.494 94.7323 196.099 94.7323 195.692 94.7323C196.44 92.8282 196.44 92.8282 196.89 91.9262Z" fill="#132C3B"/>
<path d="M36.3722 148.047C36.6357 148.047 36.8993 148.047 37.1708 148.047C37.1708 148.444 37.1708 148.841 37.1708 149.25C37.5661 149.117 37.9614 148.985 38.3687 148.849C38.5005 149.246 38.6322 149.643 38.768 150.051C39.1633 150.184 39.5586 150.316 39.9659 150.452C38.0685 150.279 37.2027 149.92 35.9729 148.448C36.1047 148.316 36.2364 148.183 36.3722 148.047Z" fill="#132C3B"/>
<path d="M230.83 138.827C230.962 139.092 231.094 139.356 231.229 139.629C231.493 139.761 231.756 139.894 232.028 140.03C231.591 140.377 231.149 140.719 230.705 141.057C230.46 141.248 230.214 141.438 229.961 141.635C229.721 141.767 229.48 141.898 229.233 142.034C228.837 141.902 228.442 141.77 228.035 141.633C228.348 141.468 228.661 141.303 228.983 141.132C230.055 140.415 230.383 140.01 230.83 138.827Z" fill="#132C3B"/>
<path d="M154.564 98.7409C154.696 99.0055 154.828 99.27 154.963 99.5426C154.568 100.072 154.173 100.601 153.765 101.146C151.819 100.445 151.819 100.445 151.37 99.5426C151.748 99.5592 152.127 99.5757 152.518 99.5927C153.806 99.6828 153.806 99.6828 154.564 98.7409Z" fill="#DCE4E6"/>
<path d="M157.359 95.534C157.755 95.6663 158.15 95.7986 158.557 95.9349C157.503 96.9931 156.449 98.0514 155.363 99.1418C155.363 97.3821 156.213 96.8292 157.359 95.534Z" fill="#DCE4E6"/>
<path d="M57.9342 66.6718C58.1978 66.8041 58.4613 66.9364 58.7328 67.0727C58.2215 67.7571 57.6876 68.4251 57.1356 69.077C56.8721 69.077 56.6086 69.077 56.3371 69.077C56.2053 69.4738 56.0735 69.8707 55.9378 70.2796C55.6742 70.1473 55.4107 70.015 55.1392 69.8787C56.0615 68.8204 56.9839 67.7621 57.9342 66.6718Z" fill="#DCE4E6"/>
<path d="M116.631 54.245C117.099 54.5591 117.564 54.8772 118.028 55.1971C118.418 55.4622 118.418 55.4622 118.815 55.7326C119.016 55.9031 119.218 56.0736 119.426 56.2493C119.426 56.5139 119.426 56.7785 119.426 57.0511C119.689 57.1833 119.953 57.3156 120.225 57.4519C119.027 57.4519 119.027 57.4519 118.386 56.954C118.177 56.738 117.969 56.522 117.754 56.2994C117.542 56.0855 117.331 55.8716 117.113 55.6512C116.631 55.0467 116.631 55.0467 116.631 54.245Z" fill="#132C3B"/>
<path d="M87.4821 17.7664C87.7456 18.1633 88.0092 18.5601 88.2807 18.969C85.6853 19.8208 85.6853 19.8208 83.8884 19.3699C85.0743 18.8407 86.2603 18.3116 87.4821 17.7664Z" fill="#132C3B"/>
<path d="M230.431 174.905C230.826 175.037 231.221 175.17 231.628 175.306C231.233 175.504 231.233 175.504 230.83 175.707C230.677 176.371 230.545 177.039 230.431 177.711C230.299 177.976 230.167 178.24 230.031 178.513C229.768 178.513 229.504 178.513 229.233 178.513C229.628 177.322 230.023 176.132 230.431 174.905Z" fill="#132C3B"/>
<path d="M109.444 166.086C109.575 166.483 109.707 166.88 109.843 167.289C109.119 168.566 109.119 168.566 108.246 169.694C107.982 169.694 107.719 169.694 107.447 169.694C107.676 168.142 108.44 167.256 109.444 166.086Z" fill="#132C3B"/>
<path d="M202.879 161.276C200.633 162.879 200.633 162.879 199.285 162.879C199.685 161.677 199.685 161.677 200.408 161.175C201.417 160.828 201.89 160.921 202.879 161.276Z" fill="#DCE4E6"/>
<path d="M43.1602 131.612C45.8055 131.512 45.8055 131.512 47.1531 132.413C45.7251 132.91 44.6228 132.714 43.1602 132.413C43.1602 132.149 43.1602 131.884 43.1602 131.612Z" fill="#132C3B"/>
<path d="M35.5735 125.198C35.8371 125.33 36.1006 125.462 36.3721 125.599C35.8979 126.576 35.8979 126.576 35.1742 127.603C34.1011 127.929 34.1011 127.929 33.1777 128.004C33.9683 127.078 34.759 126.152 35.5735 125.198Z" fill="#132C3B"/>
<path d="M62.3264 237.841C63.674 238.116 63.674 238.116 65.1215 238.642C65.6113 239.677 65.6113 239.677 65.9201 240.647C65.3201 240.256 64.7214 239.863 64.1233 239.469C63.7897 239.251 63.4562 239.032 63.1125 238.807C62.8531 238.62 62.5937 238.434 62.3264 238.242C62.3264 238.109 62.3264 237.977 62.3264 237.841Z" fill="#132C3B"/>
<path d="M46.7539 122.392C48.1015 122.517 48.1015 122.517 49.549 122.793C49.8125 123.19 50.0761 123.586 50.3476 123.995C48.5687 123.598 48.5687 123.598 46.7539 123.194C46.7539 122.929 46.7539 122.664 46.7539 122.392Z" fill="#DCE4E6"/>
<path d="M118.228 121.59C118.623 121.722 119.019 121.855 119.426 121.991C118.767 122.785 118.108 123.578 117.429 124.396C117.166 124.264 116.902 124.132 116.631 123.995C117.158 123.202 117.685 122.408 118.228 121.59Z" fill="#DCE4E6"/>
<path d="M15.2094 98.7409C15.3411 99.0055 15.4729 99.27 15.6087 99.5426C15.8722 99.5426 16.1357 99.5426 16.4072 99.5426C16.2825 100.319 16.2825 100.319 16.008 101.146C15.6126 101.278 15.2173 101.411 14.8101 101.547C14.9418 100.621 15.0736 99.695 15.2094 98.7409Z" fill="#132C3B"/>
<path d="M237.618 62.6632C238.665 63.0836 239.133 63.3243 239.714 64.3167C239.813 64.5648 239.912 64.8128 240.014 65.0683C239.618 65.0683 239.223 65.0683 238.816 65.0683C237.618 63.7321 237.618 63.7321 237.618 62.6632Z" fill="#DCE4E6"/>
<path d="M163.349 259.086C163.217 259.483 163.085 259.88 162.949 260.289C161.632 260.157 160.314 260.024 158.956 259.888C158.956 259.756 158.956 259.624 158.956 259.487C162.001 259.086 162.001 259.086 163.349 259.086Z" fill="#DCE4E6"/>
<path d="M112.638 174.504C112.638 176.08 112.081 176.574 111.041 177.711C110.777 177.711 110.514 177.711 110.242 177.711C110.818 176.362 111.573 175.502 112.638 174.504Z" fill="#DCE4E6"/>
<path d="M109.443 104.353C109.839 104.353 110.234 104.353 110.641 104.353C110.773 104.882 110.905 105.411 111.041 105.956C110.382 106.221 109.723 106.486 109.044 106.758C109.176 105.964 109.308 105.171 109.443 104.353Z" fill="#132C3B"/>
<path d="M157.359 96.7366C157.359 97.9392 157.359 97.9392 156.361 99.0165C156.032 99.3224 155.702 99.6283 155.363 99.9435C155.099 99.8112 154.836 99.6789 154.564 99.5426C155.487 98.6166 156.409 97.6906 157.359 96.7366Z" fill="#132C3B"/>
<path d="M192.497 79.4994C192.867 80.9832 192.929 81.3573 192.497 82.7063C191.97 82.8386 191.443 82.9709 190.9 83.1072C191.427 81.9166 191.954 80.7261 192.497 79.4994Z" fill="#DCE4E6"/>
<path d="M167.741 28.5897C167.873 28.8543 168.005 29.1189 168.14 29.3915C168.404 29.3915 168.667 29.3915 168.939 29.3915C168.939 29.9206 168.939 30.4497 168.939 30.9949C168.675 30.9949 168.412 30.9949 168.14 30.9949C168.008 31.3918 167.877 31.7886 167.741 32.1975C167.741 31.0069 167.741 29.8164 167.741 28.5897Z" fill="#132C3B"/>
</svg>
