<svg width="1042" height="555" viewBox="0 0 1042 555" fill="none" xmlns="http://www.w3.org/2000/svg">
<g clip-path="url(#clip0_429_11941)">
<path d="M961.469 438.175C960.309 440.675 959.152 443.142 957.999 445.575C956.199 449.355 954.422 453.062 952.669 456.695C951.889 458.305 951.109 459.885 950.349 461.465C941.749 479.035 933.719 494.575 926.899 507.355C920.711 518.935 911.522 528.637 900.295 535.446C889.069 542.255 876.218 545.919 863.089 546.055L711.439 547.705H709.839L696.839 547.845L685.719 547.965L651.619 548.335H650.239L632.879 548.525H632.349L525.349 549.685L429.839 550.685L418.729 550.805L349.729 551.555H349.649L304.899 552.035H304.419L162.919 553.565L120.589 554.025C116.985 554.066 113.381 553.886 109.799 553.485C108.579 553.345 107.359 553.185 106.149 552.995C86.407 549.948 68.3051 540.228 54.859 525.455C36.649 505.425 23.399 482.055 14.499 456.695C13.2123 453.035 12.0123 449.328 10.899 445.575C-19.911 341.425 17.649 207.055 85.249 117.135C88.0823 113.375 90.9623 109.708 93.889 106.135L93.959 106.055C114.749 80.535 138.059 59.215 162.889 44.055C206.889 17.145 255.639 9.56497 303.589 32.155C344.159 51.275 382.039 60.265 418.759 62.705C422.469 62.945 426.179 63.125 429.869 63.235C514.099 65.885 593.039 35.535 685.739 15.945C689.429 15.165 693.129 14.395 696.859 13.665C762.989 0.504967 836.349 -6.43503 923.589 8.15497C932.653 9.63563 941.596 11.7746 950.349 14.555C954.196 15.795 957.902 17.1283 961.469 18.555C1003.11 35.495 1025.82 66.795 1035.47 106.015C1036.38 109.655 1037.17 113.358 1037.84 117.125C1054.95 211.465 1004.84 345.285 961.469 438.175Z" fill="#F2F2F2"/>
<path opacity="0.1" d="M497.009 445.575C496.606 449.315 495.981 453.029 495.139 456.695H588.839V445.575H497.009ZM418.759 508.385L429.869 508.295V480.825C426.059 480.655 422.349 480.485 418.759 480.305V508.385ZM185.839 445.575V456.695H384.339V445.575H185.839ZM1035.52 106.055H961.519V18.565C957.952 17.1183 954.246 15.785 950.399 14.565V106.055H696.859V13.635C693.129 14.365 689.429 15.135 685.739 15.915V106.055H429.869V63.205C426.179 63.095 422.469 62.915 418.759 62.675V106.055H162.889V44.055C138.059 59.215 114.749 80.535 93.959 106.055H93.889V106.135C90.9557 109.735 88.0757 113.402 85.249 117.135H93.889V445.575H10.889C11.9957 449.328 13.1957 453.035 14.489 456.695H93.879V550.315C97.8734 551.537 101.951 552.469 106.079 553.105C107.289 553.295 108.509 553.455 109.729 553.595C113.311 553.996 116.915 554.176 120.519 554.135L162.849 553.675V456.675H418.759V550.885L429.869 550.765V456.695H685.739V548.055L696.859 547.935V456.695H950.349V461.465C951.109 459.885 951.889 458.305 952.669 456.695C954.422 453.062 956.199 449.355 957.999 445.575C959.152 443.148 960.309 440.682 961.469 438.175V117.175H1037.89C1037.22 113.382 1036.43 109.675 1035.52 106.055ZM162.889 445.575V117.135H418.759V445.575H162.889ZM429.889 445.575V117.135H685.739V445.575H429.889ZM950.369 445.575H696.859V117.135H950.349L950.369 445.575Z" fill="black"/>
<path d="M863.079 533.615V546.615L711.159 548.015L709.539 548.045L651.799 548.575L650.419 548.595L632.869 548.745H632.349L525.369 549.735L349.759 551.365H349.609L304.959 551.785L304.479 551.795L106.079 553.615V538.615L152.729 510.615L246.329 509.835L248.329 509.825L248.989 509.815L250.989 509.785L295.929 509.415L297.939 509.405L298.579 509.395L300.579 509.385L314.989 509.265L315.369 509.255L350.919 508.955H351.209L628.609 506.615L635.399 506.565H636.079L641.259 506.515L678.909 506.205L680.909 506.175L682.759 506.155H683.719L695.429 506.065L697.749 506.035L700.859 506.015L710.609 505.925L726.079 505.795L728.079 505.775L731.559 505.755H732.209L806.919 505.115L863.079 533.615Z" fill="#65617D"/>
<path opacity="0.2" d="M863.079 533.615V546.615L711.159 548.015L709.539 548.045L651.799 548.575L650.419 548.595L632.869 548.745H632.349L525.369 549.735L349.759 551.365H349.609L304.959 551.785L304.479 551.795L106.079 553.615V538.615L152.729 510.615L246.329 509.835L248.329 509.825L248.989 509.815L250.989 509.785L295.929 509.415L297.939 509.405L298.579 509.395L300.579 509.385L314.989 509.265L315.369 509.255L350.919 508.955H351.209L628.609 506.615L635.399 506.565H636.079L641.259 506.515L678.909 506.205L680.909 506.175L682.759 506.155H683.719L695.429 506.065L697.749 506.035L700.859 506.015L710.609 505.925L726.079 505.795L728.079 505.775L731.559 505.755H732.209L806.919 505.115L863.079 533.615Z" fill="black"/>
<path d="M296.089 483.625V508.115C296.09 509.275 295.761 510.411 295.141 511.392C294.522 512.373 293.637 513.157 292.589 513.655C291.809 514.033 290.956 514.238 290.089 514.255L255.189 514.995C254.257 515.017 253.333 514.822 252.489 514.425C251.423 513.936 250.519 513.151 249.887 512.164C249.254 511.176 248.918 510.028 248.919 508.855V483.625H296.089Z" fill="#3F3D56"/>
<path opacity="0.1" d="M296.089 483.625V508.115C296.09 509.275 295.761 510.411 295.141 511.392C294.522 512.373 293.637 513.157 292.589 513.655C291.809 514.033 290.956 514.238 290.089 514.255L255.189 514.995C254.257 515.017 253.333 514.822 252.489 514.425C251.423 513.936 250.519 513.151 249.887 512.164C249.254 511.176 248.918 510.028 248.919 508.855V483.625H296.089Z" fill="black"/>
<path d="M298.089 483.625V508.115C298.09 509.275 297.761 510.411 297.141 511.392C296.522 512.373 295.637 513.157 294.589 513.655C293.809 514.033 292.956 514.238 292.089 514.255L257.189 514.995C256.257 515.017 255.333 514.822 254.489 514.425C253.423 513.936 252.519 513.151 251.887 512.164C251.254 511.176 250.918 510.028 250.919 508.855V483.625H298.089Z" fill="#3F3D56"/>
<path d="M728.079 483.615H680.909V515.115H728.079V483.615Z" fill="#3F3D56"/>
<path opacity="0.1" d="M728.079 483.615H680.909V515.115H728.079V483.615Z" fill="black"/>
<path d="M726.079 483.615H678.909V515.115H726.079V483.615Z" fill="#3F3D56"/>
<path opacity="0.1" d="M298.079 483.615V488.585L250.909 489.845V483.615H298.079Z" fill="black"/>
<path d="M381.339 312.325V480.525C381.327 481.552 380.92 482.534 380.204 483.27C379.487 484.005 378.515 484.437 377.489 484.475L185.839 489.575H185.789C184.745 489.562 183.748 489.142 183.01 488.404C182.272 487.666 181.852 486.669 181.839 485.625V312.325C181.852 311.281 182.272 310.284 183.01 309.546C183.748 308.808 184.745 308.388 185.789 308.375H377.389C378.433 308.388 379.43 308.808 380.168 309.546C380.906 310.284 381.326 311.281 381.339 312.325Z" fill="#65617D"/>
<path opacity="0.1" d="M185.839 308.375V489.575H185.789C184.745 489.562 183.748 489.142 183.01 488.404C182.272 487.666 181.852 486.669 181.839 485.625V312.325C181.852 311.281 182.272 310.284 183.01 309.546C183.748 308.808 184.745 308.388 185.789 308.375H185.839Z" fill="black"/>
<path d="M194.579 319.115H372.079V467.365L194.579 471.365V319.115Z" fill="#39374D"/>
<path opacity="0.1" d="M726.079 483.615V490.025L678.909 488.765V483.615H726.079Z" fill="black"/>
<path d="M788.339 312.325V485.625C788.326 486.677 787.899 487.682 787.15 488.421C786.401 489.161 785.391 489.575 784.339 489.575L592.649 484.475C591.623 484.437 590.651 484.005 589.934 483.27C589.218 482.534 588.811 481.552 588.799 480.525V312.325C588.812 311.281 589.232 310.284 589.97 309.546C590.708 308.808 591.705 308.388 592.749 308.375H784.349C785.4 308.378 786.407 308.793 787.153 309.532C787.9 310.271 788.326 311.275 788.339 312.325Z" fill="#65617D"/>
<path opacity="0.1" d="M788.339 312.325V485.625C788.326 486.677 787.899 487.682 787.15 488.421C786.401 489.161 785.391 489.575 784.339 489.575V308.375C785.391 308.375 786.401 308.789 787.15 309.529C787.899 310.268 788.326 311.273 788.339 312.325Z" fill="black"/>
<path d="M775.579 319.115H598.079V467.365L775.579 471.365V319.115Z" fill="#39374D"/>
<path d="M583.839 312.325V480.525C583.827 481.552 583.42 482.534 582.704 483.27C581.987 484.005 581.015 484.437 579.989 484.475L388.339 489.575C387.287 489.575 386.277 489.161 385.528 488.421C384.779 487.682 384.352 486.677 384.339 485.625V312.325C384.352 311.281 384.772 310.284 385.51 309.546C386.248 308.808 387.245 308.388 388.289 308.375H579.889C580.933 308.388 581.93 308.808 582.668 309.546C583.406 310.284 583.826 311.281 583.839 312.325Z" fill="#65617D"/>
<path d="M397.079 319.115H574.579V467.365L397.079 471.365V319.115Z" fill="#4267B2"/>
<path opacity="0.1" d="M863.079 533.615V546.615L711.159 548.015L709.539 548.045L651.799 548.575L650.419 548.595L632.869 548.745H632.349L525.369 549.735L349.759 551.365H349.609L304.959 551.785L304.479 551.795L106.079 553.615V538.615L308.589 537.285H309.069L350.059 537.005H350.249L633.329 535.135H633.619L633.789 535.125H634.259L639.049 535.095H640.509L714.999 534.595L719.399 534.575L720.379 534.565L863.079 533.615Z" fill="black"/>
<path d="M487.249 349.445C515.598 349.445 538.579 326.464 538.579 298.115C538.579 269.766 515.598 246.785 487.249 246.785C458.9 246.785 435.919 269.766 435.919 298.115C435.919 326.464 458.9 349.445 487.249 349.445Z" fill="#FBBEBE"/>
<path d="M538.589 377.125C538.589 377.125 439.089 389.125 448.589 377.125C452.029 372.785 452.979 359.925 452.789 345.275C452.729 340.825 452.569 336.215 452.339 331.625C451.239 309.625 448.589 288.125 448.589 288.125C448.589 288.125 535.589 247.125 525.589 279.625C521.589 292.755 522.899 311.195 525.939 328.505C526.829 333.555 527.859 338.505 528.939 343.205C531.575 354.669 534.796 365.99 538.589 377.125Z" fill="#FBBEBE"/>
<path d="M506.119 373.055C517.629 370.925 529.819 367.055 540.649 371.515C543.499 372.685 546.119 374.395 549.039 375.375C551.959 376.355 555.159 376.595 558.199 377.285C568.879 379.705 577.539 387.835 583.099 397.285C588.659 406.735 591.539 417.425 594.359 428.005L601.259 453.835C607.259 476.285 613.259 498.925 614.649 522.135C531.116 526.916 447.391 527.394 363.809 523.565C369.249 513.225 374.809 502.255 374.349 490.565C373.889 478.875 367.159 467.345 369.589 455.825C371.139 448.485 376.159 442.435 379.229 435.605C387.979 416.085 381.169 389.815 396.549 374.955C403.469 368.275 413.549 365.745 423.179 366.065C435.459 366.475 448.029 370.305 460.179 372.175C475.739 374.535 490.439 375.935 506.119 373.055Z" fill="#FF6584"/>
<path opacity="0.1" d="M637.019 484.225L636.919 485.655V485.755L636.749 488.055L635.419 506.565L633.809 528.865L633.349 535.145L632.349 548.585V548.755L525.349 549.755L349.759 551.655V552.495H349.619V551.375L350.069 537.015L350.929 508.955L351.669 485.165L351.739 482.795C351.783 481.365 352.118 479.958 352.723 478.661C353.329 477.365 354.192 476.205 355.261 475.253C356.33 474.301 357.581 473.577 358.939 473.126C360.297 472.674 361.733 472.503 363.159 472.625C367.879 473.025 374.009 473.515 381.339 474.035L384.339 474.255C426.669 477.195 504.899 480.995 583.839 476.255C585.499 476.165 587.169 476.065 588.839 475.945C601.079 475.175 613.309 474.185 625.419 472.945C626.95 472.785 628.497 472.962 629.952 473.464C631.407 473.966 632.735 474.782 633.84 475.852C634.946 476.923 635.804 478.223 636.353 479.661C636.902 481.099 637.13 482.64 637.019 484.175V484.225Z" fill="black"/>
<path d="M349.729 552.495V551.655L525.349 549.745L632.349 548.745H632.649V548.575L633.649 535.135L634.079 529.135L635.719 506.525L637.009 488.625V488.185C637.069 487.36 637.032 486.531 636.899 485.715C636.905 485.682 636.905 485.648 636.899 485.615C636.624 483.927 635.937 482.333 634.899 480.975C633.798 479.563 632.355 478.455 630.707 477.755C629.059 477.055 627.26 476.787 625.479 476.975C613.369 478.215 601.139 479.205 588.899 479.975C587.229 480.095 585.559 480.195 583.899 480.285C504.959 484.975 426.729 481.175 384.399 478.285L381.399 478.065C374.069 477.545 367.939 477.065 363.219 476.655C360.622 476.436 358.037 477.186 355.961 478.762C353.885 480.337 352.467 482.625 351.979 485.185C351.878 485.726 351.818 486.275 351.799 486.825L351.119 508.985L350.189 537.055L349.749 551.415V552.535L349.729 552.495Z" fill="#3F3D56"/>
<path opacity="0.1" d="M637.319 491.235L636.089 506.565L634.259 529.415L633.799 535.135L632.799 547.945L632.739 548.585V548.755L632.589 550.235L632.699 548.755H632.409L525.409 549.755L349.759 551.655V551.375L350.249 537.015L351.249 508.955L351.889 490.305C351.92 489.244 352.217 488.208 352.751 487.291C353.286 486.374 354.041 485.605 354.949 485.055C356.081 484.361 357.405 484.046 358.729 484.155C360.829 484.325 363.409 484.525 366.419 484.745C371.309 485.105 377.339 485.525 384.359 485.965C397.359 486.785 413.669 487.665 432.359 488.385C484.359 490.385 554.559 491.055 621.239 485.215C624.239 484.955 627.339 484.665 630.369 484.375C631.568 484.255 632.777 484.485 633.849 485.035C634.153 485.186 634.441 485.367 634.709 485.575C635.58 486.206 636.269 487.054 636.709 488.035C636.811 488.23 636.895 488.434 636.959 488.645C637.259 489.474 637.382 490.356 637.319 491.235Z" fill="black"/>
<path opacity="0.1" d="M298.089 504.925V508.115C298.09 509.275 297.761 510.411 297.141 511.392C296.522 512.373 295.637 513.157 294.589 513.655L254.489 514.425C253.423 513.936 252.519 513.151 251.887 512.164C251.254 511.176 250.918 510.028 250.919 508.855V505.855L298.089 504.925Z" fill="black"/>
<path d="M298.579 515.535L246.329 516.535V507.865L298.579 506.865V515.535Z" fill="#3F3D56"/>
<path opacity="0.1" d="M298.579 515.535L246.329 516.535V507.865L298.579 506.865V515.535Z" fill="black"/>
<path d="M300.579 515.535L248.329 516.535V507.865L300.579 506.865V515.535Z" fill="#3F3D56"/>
<path opacity="0.1" d="M679.209 506.925V510.115C679.208 511.275 679.537 512.411 680.157 513.392C680.776 514.373 681.661 515.157 682.709 515.655L722.809 516.425C723.875 515.936 724.779 515.151 725.411 514.164C726.044 513.176 726.38 512.028 726.379 510.855V507.855L679.209 506.925Z" fill="black"/>
<path opacity="0.1" d="M678.709 517.535L730.959 518.535V509.865L678.709 508.865V517.535Z" fill="black"/>
<path d="M676.709 517.535L728.959 518.535V509.865L676.709 508.865V517.535Z" fill="#3F3D56"/>
<path d="M454.779 313.845C454.859 320.845 451.619 327.445 448.869 333.915C438.856 357.483 434.52 383.074 436.209 408.625C436.939 419.625 438.789 430.625 436.939 441.525C435.089 452.425 428.509 463.295 417.939 466.425C435.469 476.875 459.199 475.775 475.699 463.765C484.489 457.365 491.039 448.435 497.449 439.655C496.688 455.427 492.121 470.781 484.139 484.405C498.567 483.127 512.566 478.834 525.229 471.802C537.892 464.77 548.937 455.157 557.649 443.585C561.959 437.775 565.709 431.395 567.369 424.355C570.459 411.355 566.149 397.845 562.859 384.855C560.11 373.996 558.049 362.974 556.689 351.855C556.259 348.295 555.909 344.635 556.789 341.155C557.789 337.085 560.459 333.645 562.429 329.935C568.029 319.395 568.159 306.635 565.289 295.055C562.419 283.475 556.799 272.795 551.229 262.245C546.769 253.785 541.929 244.935 533.769 239.965C528.669 236.865 522.769 235.575 516.889 234.325L491.519 228.895C485.969 227.705 480.259 226.515 474.649 227.385C465.179 228.865 458.509 235.705 452.649 242.725C448.059 248.185 436.839 258.435 436.049 265.585C435.329 272.175 441.149 283.215 442.139 290.165C443.439 299.165 444.359 296.165 449.439 301.685C452.649 305.105 454.719 309.055 454.779 313.845Z" fill="#3F3D56"/>
<path d="M650.185 369.518C650.706 368.863 651.259 368.232 651.811 367.601C651.836 367.57 651.892 367.563 651.917 367.532C651.967 367.47 652.048 367.432 652.097 367.37L652.147 367.307C652.532 366.951 652.943 366.564 653.415 366.226C655.088 364.956 656.823 363.992 658.654 363.357C664.524 361.296 671.058 362.566 676.182 367.404C683.337 374.111 682.697 384.915 676.985 392.096C669.767 402.802 657.364 417.738 674.538 431.117C677.625 433.523 679.916 435.506 689.643 438.317C683.281 439.49 677.383 439.125 670.818 437.448C666.173 434.826 658.872 429.214 656.388 421.634C652.634 410.138 662.998 392.954 668.007 386.336C674.884 377.176 663.756 367.26 655.564 378.33C651.281 384.099 643.789 400.424 646.393 412.533C647.915 419.4 649.944 424.406 657.989 431.282C656.498 430.401 655.049 429.403 653.643 428.285C634.951 410.873 637.12 383.951 650.185 369.518Z" fill="url(#paint0_linear_429_11941)"/>
<path d="M713.816 424.482C713.295 425.138 712.742 425.769 712.19 426.4C712.165 426.431 712.108 426.437 712.083 426.469C712.034 426.531 711.953 426.569 711.903 426.631L711.854 426.693C711.469 427.05 711.059 427.437 710.586 427.775C708.913 429.045 707.178 430.009 705.347 430.644C699.477 432.704 692.943 431.435 687.819 426.597C680.664 419.89 681.304 409.086 687.016 401.905C694.234 391.199 706.637 376.263 689.463 362.883C686.376 360.478 684.085 358.494 674.358 355.683C680.719 354.511 686.618 354.876 693.183 356.553C697.827 359.174 705.129 364.787 707.613 372.367C711.367 383.862 701.003 401.047 695.994 407.665C689.117 416.825 700.245 426.74 708.437 415.671C712.72 409.902 720.211 393.577 717.608 381.468C716.085 374.601 714.057 369.595 706.011 362.719C707.503 363.6 708.952 364.598 710.357 365.715C729.05 383.128 726.882 410.05 713.816 424.482Z" fill="url(#paint1_linear_429_11941)"/>
<path d="M324.807 395.921C324.807 401.558 323.697 407.139 321.541 412.346C319.385 417.554 316.225 422.285 312.241 426.271C308.257 430.257 303.527 433.418 298.322 435.575C293.117 437.732 287.538 438.842 281.903 438.842C276.269 438.842 270.69 437.732 265.485 435.575C260.28 433.418 255.55 430.257 251.566 426.271C247.582 422.285 244.422 417.554 242.266 412.346C240.11 407.139 239 401.558 239 395.921C239 384.538 243.52 373.621 251.566 365.571C259.612 357.522 270.525 353 281.903 353C293.282 353 304.195 357.522 312.241 365.571C320.287 373.621 324.807 384.538 324.807 395.921Z" fill="#1E1E1E"/>
<path fill-rule="evenodd" clip-rule="evenodd" d="M281.941 360.639C262.484 360.639 246.706 376.448 246.706 395.959C246.706 415.47 262.484 431.279 281.941 431.279C301.399 431.279 317.176 415.47 317.176 395.959C317.176 376.455 301.399 360.639 281.941 360.639ZM243.133 395.959C243.133 374.469 260.511 357.057 281.941 357.057C303.372 357.057 320.75 374.477 320.75 395.959C320.75 417.449 303.372 434.861 281.941 434.861C260.511 434.861 243.133 417.449 243.133 395.959Z" fill="#FF7B7C"/>
<path fill-rule="evenodd" clip-rule="evenodd" d="M297.262 386.69L287.472 386.282L294.125 379.062L291.445 376.383L284.235 383.03L283.842 373.217H280.062L279.655 383.03L272.452 376.361L269.779 379.047L276.418 386.275L266.621 386.662V390.458L276.411 390.866L269.758 398.086L272.438 400.765L279.533 394.219L279.848 410.12L274.181 410.536V414.067L279.933 414.504L280.041 420.027H283.821L283.935 414.511L289.744 414.067V410.536L284.021 410.12L284.342 394.226L291.431 400.78L294.103 398.101L287.472 390.873L297.262 390.479L297.262 386.69Z" fill="#FF7B7C"/>
</g>
<defs>
<linearGradient id="paint0_linear_429_11941" x1="640" y1="397" x2="724.001" y2="397" gradientUnits="userSpaceOnUse">
<stop stop-color="#0082FA"/>
<stop offset="1" stop-color="#00F2FE"/>
</linearGradient>
<linearGradient id="paint1_linear_429_11941" x1="640" y1="397" x2="724.001" y2="397" gradientUnits="userSpaceOnUse">
<stop stop-color="#0082FA"/>
<stop offset="1" stop-color="#00F2FE"/>
</linearGradient>
<clipPath id="clip0_429_11941">
<rect width="1041.28" height="554.141" fill="white"/>
</clipPath>
</defs>
</svg>
